<svg width="1015" height="611" viewBox="0 0 1015 611" fill="none" xmlns="http://www.w3.org/2000/svg">
<rect y="3" width="1014.27" height="606.963" fill="url(#paint0_linear)"/>
<rect y="3" width="1014.27" height="606.963" fill="url(#paint1_linear)" style="mix-blend-mode:darken"/>
<rect y="3" width="1014.27" height="606.963" fill="url(#paint2_linear)"/>
<path d="M715.997 195.275L718.661 199.12L723.141 197.775L720.307 201.496L722.97 205.342L718.555 203.796L715.722 207.518L715.827 202.841L711.412 201.296L715.892 199.951L715.997 195.275Z" fill="url(#paint3_linear)"/>
<path d="M938.461 19.9685L941.124 23.8136L945.604 22.4687L942.771 26.1901L945.434 30.0352L941.019 28.49L938.185 32.2114L938.291 27.535L933.876 25.9897L938.356 24.6448L938.461 19.9685Z" fill="url(#paint4_linear)"/>
<path d="M652.37 224.723L655.034 228.568L659.514 227.223L656.68 230.944L659.343 234.79L654.928 233.244L652.094 236.966L652.2 232.289L647.785 230.744L652.265 229.399L652.37 224.723Z" fill="url(#paint5_linear)"/>
<path d="M651.232 35.9412L653.895 39.7864L658.375 38.4415L655.542 42.1629L658.205 46.008L653.79 44.4628L650.956 48.1841L651.062 43.5078L646.647 41.9625L651.127 40.6176L651.232 35.9412Z" fill="url(#paint6_linear)"/>
<path d="M998.957 112.984L1001.62 116.829L1006.1 115.484L1003.27 119.205L1005.93 123.05L1001.51 121.505L998.681 125.226L998.786 120.55L994.371 119.005L998.851 117.66L998.957 112.984Z" fill="url(#paint7_linear)"/>
<path d="M930 134.063L932.663 137.908L937.144 136.564L934.31 140.285L936.973 144.13L932.558 142.585L929.724 146.306L929.83 141.63L925.415 140.085L929.895 138.74L930 134.063Z" fill="url(#paint8_linear)"/>
<path d="M621.888 102.98L624.551 106.825L629.031 105.48L626.197 109.201L628.861 113.046L624.446 111.501L621.612 115.223L621.717 110.546L617.302 109.001L621.782 107.656L621.888 102.98Z" fill="url(#paint9_linear)"/>
<path d="M579.246 170.091L581.909 173.936L586.389 172.591L583.555 176.313L586.219 180.158L581.804 178.612L578.97 182.334L579.075 177.657L574.66 176.112L579.14 174.767L579.246 170.091Z" fill="url(#paint10_linear)"/>
<path d="M715.762 96.6955L718.426 100.541L722.906 99.1958L720.072 102.917L722.735 106.762L718.32 105.217L715.486 108.938L715.592 104.262L711.177 102.717L715.657 101.372L715.762 96.6955Z" fill="url(#paint11_linear)"/>
<path d="M809.833 112.311L812.497 116.157L816.977 114.812L814.143 118.533L816.807 122.378L812.392 120.833L809.558 124.554L809.663 119.878L805.248 118.333L809.728 116.988L809.833 112.311Z" fill="url(#paint12_linear)"/>
<path d="M746.207 141.76L748.87 145.606L753.35 144.261L750.516 147.982L753.18 151.827L748.765 150.282L745.931 154.003L746.036 149.327L741.621 147.782L746.101 146.437L746.207 141.76Z" fill="url(#paint13_linear)"/>
<path d="M715.724 20.017L718.388 23.8622L722.868 22.5172L720.034 26.2386L722.697 30.0838L718.283 28.5385L715.449 32.2599L715.554 27.5835L711.139 26.0383L715.619 24.6934L715.724 20.017Z" fill="url(#paint14_linear)"/>
<path d="M673.082 87.1283L675.746 90.9735L680.226 89.6286L677.392 93.3499L680.055 97.1951L675.64 95.6499L672.806 99.3712L672.912 94.6948L668.497 93.1496L672.977 91.8047L673.082 87.1283Z" fill="url(#paint15_linear)"/>
<path d="M809.599 13.7329L812.262 17.578L816.742 16.2331L813.908 19.9545L816.572 23.7996L812.157 22.2544L809.323 25.9758L809.428 21.2994L805.014 19.7542L809.494 18.4092L809.599 13.7329Z" fill="url(#paint16_linear)"/>
<path d="M529.258 154.59L531.922 158.436L536.402 157.091L533.568 160.812L536.231 164.657L531.816 163.112L528.982 166.833L529.088 162.157L524.673 160.612L529.153 159.267L529.258 154.59Z" fill="url(#paint17_linear)"/>
<path d="M465.631 184.039L468.294 187.884L472.774 186.539L469.94 190.261L472.604 194.106L468.189 192.56L465.355 196.282L465.46 191.605L461.045 190.06L465.526 188.715L465.631 184.039Z" fill="url(#paint18_linear)"/>
<path d="M435.149 62.296L437.812 66.1411L442.292 64.7962L439.458 68.5176L442.122 72.3628L437.707 70.8175L434.873 74.5389L434.978 69.8625L430.563 68.3173L435.043 66.9723L435.149 62.296Z" fill="url(#paint19_linear)"/>
<path d="M392.506 129.407L395.17 133.252L399.65 131.907L396.816 135.628L399.479 139.474L395.064 137.928L392.23 141.65L392.336 136.973L387.921 135.428L392.401 134.083L392.506 129.407Z" fill="url(#paint20_linear)"/>
<path d="M529.023 56.0119L531.687 59.857L536.167 58.5121L533.333 62.2335L535.996 66.0786L531.581 64.5334L528.747 68.2548L528.853 63.5784L524.438 62.0331L528.918 60.6882L529.023 56.0119Z" fill="url(#paint21_linear)"/>
<path d="M644.439 309.844L647.103 313.689L651.583 312.344L648.749 316.065L651.413 319.91L646.998 318.365L644.164 322.087L644.269 317.41L639.854 315.865L644.334 314.52L644.439 309.844Z" fill="url(#paint22_linear)"/>
<path d="M580.812 339.292L583.476 343.137L587.956 341.792L585.122 345.514L587.785 349.359L583.37 347.814L580.537 351.535L580.642 346.859L576.227 345.313L580.707 343.968L580.812 339.292Z" fill="url(#paint23_linear)"/>
<path d="M550.33 217.549L552.994 221.394L557.474 220.049L554.64 223.77L557.303 227.615L552.888 226.07L550.055 229.792L550.16 225.115L545.745 223.57L550.225 222.225L550.33 217.549Z" fill="url(#paint24_linear)"/>
<path d="M507.688 284.66L510.351 288.505L514.831 287.16L511.997 290.882L514.661 294.727L510.246 293.182L507.412 296.903L507.517 292.227L503.102 290.682L507.582 289.337L507.688 284.66Z" fill="url(#paint25_linear)"/>
<path d="M644.205 211.265L646.868 215.11L651.348 213.765L648.514 217.486L651.178 221.332L646.763 219.786L643.929 223.508L644.034 218.831L639.619 217.286L644.099 215.941L644.205 211.265Z" fill="url(#paint26_linear)"/>
<path d="M810.359 217.398L813.023 221.243L817.503 219.898L814.669 223.62L817.332 227.465L812.918 225.919L810.084 229.641L810.189 224.964L805.774 223.419L810.254 222.074L810.359 217.398Z" fill="url(#paint27_linear)"/>
<path d="M746.732 246.846L749.396 250.691L753.876 249.346L751.042 253.068L753.705 256.913L749.29 255.368L746.456 259.089L746.562 254.413L742.147 252.867L746.627 251.523L746.732 246.846Z" fill="url(#paint28_linear)"/>
<path d="M716.25 125.103L718.913 128.948L723.394 127.604L720.56 131.325L723.223 135.17L718.808 133.625L715.974 137.346L716.08 132.67L711.665 131.125L716.145 129.78L716.25 125.103Z" fill="url(#paint29_linear)"/>
<path d="M673.608 192.214L676.271 196.059L680.751 194.715L677.917 198.436L680.581 202.281L676.166 200.736L673.332 204.457L673.437 199.781L669.022 198.236L673.502 196.891L673.608 192.214Z" fill="url(#paint30_linear)"/>
<path d="M794.244 90.3173L796.908 94.1625L801.388 92.8176L798.554 96.539L801.217 100.384L796.803 98.8389L793.969 102.56L794.074 97.8839L789.659 96.3386L794.139 94.9937L794.244 90.3173Z" fill="url(#paint31_linear)"/>
<path d="M979.457 131.852L982.12 135.697L986.6 134.352L983.766 138.074L986.43 141.919L982.015 140.374L979.181 144.095L979.286 139.419L974.871 137.873L979.351 136.528L979.457 131.852Z" fill="url(#paint32_linear)"/>
<path d="M915.83 161.301L918.493 165.146L922.973 163.801L920.139 167.522L922.803 171.367L918.388 169.822L915.554 173.543L915.659 168.867L911.244 167.322L915.724 165.977L915.83 161.301Z" fill="url(#paint33_linear)"/>
<path d="M885.347 39.5576L888.011 43.4027L892.491 42.0578L889.657 45.7792L892.321 49.6244L887.906 48.0791L885.072 51.8005L885.177 47.1241L880.762 45.5789L885.242 44.2339L885.347 39.5576Z" fill="url(#paint34_linear)"/>
<path d="M842.705 106.669L845.369 110.514L849.849 109.169L847.015 112.891L849.678 116.736L845.263 115.19L842.43 118.912L842.535 114.235L838.12 112.69L842.6 111.345L842.705 106.669Z" fill="url(#paint35_linear)"/>
<path d="M979.222 33.273L981.886 37.1181L986.366 35.7732L983.532 39.4946L986.195 43.3397L981.78 41.7945L978.946 45.5159L979.052 40.8395L974.637 39.2943L979.117 37.9493L979.222 33.273Z" fill="url(#paint36_linear)"/>
<path d="M552.24 54.9652L554.904 58.8104L559.384 57.4655L556.55 61.1868L559.214 65.032L554.799 63.4868L551.965 67.2081L552.07 62.5318L547.655 60.9865L552.135 59.6416L552.24 54.9652Z" fill="url(#paint37_linear)"/>
<path d="M804.256 287.44L804.711 292.096L809.279 293.101L804.992 294.973L805.448 299.628L802.343 296.129L798.056 298.001L800.424 293.967L797.32 290.468L801.888 291.474L804.256 287.44Z" fill="url(#paint38_linear)"/>
<path d="M643.451 470.385L643.906 475.04L648.474 476.046L644.188 477.917L644.643 482.573L641.538 479.074L637.251 480.945L639.619 476.912L636.515 473.413L641.083 474.419L643.451 470.385Z" fill="url(#paint39_linear)"/>
<path d="M350.653 336.151L353.305 340.004L357.789 338.672L354.944 342.385L357.596 346.238L353.186 344.68L350.341 348.393L350.46 343.717L346.049 342.158L350.533 340.827L350.653 336.151Z" fill="url(#paint40_linear)"/>
<path d="M298.519 574.077L301.171 577.93L305.655 576.598L302.81 580.311L305.462 584.164L301.052 582.606L298.207 586.319L298.326 581.643L293.916 580.085L298.4 578.753L298.519 574.077Z" fill="url(#paint41_linear)"/>
<path d="M306.417 326.001L309.069 329.854L313.553 328.522L310.708 332.235L313.36 336.088L308.95 334.53L306.105 338.243L306.224 333.567L301.814 332.009L306.298 330.677L306.417 326.001Z" fill="url(#paint42_linear)"/>
<path d="M521.501 399.43L524.153 403.283L528.637 401.951L525.792 405.664L528.444 409.517L524.034 407.959L521.189 411.672L521.308 406.996L516.898 405.438L521.382 404.106L521.501 399.43Z" fill="url(#paint43_linear)"/>
<path d="M234.226 414.553L236.878 418.406L241.362 417.074L238.517 420.787L241.169 424.64L236.759 423.082L233.914 426.795L234.033 422.119L229.622 420.56L234.106 419.229L234.226 414.553Z" fill="url(#paint44_linear)"/>
<path d="M581.721 492.624L584.373 496.477L588.857 495.145L586.012 498.858L588.664 502.711L584.254 501.153L581.409 504.866L581.528 500.19L577.118 498.632L581.602 497.3L581.721 492.624Z" fill="url(#paint45_linear)"/>
<path d="M512.702 513.5L515.354 517.353L519.838 516.021L516.993 519.734L519.646 523.587L515.235 522.029L512.39 525.742L512.509 521.066L508.099 519.507L512.583 518.176L512.702 513.5Z" fill="url(#paint46_linear)"/>
<path d="M204.683 481.504L207.336 485.357L211.82 484.025L208.975 487.738L211.627 491.591L207.216 490.033L204.371 493.746L204.491 489.07L200.08 487.512L204.564 486.18L204.683 481.504Z" fill="url(#paint47_linear)"/>
<path d="M161.843 548.488L164.495 552.342L168.979 551.01L166.134 554.723L168.786 558.576L164.376 557.018L161.531 560.731L161.65 556.054L157.239 554.496L161.723 553.165L161.843 548.488Z" fill="url(#paint48_linear)"/>
<path d="M431.464 335.384L434.116 339.238L438.6 337.906L435.755 341.619L438.407 345.472L433.997 343.914L431.152 347.627L431.271 342.95L426.861 341.392L431.345 340.061L431.464 335.384Z" fill="url(#paint49_linear)"/>
<path d="M298.576 475.497L301.228 479.351L305.712 478.019L302.867 481.732L305.519 485.585L301.109 484.027L298.264 487.739L298.383 483.063L293.973 481.505L298.457 480.174L298.576 475.497Z" fill="url(#paint50_linear)"/>
<path d="M392.6 491.392L395.253 495.245L399.737 493.913L396.892 497.626L399.544 501.479L395.133 499.921L392.288 503.634L392.408 498.958L387.997 497.4L392.481 496.068L392.6 491.392Z" fill="url(#paint51_linear)"/>
<path d="M328.887 520.652L331.539 524.505L336.023 523.173L333.178 526.886L335.83 530.739L331.419 529.181L328.575 532.894L328.694 528.218L324.283 526.66L328.767 525.328L328.887 520.652Z" fill="url(#paint52_linear)"/>
<path d="M298.765 398.819L301.417 402.672L305.901 401.34L303.056 405.053L305.708 408.906L301.298 407.348L298.453 411.061L298.572 406.385L294.162 404.826L298.646 403.495L298.765 398.819Z" fill="url(#paint53_linear)"/>
<path d="M255.924 465.804L258.576 469.657L263.06 468.325L260.215 472.038L262.867 475.891L258.457 474.333L255.612 478.046L255.731 473.37L251.321 471.812L255.805 470.48L255.924 465.804Z" fill="url(#paint54_linear)"/>
<path d="M392.658 392.813L395.31 396.666L399.794 395.334L396.949 399.047L399.601 402.9L395.19 401.342L392.346 405.055L392.465 400.379L388.054 398.821L392.538 397.489L392.658 392.813Z" fill="url(#paint55_linear)"/>
<path d="M111.901 532.84L114.553 536.693L119.037 535.361L116.192 539.074L118.844 542.927L114.434 541.369L111.589 545.082L111.708 540.406L107.298 538.848L111.782 537.516L111.901 532.84Z" fill="url(#paint56_linear)"/>
<path d="M48.1868 562.1L50.8389 565.953L55.3229 564.621L52.478 568.334L55.1301 572.187L50.7198 570.629L47.8749 574.342L47.994 569.666L43.5837 568.108L48.0677 566.776L48.1868 562.1Z" fill="url(#paint57_linear)"/>
<path d="M18.0655 440.267L20.7176 444.12L25.2016 442.789L22.3567 446.502L25.0088 450.355L20.5984 448.796L17.7535 452.509L17.8727 447.833L13.4623 446.275L17.9463 444.943L18.0655 440.267Z" fill="url(#paint58_linear)"/>
<path d="M111.958 434.261L114.61 438.114L119.094 436.782L116.249 440.495L118.901 444.348L114.491 442.79L111.646 446.503L111.765 441.827L107.355 440.269L111.839 438.937L111.958 434.261Z" fill="url(#paint59_linear)"/>
<path d="M132.787 595.86L135.439 599.713L139.923 598.382L137.078 602.095L139.73 605.948L135.32 604.389L132.475 608.102L132.594 603.426L128.184 601.868L132.668 600.536L132.787 595.86Z" fill="url(#paint60_linear)"/>
<path d="M226.68 589.854L229.332 593.707L233.816 592.375L230.971 596.088L233.623 599.941L229.212 598.383L226.368 602.096L226.487 597.42L222.076 595.862L226.56 594.53L226.68 589.854Z" fill="url(#paint61_linear)"/>
<path d="M392.815 596.479L395.467 600.332L399.951 599.001L397.106 602.714L399.759 606.567L395.348 605.008L392.503 608.721L392.622 604.045L388.212 602.487L392.696 601.155L392.815 596.479Z" fill="url(#paint62_linear)"/>
<path d="M298.98 503.906L301.632 507.759L306.116 506.428L303.271 510.141L305.923 513.994L301.513 512.435L298.668 516.148L298.787 511.472L294.376 509.914L298.86 508.582L298.98 503.906Z" fill="url(#paint63_linear)"/>
<path d="M256.139 570.891L258.791 574.744L263.275 573.412L260.43 577.125L263.082 580.978L258.672 579.42L255.827 583.133L255.946 578.457L251.536 576.899L256.02 575.567L256.139 570.891Z" fill="url(#paint64_linear)"/>
<path d="M377.076 469.352L379.729 473.205L384.213 471.873L381.368 475.586L384.02 479.439L379.609 477.881L376.765 481.594L376.884 476.918L372.473 475.359L376.957 474.028L377.076 469.352Z" fill="url(#paint65_linear)"/>
<path d="M562.165 511.435L564.817 515.288L569.301 513.956L566.456 517.669L569.108 521.522L564.698 519.964L561.853 523.677L561.972 519L557.562 517.442L562.046 516.111L562.165 511.435Z" fill="url(#paint66_linear)"/>
<path d="M498.451 540.695L501.103 544.548L505.587 543.216L502.742 546.929L505.395 550.782L500.984 549.224L498.139 552.937L498.258 548.261L493.848 546.702L498.332 545.371L498.451 540.695Z" fill="url(#paint67_linear)"/>
<path d="M468.33 418.862L470.982 422.715L475.466 421.383L472.621 425.096L475.273 428.949L470.863 427.391L468.018 431.104L468.137 426.428L463.726 424.869L468.21 423.538L468.33 418.862Z" fill="url(#paint68_linear)"/>
<path d="M425.489 485.846L428.141 489.699L432.625 488.368L429.78 492.081L432.432 495.934L428.022 494.375L425.177 498.088L425.296 493.412L420.885 491.854L425.369 490.522L425.489 485.846Z" fill="url(#paint69_linear)"/>
<path d="M562.222 412.855L564.874 416.708L569.358 415.377L566.513 419.09L569.166 422.943L564.755 421.384L561.91 425.097L562.029 420.421L557.619 418.863L562.103 417.531L562.222 412.855Z" fill="url(#paint70_linear)"/>
<path d="M478.453 324.034L481.105 327.887L485.589 326.556L482.744 330.269L485.396 334.122L480.986 332.564L478.141 336.276L478.26 331.6L473.85 330.042L478.334 328.71L478.453 324.034Z" fill="url(#paint71_linear)"/>
<path d="M414.739 353.295L417.391 357.148L421.875 355.816L419.031 359.529L421.683 363.382L417.272 361.824L414.427 365.537L414.547 360.861L410.136 359.302L414.62 357.971L414.739 353.295Z" fill="url(#paint72_linear)"/>
<path d="M384.617 231.462L387.27 235.315L391.754 233.983L388.909 237.696L391.561 241.549L387.15 239.991L384.306 243.704L384.425 239.028L380.014 237.47L384.498 236.138L384.617 231.462Z" fill="url(#paint73_linear)"/>
<path d="M341.776 298.447L344.429 302.3L348.913 300.968L346.068 304.681L348.72 308.534L344.309 306.976L341.464 310.689L341.584 306.013L337.173 304.454L341.657 303.123L341.776 298.447Z" fill="url(#paint74_linear)"/>
<path d="M478.51 225.456L481.162 229.309L485.646 227.977L482.802 231.69L485.454 235.543L481.043 233.985L478.198 237.698L478.318 233.022L473.907 231.463L478.391 230.132L478.51 225.456Z" fill="url(#paint75_linear)"/>
<path d="M135.178 433.283L137.83 437.136L142.314 435.805L139.469 439.518L142.122 443.371L137.711 441.812L134.866 445.525L134.985 440.849L130.575 439.291L135.059 437.959L135.178 433.283Z" fill="url(#paint76_linear)"/>
<path d="M770.464 257.144L770.919 261.799L775.487 262.805L771.2 264.676L771.655 269.331L768.551 265.833L764.264 267.704L766.632 263.67L763.527 260.172L768.095 261.177L770.464 257.144Z" fill="url(#paint77_linear)"/>
<path d="M923.111 425.523L923.566 430.178L928.135 431.184L923.848 433.055L924.303 437.71L921.198 434.212L916.912 436.083L919.28 432.049L916.175 428.551L920.743 429.556L923.111 425.523Z" fill="url(#paint78_linear)"/>
<path d="M573.536 465.141L573.991 469.797L578.559 470.802L574.273 472.674L574.728 477.329L571.623 473.83L567.336 475.702L569.704 471.668L566.6 468.169L571.168 469.175L573.536 465.141Z" fill="url(#paint79_linear)"/>
<path d="M664.426 299.675L664.881 304.331L669.449 305.336L665.162 307.208L665.617 311.863L662.513 308.364L658.226 310.236L660.594 306.202L657.489 302.703L662.058 303.709L664.426 299.675Z" fill="url(#paint80_linear)"/>
<path d="M930.685 536.221L931.141 540.877L935.709 541.882L931.422 543.754L931.877 548.409L928.773 544.91L924.486 546.782L926.854 542.748L923.749 539.249L928.317 540.255L930.685 536.221Z" fill="url(#paint81_linear)"/>
<path d="M860.188 521.073L860.643 525.729L865.211 526.734L860.924 528.606L861.38 533.261L858.275 529.762L853.988 531.634L856.356 527.6L853.252 524.101L857.82 525.107L860.188 521.073Z" fill="url(#paint82_linear)"/>
<path d="M606.163 343.955L606.618 348.61L611.186 349.616L606.9 351.488L607.355 356.143L604.25 352.644L599.963 354.516L602.331 350.482L599.227 346.983L603.795 347.989L606.163 343.955Z" fill="url(#paint83_linear)"/>
<path d="M536.248 381.826L536.703 386.481L541.272 387.487L536.985 389.358L537.44 394.013L534.335 390.515L530.049 392.386L532.417 388.352L529.312 384.854L533.88 385.859L536.248 381.826Z" fill="url(#paint84_linear)"/>
<path d="M875.336 325.893L875.791 330.549L880.359 331.554L876.073 333.426L876.528 338.081L873.423 334.583L869.136 336.454L871.504 332.42L868.4 328.922L872.968 329.927L875.336 325.893Z" fill="url(#paint85_linear)"/>
<path d="M691.227 384.156L691.682 388.812L696.25 389.817L691.963 391.689L692.418 396.344L689.314 392.845L685.027 394.717L687.395 390.683L684.29 387.184L688.858 388.19L691.227 384.156Z" fill="url(#paint86_linear)"/>
<path d="M765.802 443.584L766.258 448.239L770.826 449.245L766.539 451.117L766.994 455.772L763.89 452.273L759.603 454.145L761.971 450.111L758.866 446.612L763.434 447.618L765.802 443.584Z" fill="url(#paint87_linear)"/>
<path d="M695.887 438.34L696.343 442.996L700.911 444.001L696.624 445.873L697.079 450.528L693.975 447.029L689.688 448.901L692.056 444.867L688.951 441.368L693.519 442.374L695.887 438.34Z" fill="url(#paint88_linear)"/>
<path d="M728.514 317.154L728.97 321.809L733.538 322.815L729.251 324.687L729.706 329.342L726.601 325.843L722.315 327.715L724.683 323.681L721.578 320.182L726.146 321.188L728.514 317.154Z" fill="url(#paint89_linear)"/>
<path d="M658.6 355.025L659.055 359.68L663.623 360.686L659.336 362.557L659.791 367.213L656.687 363.714L652.4 365.585L654.768 361.552L651.663 358.053L656.231 359.059L658.6 355.025Z" fill="url(#paint90_linear)"/>
<path d="M813.578 357.355L814.033 362.011L818.601 363.016L814.314 364.888L814.77 369.543L811.665 366.044L807.378 367.916L809.746 363.882L806.642 360.383L811.21 361.389L813.578 357.355Z" fill="url(#paint91_linear)"/>
<path d="M500.125 343.955L500.581 348.61L505.149 349.616L500.862 351.487L501.317 356.143L498.213 352.644L493.926 354.516L496.294 350.482L493.189 346.983L497.757 347.989L500.125 343.955Z" fill="url(#paint92_linear)"/>
<path d="M430.21 338.711L430.666 343.367L435.234 344.372L430.947 346.244L431.402 350.899L428.298 347.4L424.011 349.272L426.379 345.238L423.274 341.739L427.842 342.745L430.21 338.711Z" fill="url(#paint93_linear)"/>
<path d="M462.837 217.525L463.293 222.181L467.861 223.186L463.574 225.058L464.029 229.713L460.924 226.214L456.638 228.086L459.006 224.052L455.901 220.553L460.469 221.559L462.837 217.525Z" fill="url(#paint94_linear)"/>
<path d="M392.922 255.396L393.378 260.051L397.946 261.057L393.659 262.928L394.114 267.584L391.009 264.085L386.723 265.957L389.091 261.923L385.986 258.424L390.554 259.43L392.922 255.396Z" fill="url(#paint95_linear)"/>
<path d="M547.901 257.726L548.356 262.382L552.924 263.387L548.637 265.259L549.092 269.914L545.988 266.416L541.701 268.287L544.069 264.253L540.964 260.754L545.532 261.76L547.901 257.726Z" fill="url(#paint96_linear)"/>
<path d="M525.178 535.639L525.633 540.294L530.202 541.3L525.915 543.171L526.37 547.827L523.265 544.328L518.978 546.2L521.347 542.166L518.242 538.667L522.81 539.673L525.178 535.639Z" fill="url(#paint97_linear)"/>
<path d="M455.263 530.395L455.718 535.05L460.286 536.056L456 537.928L456.455 542.583L453.35 539.084L449.063 540.956L451.431 536.922L448.327 533.423L452.895 534.429L455.263 530.395Z" fill="url(#paint98_linear)"/>
<path d="M487.89 409.209L488.345 413.864L492.913 414.87L488.627 416.741L489.082 421.397L485.977 417.898L481.69 419.77L484.058 415.736L480.954 412.237L485.522 413.243L487.89 409.209Z" fill="url(#paint99_linear)"/>
<path d="M417.975 447.08L418.43 451.735L422.998 452.741L418.712 454.612L419.167 459.268L416.062 455.769L411.775 457.64L414.143 453.607L411.039 450.108L415.607 451.114L417.975 447.08Z" fill="url(#paint100_linear)"/>
<path d="M572.954 449.41L573.409 454.066L577.977 455.071L573.69 456.943L574.145 461.598L571.041 458.099L566.754 459.971L569.122 455.937L566.017 452.438L570.585 453.444L572.954 449.41Z" fill="url(#paint101_linear)"/>
<path d="M715.114 535.639L715.569 540.294L720.138 541.3L715.851 543.171L716.306 547.827L713.201 544.328L708.914 546.199L711.283 542.166L708.178 538.667L712.746 539.673L715.114 535.639Z" fill="url(#paint102_linear)"/>
<path d="M645.199 530.395L645.654 535.051L650.223 536.056L645.936 537.928L646.391 542.583L643.286 539.084L638.999 540.956L641.368 536.922L638.263 533.423L642.831 534.429L645.199 530.395Z" fill="url(#paint103_linear)"/>
<path d="M677.826 409.209L678.281 413.864L682.849 414.87L678.563 416.742L679.018 421.397L675.913 417.898L671.626 419.77L673.994 415.736L670.89 412.237L675.458 413.243L677.826 409.209Z" fill="url(#paint104_linear)"/>
<path d="M607.911 447.08L608.366 451.735L612.934 452.741L608.648 454.612L609.103 459.268L605.998 455.769L601.711 457.64L604.079 453.607L600.975 450.108L605.543 451.113L607.911 447.08Z" fill="url(#paint105_linear)"/>
<path d="M762.889 416.783L763.345 421.438L767.913 422.444L763.626 424.316L764.081 428.971L760.976 425.472L756.69 427.344L759.058 423.31L755.953 419.811L760.521 420.817L762.889 416.783Z" fill="url(#paint106_linear)"/>
<path d="M904.467 543.213L904.922 547.868L909.491 548.874L905.204 550.745L905.659 555.401L902.554 551.902L898.267 553.774L900.636 549.74L897.531 546.241L902.099 547.247L904.467 543.213Z" fill="url(#paint107_linear)"/>
<path d="M834.552 537.969L835.007 542.625L839.576 543.63L835.289 545.502L835.744 550.157L832.639 546.659L828.352 548.53L830.721 544.496L827.616 540.997L832.184 542.003L834.552 537.969Z" fill="url(#paint108_linear)"/>
<path d="M867.179 416.783L867.634 421.438L872.203 422.444L867.916 424.316L868.371 428.971L865.266 425.472L860.979 427.344L863.348 423.31L860.243 419.811L864.811 420.817L867.179 416.783Z" fill="url(#paint109_linear)"/>
<path d="M797.264 454.654L797.72 459.309L802.288 460.315L798.001 462.186L798.456 466.842L795.351 463.343L791.065 465.214L793.433 461.181L790.328 457.682L794.896 458.688L797.264 454.654Z" fill="url(#paint110_linear)"/>
<path d="M952.243 456.984L952.698 461.64L957.266 462.645L952.979 464.517L953.434 469.172L950.33 465.673L946.043 467.545L948.411 463.511L945.306 460.012L949.875 461.018L952.243 456.984Z" fill="url(#paint111_linear)"/>
<path d="M921.946 338.711L922.401 343.367L926.97 344.372L922.683 346.244L923.138 350.899L920.033 347.4L915.747 349.272L918.115 345.238L915.01 341.739L919.578 342.745L921.946 338.711Z" fill="url(#paint112_linear)"/>
<path d="M852.031 333.467L852.486 338.123L857.054 339.128L852.767 341L853.223 345.655L850.118 342.157L845.831 344.028L848.199 339.994L845.095 336.496L849.663 337.501L852.031 333.467Z" fill="url(#paint113_linear)"/>
<path d="M884.658 212.281L885.113 216.937L889.682 217.942L885.395 219.814L885.85 224.469L882.745 220.971L878.458 222.842L880.827 218.808L877.722 215.31L882.29 216.315L884.658 212.281Z" fill="url(#paint114_linear)"/>
<path d="M814.743 250.152L815.198 254.807L819.766 255.813L815.48 257.685L815.935 262.34L812.83 258.841L808.543 260.713L810.911 256.679L807.807 253.18L812.375 254.186L814.743 250.152Z" fill="url(#paint115_linear)"/>
<path d="M969.721 252.483L970.177 257.138L974.745 258.144L970.458 260.015L970.913 264.671L967.808 261.172L963.522 263.043L965.89 259.009L962.785 255.511L967.353 256.516L969.721 252.483Z" fill="url(#paint116_linear)"/>
<path d="M568.692 268.112L569.147 272.768L573.715 273.773L569.428 275.645L569.883 280.3L566.779 276.802L562.492 278.673L564.86 274.639L561.755 271.14L566.324 272.146L568.692 268.112Z" fill="url(#paint117_linear)"/>
<path d="M203.409 325.639L202.157 321.132L197.484 320.929L201.384 318.347L200.132 313.839L203.794 316.75L207.694 314.167L206.057 318.549L209.718 321.46L205.045 321.257L203.409 325.639Z" fill="url(#paint118_linear)"/>
<path d="M330.245 117.698L328.993 113.191L324.32 112.988L328.22 110.405L326.968 105.898L330.63 108.809L334.53 106.226L332.893 110.608L336.555 113.519L331.881 113.316L330.245 117.698Z" fill="url(#paint119_linear)"/>
<path d="M241.921 349.652L240.669 345.145L235.996 344.942L239.896 342.359L238.644 337.852L242.306 340.763L246.206 338.18L244.569 342.562L248.231 345.473L243.557 345.27L241.921 349.652Z" fill="url(#paint120_linear)"/>
<path d="M62.5154 210.13L61.264 205.623L56.5909 205.42L60.4906 202.837L59.2392 198.33L62.9008 201.241L66.8005 198.658L65.1638 203.04L68.8254 205.95L64.1522 205.748L62.5154 210.13Z" fill="url(#paint121_linear)"/>
<path d="M400.016 110.803L398.765 106.296L394.092 106.093L397.991 103.51L396.74 99.0032L400.402 101.914L404.301 99.331L402.664 103.713L406.326 106.624L401.653 106.421L400.016 110.803Z" fill="url(#paint122_linear)"/>
<path d="M339.032 289.466L337.78 284.959L333.107 284.757L337.007 282.174L335.756 277.667L339.417 280.578L343.317 277.995L341.68 282.376L345.342 285.287L340.669 285.085L339.032 289.466Z" fill="url(#paint123_linear)"/>
<path d="M35.9595 102.397L34.7081 97.8902L30.0349 97.6876L33.9347 95.1046L32.6833 90.5976L36.3449 93.5083L40.2446 90.9254L38.6079 95.3072L42.2695 98.2179L37.5963 98.0154L35.9595 102.397Z" fill="url(#paint124_linear)"/>
<path d="M108.014 105.158L106.763 100.65L102.089 100.448L105.989 97.865L104.738 93.3579L108.399 96.2686L112.299 93.6857L110.662 98.0675L114.324 100.978L109.651 100.776L108.014 105.158Z" fill="url(#paint125_linear)"/>
<path d="M388.783 235.8L387.532 231.293L382.858 231.091L386.758 228.508L385.507 224.001L389.168 226.911L393.068 224.328L391.431 228.71L395.093 231.621L390.42 231.418L388.783 235.8Z" fill="url(#paint126_linear)"/>
<path d="M451.117 186.437L449.866 181.93L445.193 181.727L449.092 179.144L447.841 174.637L451.503 177.548L455.402 174.965L453.766 179.347L457.427 182.258L452.754 182.055L451.117 186.437Z" fill="url(#paint127_linear)"/>
<path d="M126.761 300.024L125.509 295.517L120.836 295.314L124.736 292.731L123.485 288.224L127.146 291.135L131.046 288.552L129.409 292.934L133.071 295.844L128.398 295.642L126.761 300.024Z" fill="url(#paint128_linear)"/>
<path d="M298.06 210.875L296.809 206.368L292.136 206.166L296.035 203.583L294.784 199.076L298.445 201.986L302.345 199.404L300.708 203.785L304.37 206.696L299.697 206.494L298.06 210.875Z" fill="url(#paint129_linear)"/>
<path d="M214.351 165.203L213.099 160.696L208.426 160.493L212.326 157.911L211.074 153.404L214.736 156.314L218.636 153.731L216.999 158.113L220.661 161.024L215.987 160.821L214.351 165.203Z" fill="url(#paint130_linear)"/>
<path d="M284.122 158.307L282.871 153.8L278.198 153.597L282.097 151.014L280.846 146.507L284.507 149.418L288.407 146.835L286.77 151.217L290.432 154.128L285.759 153.925L284.122 158.307Z" fill="url(#paint131_linear)"/>
<path d="M272.889 283.305L271.637 278.798L266.964 278.596L270.864 276.013L269.612 271.506L273.274 274.416L277.174 271.833L275.537 276.215L279.199 279.126L274.525 278.923L272.889 283.305Z" fill="url(#paint132_linear)"/>
<path d="M335.223 233.942L333.972 229.435L329.299 229.232L333.198 226.649L331.947 222.142L335.609 225.053L339.508 222.47L337.872 226.852L341.533 229.762L336.86 229.56L335.223 233.942Z" fill="url(#paint133_linear)"/>
<path d="M182.166 258.38L180.915 253.873L176.241 253.67L180.141 251.087L178.89 246.58L182.551 249.491L186.451 246.908L184.814 251.29L188.476 254.201L183.803 253.998L182.166 258.38Z" fill="url(#paint134_linear)"/>
<path d="M493.231 217.509L491.98 213.002L487.306 212.799L491.206 210.216L489.955 205.709L493.616 208.62L497.516 206.037L495.879 210.419L499.541 213.329L494.868 213.127L493.231 217.509Z" fill="url(#paint135_linear)"/>
<path d="M563.003 210.613L561.751 206.106L557.078 205.904L560.978 203.321L559.726 198.814L563.388 201.724L567.288 199.142L565.651 203.523L569.313 206.434L564.64 206.231L563.003 210.613Z" fill="url(#paint136_linear)"/>
<path d="M551.77 335.611L550.518 331.104L545.845 330.901L549.745 328.318L548.493 323.811L552.155 326.722L556.055 324.139L554.418 328.521L558.08 331.432L553.406 331.229L551.77 335.611Z" fill="url(#paint137_linear)"/>
<path d="M614.104 286.248L612.852 281.741L608.179 281.538L612.079 278.955L610.827 274.448L614.489 277.359L618.389 274.776L616.752 279.158L620.413 282.068L615.74 281.866L614.104 286.248Z" fill="url(#paint138_linear)"/>
<path d="M461.046 310.686L459.795 306.179L455.122 305.977L459.022 303.394L457.77 298.887L461.432 301.797L465.332 299.214L463.695 303.596L467.356 306.507L462.683 306.304L461.046 310.686Z" fill="url(#paint139_linear)"/>
<path d="M435.488 33.02L434.237 28.513L429.564 28.3104L433.463 25.7274L432.212 21.2204L435.873 24.1311L439.773 21.5482L438.136 25.93L441.798 28.8407L437.125 28.6382L435.488 33.02Z" fill="url(#paint140_linear)"/>
<path d="M505.26 26.1249L504.008 21.6178L499.335 21.4152L503.235 18.8323L501.984 14.3253L505.645 17.236L509.545 14.653L507.908 19.0349L511.57 21.9456L506.897 21.743L505.26 26.1249Z" fill="url(#paint141_linear)"/>
<path d="M494.026 151.122L492.775 146.615L488.102 146.412L492.002 143.829L490.75 139.322L494.412 142.233L498.312 139.65L496.675 144.032L500.336 146.943L495.663 146.74L494.026 151.122Z" fill="url(#paint142_linear)"/>
<path d="M556.361 101.759L555.109 97.2519L550.436 97.0493L554.336 94.4664L553.085 89.9594L556.746 92.8701L560.646 90.2871L559.009 94.669L562.671 97.5797L557.998 97.3771L556.361 101.759Z" fill="url(#paint143_linear)"/>
<path d="M403.304 126.197L402.052 121.69L397.379 121.488L401.279 118.905L400.027 114.398L403.689 117.308L407.589 114.726L405.952 119.107L409.613 122.018L404.94 121.816L403.304 126.197Z" fill="url(#paint144_linear)"/>
<path d="M248.4 65.7842L247.148 61.2771L242.475 61.0745L246.375 58.4916L245.123 53.9846L248.785 56.8953L252.685 54.3123L251.048 58.6942L254.71 61.6049L250.036 61.4023L248.4 65.7842Z" fill="url(#paint145_linear)"/>
<path d="M318.171 58.889L316.92 54.382L312.247 54.1794L316.146 51.5965L314.895 47.0894L318.557 50.0001L322.456 47.4172L320.82 51.799L324.481 54.7098L319.808 54.5072L318.171 58.889Z" fill="url(#paint146_linear)"/>
<path d="M306.938 183.886L305.687 179.379L301.013 179.177L304.913 176.594L303.662 172.087L307.323 174.998L311.223 172.415L309.586 176.796L313.248 179.707L308.575 179.505L306.938 183.886Z" fill="url(#paint147_linear)"/>
<path d="M369.272 134.523L368.021 130.016L363.348 129.813L367.247 127.231L365.996 122.724L369.658 125.634L373.557 123.051L371.921 127.433L375.582 130.344L370.909 130.141L369.272 134.523Z" fill="url(#paint148_linear)"/>
<path d="M221.843 191.099L220.592 186.592L215.918 186.39L219.818 183.807L218.567 179.3L222.228 182.21L226.128 179.628L224.491 184.009L228.153 186.92L223.48 186.718L221.843 191.099Z" fill="url(#paint149_linear)"/>
<path d="M60.5789 90.9879L59.3275 86.4809L54.6543 86.2783L58.5541 83.6953L57.3026 79.1883L60.9642 82.099L64.864 79.5161L63.2272 83.8979L66.8888 86.8086L62.2157 86.6061L60.5789 90.9879Z" fill="url(#paint150_linear)"/>
<path d="M130.351 84.0922L129.1 79.5852L124.427 79.3826L128.326 76.7997L127.075 72.2926L130.736 75.2033L134.636 72.6204L132.999 77.0022L136.661 79.9129L131.988 79.7104L130.351 84.0922Z" fill="url(#paint151_linear)"/>
<path d="M119.117 209.089L117.865 204.582L113.192 204.38L117.092 201.797L115.84 197.29L119.502 200.2L123.402 197.617L121.765 201.999L125.426 204.91L120.753 204.707L119.117 209.089Z" fill="url(#paint152_linear)"/>
<path d="M181.451 159.726L180.199 155.219L175.526 155.017L179.426 152.434L178.174 147.927L181.836 150.838L185.736 148.255L184.099 152.636L187.761 155.547L183.087 155.345L181.451 159.726Z" fill="url(#paint153_linear)"/>
<path d="M28.3936 184.164L27.1422 179.657L22.469 179.455L26.3688 176.872L25.1173 172.365L28.7789 175.275L32.6787 172.693L31.0419 177.074L34.7035 179.985L30.0304 179.783L28.3936 184.164Z" fill="url(#paint154_linear)"/>
<path d="M78.6382 295.438L77.3868 290.931L72.7137 290.728L76.6134 288.146L75.362 283.638L79.0236 286.549L82.9233 283.966L81.2866 288.348L84.9482 291.259L80.275 291.056L78.6382 295.438Z" fill="url(#paint155_linear)"/>
<path d="M148.41 288.543L147.158 284.036L142.485 283.833L146.385 281.25L145.133 276.743L148.795 279.654L152.695 277.071L151.058 281.453L154.72 284.363L150.046 284.161L148.41 288.543Z" fill="url(#paint156_linear)"/>
<path d="M137.177 413.54L135.925 409.033L131.252 408.831L135.152 406.248L133.901 401.741L137.562 404.651L141.462 402.069L139.825 406.45L143.487 409.361L138.814 409.159L137.177 413.54Z" fill="url(#paint157_linear)"/>
<path d="M199.511 364.177L198.26 359.67L193.586 359.467L197.486 356.884L196.235 352.377L199.896 355.288L203.796 352.705L202.159 357.087L205.821 359.998L201.148 359.795L199.511 364.177Z" fill="url(#paint158_linear)"/>
<path d="M46.4537 388.616L45.2023 384.109L40.5291 383.906L44.4288 381.323L43.1774 376.816L46.839 379.727L50.7387 377.144L49.102 381.526L52.7636 384.436L48.0904 384.234L46.4537 388.616Z" fill="url(#paint159_linear)"/>
<path d="M438.775 304.042L437.524 299.535L432.851 299.332L436.751 296.749L435.499 292.242L439.161 295.153L443.061 292.57L441.424 296.952L445.085 299.863L440.412 299.66L438.775 304.042Z" fill="url(#paint160_linear)"/>
<path d="M737.497 415.556C737.497 415.556 731.15 363.052 770.965 394.785C810.781 426.519 813.604 462.529 756.539 506.718L751.346 529.797L573.041 540.182V506.718C568.26 445.569 570.1 409.171 589.198 404.594C683.952 369.689 681.203 409.947 737.497 415.556Z" fill="#66370B"/>
<mask id="mask0" mask-type="alpha" maskUnits="userSpaceOnUse" x="570" y="384" width="231" height="157">
<path d="M737.497 415.556C737.497 415.556 731.15 363.052 770.965 394.785C810.781 426.519 813.604 462.529 756.539 506.718L751.346 529.797L573.041 540.182V506.718C568.26 445.569 570.1 409.171 589.198 404.594C683.952 369.689 681.203 409.947 737.497 415.556Z" fill="#7A400B"/>
</mask>
<g mask="url(#mask0)">
<path d="M731.331 409.015C731.331 409.015 724.984 356.511 764.799 388.244C804.615 419.978 807.437 455.988 750.373 500.177L745.179 523.256L566.874 533.641V500.177C562.094 439.028 563.933 402.63 583.031 398.053C677.786 363.148 675.037 403.406 731.331 409.015Z" fill="#7A400B"/>
<path d="M707.953 318.048C747.422 420.225 761.04 438.058 737.382 466.907C713.723 495.755 620.819 491.717 612.164 466.907C603.508 442.097 617.796 376.548 638.708 318.048H707.953Z" fill="#66370B"/>
<path d="M631.032 469.169C610.207 501.553 604.909 522.041 606.052 562.619L511.875 548.688L537.292 527.906C563.883 434.487 579.834 392.525 615.244 387.086L685.215 412.828L631.032 469.169Z" fill="#522D0B"/>
<path d="M707.529 323.199C741.177 350.242 783.567 389.091 777.261 400.555C770.914 412.094 754.756 412.094 725.904 433.442L707.529 323.199Z" fill="#66370B"/>
</g>
<path d="M762.31 466.327C762.896 449.335 767.503 441.517 770.965 443.248C774.427 444.979 773.553 453.463 762.31 466.327Z" fill="#2F1906"/>
<path d="M762.31 466.327C777.89 454.788 775.635 426.996 784.237 432.866C792.839 438.735 772.145 468.744 756.762 474.407C758.555 471.918 760.395 469.23 762.31 466.327Z" fill="#2F1906"/>
<path d="M711.53 505.561C732.025 501.012 742.995 493.528 756.762 474.407M762.31 466.327C762.896 449.335 767.503 441.517 770.965 443.248C774.427 444.979 773.553 453.463 762.31 466.327ZM762.31 466.327C777.89 454.788 775.635 426.996 784.237 432.866C792.839 438.735 772.145 468.744 756.762 474.407M762.31 466.327C760.395 469.23 758.555 471.918 756.762 474.407" stroke="#2F1906"/>
<path d="M763.463 468.635C764.05 451.642 768.657 443.825 772.119 445.556C775.581 447.287 774.707 455.771 763.463 468.635Z" fill="#522D0B"/>
<path d="M763.463 468.635C779.043 457.096 776.788 429.304 785.391 435.173C793.993 441.043 773.298 471.052 757.916 476.715C759.708 474.225 761.549 471.538 763.463 468.635Z" fill="#522D0B"/>
<path d="M712.684 507.869C733.179 503.32 744.149 495.836 757.916 476.715M763.463 468.635C764.05 451.642 768.657 443.825 772.119 445.556C775.581 447.287 774.707 455.771 763.463 468.635ZM763.463 468.635C779.043 457.096 776.788 429.304 785.391 435.173C793.993 441.043 773.298 471.052 757.916 476.715M763.463 468.635C761.549 471.538 759.708 474.225 757.916 476.715" stroke="#522D0B"/>
<path d="M627.859 423.634C627.859 423.634 588.043 418.441 584.581 402.286C581.119 386.131 602.531 354.563 617.472 333.049L659.019 335.934L627.859 423.634Z" fill="#2A3F18"/>
<mask id="mask1" mask-type="alpha" maskUnits="userSpaceOnUse" x="584" y="333" width="76" height="91">
<path d="M627.859 423.634C627.859 423.634 588.043 418.441 584.581 402.286C581.119 386.131 602.531 354.563 617.472 333.049L659.019 335.934L627.859 423.634Z" fill="#385222"/>
</mask>
<g mask="url(#mask1)">
<path d="M627.078 425.365C627.078 425.365 587.262 420.172 583.8 404.017C580.338 387.862 601.75 356.294 616.691 334.78L658.238 337.665L627.078 425.365Z" fill="#253419"/>
</g>
<path d="M707.003 315.698C740.651 342.742 783.041 381.591 776.735 393.054C770.387 404.594 754.23 404.594 725.378 425.942L707.003 315.698Z" fill="#385222"/>
<mask id="mask2" mask-type="alpha" maskUnits="userSpaceOnUse" x="707" y="315" width="71" height="111">
<path d="M707.003 315.698C740.651 342.742 783.041 381.591 776.735 393.054C770.387 404.594 754.23 404.594 725.378 425.942L707.003 315.698Z" fill="#385222"/>
</mask>
<g mask="url(#mask2)">
<path d="M716.643 305.224C740.287 344.717 768.501 399.736 758.641 410.553C748.716 421.441 733.098 416.788 698.198 432.003L716.643 305.224Z" fill="#324620"/>
</g>
<path d="M708.068 312.278C747.537 414.455 761.155 432.288 737.497 461.137C713.838 489.986 620.934 485.947 612.279 461.137C603.623 436.327 617.911 370.778 638.823 312.278H708.068Z" fill="#2A3F18"/>
<mask id="mask3" mask-type="alpha" maskUnits="userSpaceOnUse" x="609" y="312" width="141" height="170">
<path d="M708.471 312.855C747.996 414.71 761.634 432.487 737.942 461.244C714.249 490.002 621.214 485.976 612.546 461.244C603.878 436.513 618.186 371.171 639.128 312.855H708.471Z" fill="#141E0C"/>
</mask>
<g mask="url(#mask3)">
<path d="M755.036 300.772C767.326 442.594 776.083 468.652 745.362 501.944C714.641 535.236 624.415 511.915 622.343 477.659C620.27 443.403 651.298 360.102 687.007 287.342L755.036 300.772Z" fill="#385222"/>
</g>
<path d="M705.759 280.545C712.974 290.109 714.608 296.846 711.53 312.279C683.074 337.783 664.594 341.588 625.551 323.241C619.928 299.979 618.855 289.704 623.82 280.545C661.988 257.415 674.944 276.107 705.759 280.545Z" fill="#FAEE30"/>
<mask id="mask4" mask-type="alpha" maskUnits="userSpaceOnUse" x="620" y="269" width="94" height="66">
<path d="M705.759 280.545C712.974 290.109 714.608 296.846 711.53 312.279C683.074 337.783 664.594 341.588 625.551 323.241C619.928 299.979 618.855 289.704 623.82 280.545C661.988 257.415 674.944 276.107 705.759 280.545Z" fill="#FAEE30"/>
</mask>
<g mask="url(#mask4)">
<path d="M708.547 285.738C709.626 291.912 709.803 295.517 708.547 302.47C694.793 314.256 686.987 320.814 660.075 325.549L624.299 315.74C656.537 347.388 676.274 343.765 713.163 315.74C715.916 300.07 714.02 294.269 708.547 285.738Z" fill="#E7D905"/>
<path d="M706.011 245.149C713.226 254.713 714.86 261.451 711.782 276.883C683.326 302.387 664.846 306.192 625.803 287.845C620.179 264.583 619.107 254.308 624.072 245.149C662.24 222.02 675.195 240.711 706.011 245.149Z" fill="#E7D905"/>
</g>
<path d="M568.424 281.699C589.774 284.585 637.018 309.17 647.478 294.97L676.33 286.892L614.587 322.757L532.647 333.049L462.826 376.899H447.245C452.745 370.1 457.399 365.947 462.977 362.242C466.537 360.425 470.564 358.041 475.52 354.974C470.624 357.611 466.605 359.832 462.977 362.242C457.16 365.21 452.589 366.661 447.245 367.091L443.206 360.744C466.454 354.899 472.682 348.901 488.215 339.973C475.389 347.268 468.193 351.243 455.324 354.974V348.628L487.061 333.049L441.475 352.666V342.858C455.766 338.554 465.263 334.399 482.445 326.703C461.539 335.916 449.978 340.339 430.511 342.858L425.318 335.934C450.123 331.874 458.949 328.251 470.213 323.611C473.616 322.307 477.251 320.838 481.291 319.202C477.071 320.785 473.536 322.242 470.213 323.611C458.675 328.034 449.803 330.568 436.859 331.318V323.241C445.899 323.145 455.478 320.341 470.904 315.74L436.859 323.241C433.788 323.273 430.78 322.566 427.626 322.087C428.023 317.617 426.484 315.44 418.971 312.442C454.114 315.721 469.981 315.025 484.176 306.509C498.602 297.855 547.073 278.814 568.424 281.699Z" fill="#FAEE30"/>
<mask id="mask5" mask-type="alpha" maskUnits="userSpaceOnUse" x="418" y="281" width="259" height="96">
<path d="M568.424 281.699C589.774 284.585 637.018 309.17 647.478 294.97L676.33 286.892L614.587 322.757L532.647 333.049L462.826 376.899H447.245C452.745 370.1 457.399 365.947 462.977 362.242C466.537 360.425 470.564 358.041 475.52 354.974C470.624 357.611 466.605 359.832 462.977 362.242C457.16 365.21 452.589 366.661 447.245 367.091L443.206 360.744C466.454 354.899 472.682 348.901 488.215 339.973C475.389 347.268 468.193 351.243 455.324 354.974V348.628L487.061 333.049L441.475 352.666V342.858C455.766 338.554 465.263 334.399 482.445 326.703C461.539 335.916 449.978 340.339 430.511 342.858L425.318 335.934C450.123 331.874 458.949 328.251 470.213 323.611C473.616 322.307 477.251 320.838 481.291 319.202C477.071 320.785 473.536 322.242 470.213 323.611C458.675 328.034 449.803 330.568 436.859 331.318V323.241C445.899 323.145 455.478 320.341 470.904 315.74L436.859 323.241C433.788 323.273 430.78 322.566 427.626 322.087C428.023 317.617 426.484 315.44 418.971 312.442C454.114 315.721 469.981 315.025 484.176 306.509C498.602 297.855 547.073 278.814 568.424 281.699Z" fill="#E7D905"/>
</mask>
<g mask="url(#mask5)">
<path d="M568.423 284.879C589.774 287.764 637.018 312.349 647.478 298.149L676.33 290.071L614.586 325.937L532.647 336.229L462.825 380.079H447.245C452.744 373.279 457.399 369.126 462.977 365.421C466.537 363.604 470.564 361.22 475.52 358.154C470.624 360.79 466.605 363.011 462.977 365.421C457.16 368.389 452.589 369.84 447.245 370.27L443.206 363.923C466.453 358.078 472.681 352.081 488.215 343.152C475.389 350.448 468.192 354.423 455.324 358.154V351.807L487.061 336.229L441.475 355.846V346.037C455.765 341.734 465.263 337.579 482.444 329.882C461.538 339.095 449.977 343.518 430.511 346.037L425.317 339.114C450.123 335.054 458.948 331.43 470.212 326.79C473.615 325.486 477.25 324.017 481.29 322.381C477.07 323.964 473.535 325.422 470.212 326.79C458.675 331.213 449.803 333.747 436.858 334.498V326.42C445.898 326.325 455.478 323.521 470.904 318.92L436.858 326.42C433.788 326.453 430.78 325.745 427.626 325.266C428.022 320.796 426.483 318.619 418.97 315.621C454.113 318.9 469.981 318.204 484.176 309.689C498.601 301.035 547.073 281.994 568.423 284.879Z" fill="#E7D905"/>
</g>
<path d="M691.334 285.738C649.21 305.932 675.177 322.664 649.21 337.665C623.243 352.667 562.077 379.784 538.995 417.865C516.471 446.606 505.461 455.391 488.216 459.983L468.597 457.099C483.706 456.716 490.954 450.082 502.642 431.712C487.924 443.85 479.846 449.309 466.288 452.483L458.787 446.713C476.326 448.472 483.216 439.822 494.563 421.326C482.206 433.885 475.363 439.069 463.403 443.251H446.669C453.975 442.618 462.376 433.315 480.137 410.941C469.055 415.098 462.324 418.987 448.4 431.712L440.899 424.788C450.182 421.91 455.039 416.492 463.403 403.44C477.76 397.65 488.216 379.784 483.6 379.784C478.983 379.784 470.115 390.124 463.403 403.44L433.974 417.865L425.896 410.941C451.81 413.181 448.977 409.21 483.6 352.09C518.222 294.969 586.313 309.971 624.397 304.778C662.482 299.586 653.826 292.084 665.944 288.046L691.334 285.738Z" fill="#FAEE30"/>
<mask id="mask6" mask-type="alpha" maskUnits="userSpaceOnUse" x="425" y="285" width="267" height="175">
<path d="M691.334 285.738C649.21 305.932 675.177 322.664 649.21 337.665C623.243 352.667 562.077 379.784 538.995 417.865C516.471 446.606 505.461 455.391 488.216 459.983L468.597 457.099C483.706 456.716 490.954 450.082 502.642 431.712C487.924 443.85 479.846 449.309 466.288 452.483L458.787 446.713C476.326 448.472 483.216 439.822 494.563 421.326C482.206 433.885 475.363 439.069 463.403 443.251H446.669C453.975 442.618 462.376 433.315 480.137 410.941C469.055 415.098 462.324 418.987 448.4 431.712L440.899 424.788C450.182 421.91 455.039 416.492 463.403 403.44C477.76 397.65 488.216 379.784 483.6 379.784C478.983 379.784 470.115 390.124 463.403 403.44L433.974 417.865L425.896 410.941C451.81 413.181 448.977 409.21 483.6 352.09C518.222 294.969 586.313 309.971 624.397 304.778C662.482 299.586 653.826 292.084 665.944 288.046L691.334 285.738Z" fill="#FAEE30"/>
</mask>
<g mask="url(#mask6)">
<path d="M693.642 290.354C651.518 310.548 677.485 327.28 651.518 342.281C625.551 357.283 564.385 384.4 541.304 422.481C518.779 451.222 507.769 460.007 490.524 464.599L470.905 461.715C486.014 461.332 493.262 454.698 504.95 436.328C490.232 448.466 482.155 453.925 468.597 457.099L461.095 451.329C478.635 453.088 485.525 444.438 496.872 425.942C484.514 438.501 477.671 443.685 465.712 447.867H448.977C456.284 447.234 464.684 437.931 482.446 415.557C471.363 419.714 464.633 423.603 450.709 436.328L443.207 429.404C452.491 426.526 457.348 421.108 465.712 408.056C480.068 402.266 490.524 384.4 485.908 384.4C481.292 384.4 472.423 394.74 465.712 408.056L436.283 422.481L428.204 415.557C454.119 417.797 451.286 413.826 485.908 356.706C520.53 299.585 588.621 314.587 626.706 309.394C664.79 304.202 656.135 296.7 668.252 292.662L693.642 290.354Z" fill="#E7D905"/>
</g>
<path d="M721.98 232.656C725 255.617 725.886 267.694 706.977 269.005L693.14 253.419L721.98 232.656Z" fill="#FFC786"/>
<path d="M618.049 269.582C604.448 265.229 598.361 261.39 600.161 243.042L624.974 237.849L630.744 266.698L618.049 269.582Z" fill="#FFC786"/>
<path d="M716.723 222.271C727.429 204.869 722.493 199.769 708.067 192.845C693.687 185.943 699.661 175.147 707.988 160.101L708.067 159.958C691.361 167.888 682.642 166.517 668.251 153.611C665.019 173.694 641.708 178.998 615.164 148.995C632.475 178.421 623.43 184.933 607.662 181.883C608.613 204.178 604.2 206.116 585.735 206.116C597.891 216.847 601.592 224.506 597.853 243.619C616.51 246.231 620.038 253.129 615.164 274.198C629.304 274.868 636.502 276.795 644.593 290.353C665.237 275.578 686.717 296.7 721.339 274.198C699.879 270.203 701.172 263.029 721.339 243.619C720.722 231.346 724.417 225.79 732.88 216.501L716.723 222.271Z" fill="#FFAE1A"/>
<path d="M716.723 222.271C727.429 204.869 722.493 199.769 708.067 192.845C693.687 185.943 699.661 175.147 707.988 160.101L708.067 159.958C691.361 167.888 682.642 166.517 668.251 153.611C665.019 173.694 641.708 178.998 615.164 148.995C632.475 178.421 623.43 184.933 607.662 181.883C608.613 204.178 604.2 206.116 585.735 206.116C597.891 216.847 601.592 224.506 597.853 243.619C616.51 246.231 620.038 253.129 615.164 274.198C629.304 274.868 636.502 276.795 644.593 290.353C665.237 275.578 686.717 296.7 721.339 274.198C699.879 270.203 701.172 263.029 721.339 243.619C720.722 231.346 724.417 225.79 732.88 216.501L716.723 222.271Z" fill="#FFAE1A"/>
<mask id="mask7" mask-type="alpha" maskUnits="userSpaceOnUse" x="585" y="156" width="148" height="142">
<path d="M716.723 229.771C727.429 212.37 722.493 207.27 708.067 200.346C693.687 193.444 699.661 182.648 707.988 167.602L708.067 167.458C691.361 175.389 682.642 174.018 668.251 161.112C665.019 181.195 641.708 186.499 615.164 156.496C632.475 185.922 623.43 192.433 607.662 189.383C608.613 211.679 604.2 213.616 585.735 213.616C597.891 224.347 601.592 232.006 597.853 251.119C616.51 253.732 620.038 260.629 615.164 281.699C629.304 282.369 636.502 284.296 644.593 297.854C665.237 283.079 686.717 304.201 721.339 281.699C699.879 277.704 701.172 270.529 721.339 251.119C720.722 238.847 724.417 233.291 732.88 224.002L716.723 229.771Z" fill="#FFAE1A"/>
<path d="M716.723 229.771C727.429 212.37 722.493 207.27 708.067 200.346C693.687 193.444 699.661 182.648 707.988 167.602L708.067 167.458C691.361 175.389 682.642 174.018 668.251 161.112C665.019 181.195 641.708 186.499 615.164 156.496C632.475 185.922 623.43 192.433 607.662 189.383C608.613 211.679 604.2 213.616 585.735 213.616C597.891 224.347 601.592 232.006 597.853 251.119C616.51 253.732 620.038 260.629 615.164 281.699C629.304 282.369 636.502 284.296 644.593 297.854C665.237 283.079 686.717 304.201 721.339 281.699C699.879 277.704 701.172 270.529 721.339 251.119C720.722 238.847 724.417 233.291 732.88 224.002L716.723 229.771Z" fill="#FFAE1A"/>
</mask>
<g mask="url(#mask7)">
<path d="M716.723 222.847C727.429 205.445 722.493 200.345 708.067 193.421C693.687 186.52 699.661 175.723 707.988 160.677L708.067 160.534C691.361 168.464 682.642 167.094 668.251 154.187C665.019 174.27 641.708 179.574 615.164 149.572C632.475 178.997 623.43 185.509 607.662 182.459C608.613 204.754 604.2 206.692 585.735 206.692C597.891 217.423 601.592 225.082 597.853 244.195C616.51 246.807 620.038 253.705 615.164 274.774C629.304 275.445 636.502 277.372 644.593 290.93C665.237 276.154 686.717 297.276 721.339 274.774C699.879 270.78 701.172 263.605 721.339 244.195C720.722 231.922 724.417 226.367 732.88 217.077L716.723 222.847Z" fill="#E1960A"/>
<path d="M716.723 222.847C727.429 205.445 722.493 200.345 708.067 193.421C693.687 186.52 699.661 175.723 707.988 160.677L708.067 160.534C691.361 168.464 682.642 167.094 668.251 154.187C665.019 174.27 641.708 179.574 615.164 149.572C632.475 178.997 623.43 185.509 607.662 182.459C608.613 204.754 604.2 206.692 585.735 206.692C597.891 217.423 601.592 225.082 597.853 244.195C616.51 246.807 620.038 253.705 615.164 274.774C629.304 275.445 636.502 277.372 644.593 290.93C665.237 276.154 686.717 297.276 721.339 274.774C699.879 270.78 701.172 263.605 721.339 244.195C720.722 231.922 724.417 226.367 732.88 217.077L716.723 222.847Z" fill="#E1960A"/>
</g>
<path d="M844.825 357.282C818.031 392.589 805.5 428.927 786.544 516.526V538.451L914.07 525.181C908.043 472.337 894.329 377.533 877.717 357.282H844.825Z" fill="#B8400C"/>
<mask id="mask8" mask-type="alpha" maskUnits="userSpaceOnUse" x="786" y="357" width="129" height="182">
<path d="M844.825 357.282C818.031 392.589 805.5 428.927 786.544 516.526V538.451L914.07 525.181C908.043 472.337 894.329 377.533 877.717 357.282H844.825Z" fill="#CD4C14"/>
</mask>
<g mask="url(#mask8)">
<path d="M851.75 357.282C824.956 392.589 812.424 428.928 793.469 516.526V538.451L920.994 525.181C914.967 472.337 901.254 377.533 884.641 357.282H851.75Z" fill="#CD4C14"/>
<path d="M901.375 241.311C897.336 237.272 890.411 256.889 890.411 256.889L883.487 273.621C868.484 278.814 865.677 280.215 851.173 273.621L851.132 273.007C849.851 253.538 848.781 237.272 840.786 237.272C832.707 237.272 825.206 296.123 825.206 308.817C825.206 321.51 806.164 322.087 806.164 334.203C806.164 346.32 832.707 369.399 858.097 369.399C883.487 369.399 920.994 349.205 920.994 341.704C920.994 334.203 905.414 331.319 905.414 318.625C905.414 305.932 905.414 245.35 901.375 241.311Z" fill="#B8400C"/>
</g>
<path d="M850.019 531.528C857.382 464.622 817.128 445.559 772.696 439.212C728.264 432.865 667.675 451.905 650.363 376.322C643.067 396.602 643.745 407.97 650.363 428.25C645.378 424.906 642.225 418.405 636.514 405.748C638.013 486.335 656.879 509.06 715.569 527.489L850.019 531.528Z" fill="#E14E0E"/>
<mask id="mask9" mask-type="alpha" maskUnits="userSpaceOnUse" x="636" y="376" width="215" height="156">
<path d="M850.019 531.528C857.382 464.622 817.128 445.559 772.696 439.212C728.264 432.865 667.675 451.905 650.363 376.322C643.067 396.602 643.745 407.97 650.363 428.25C645.378 424.906 642.225 418.405 636.514 405.748C638.013 486.335 656.879 509.06 715.569 527.489L850.019 531.528Z" fill="#B8400C"/>
</mask>
<g mask="url(#mask9)">
<path d="M853.481 543.644C860.844 476.739 820.59 457.675 776.158 451.328C731.726 444.982 671.137 464.022 653.826 388.438C646.529 408.718 647.207 420.086 653.826 440.366C648.84 437.022 645.687 430.522 639.977 417.864C641.476 498.452 660.341 521.176 719.031 539.605L853.481 543.644Z" fill="#B8400C"/>
</g>
<path d="M901.376 234.964C897.336 230.925 890.412 250.542 890.412 250.542L883.487 267.274C868.484 272.467 865.677 273.868 851.173 267.274L851.133 266.66C849.851 247.191 848.781 230.925 840.786 230.925C832.708 230.925 825.206 289.776 825.206 302.47C825.206 315.163 806.164 315.74 806.164 327.857C806.164 339.973 832.708 363.052 858.098 363.052C883.487 363.052 920.995 342.858 920.995 335.357C920.995 327.857 905.415 324.972 905.415 312.278C905.415 299.585 905.415 239.003 901.376 234.964Z" fill="#B8400C"/>
<mask id="mask10" mask-type="alpha" maskUnits="userSpaceOnUse" x="806" y="230" width="115" height="134">
<path d="M901.376 234.964C897.336 230.925 890.412 250.542 890.412 250.542L883.487 267.274C868.484 272.467 865.677 273.868 851.173 267.274L851.133 266.66C849.851 247.191 848.781 230.925 840.786 230.925C832.708 230.925 825.206 289.776 825.206 302.47C825.206 315.163 806.164 315.74 806.164 327.857C806.164 339.973 832.708 363.052 858.098 363.052C883.487 363.052 920.995 342.858 920.995 335.357C920.995 327.857 905.415 324.972 905.415 312.278C905.415 299.585 905.415 239.003 901.376 234.964Z" fill="#E14E0E"/>
</mask>
<g mask="url(#mask10)">
<path d="M910.609 235.541C906.569 231.502 899.645 251.119 899.645 251.119L892.72 267.852C877.717 273.044 874.91 274.445 860.406 267.852L860.366 267.237C859.085 247.768 858.014 231.502 850.02 231.502C841.941 231.502 834.44 290.353 834.44 303.047C834.44 315.74 815.397 316.317 815.397 328.434C815.397 340.55 841.941 363.629 867.331 363.629C892.72 363.629 930.228 343.435 930.228 335.934C930.228 328.434 914.648 325.549 914.648 312.855C914.648 300.162 914.648 239.58 910.609 235.541Z" fill="#E14E0E"/>
</g>
<path d="M901.375 440.366C942.52 420.954 946.798 436.389 912.339 522.873L901.375 440.366Z" fill="#CD4C14"/>
<mask id="mask11" mask-type="alpha" maskUnits="userSpaceOnUse" x="901" y="432" width="35" height="91">
<path d="M901.375 440.366C942.52 420.954 946.798 436.389 912.339 522.873L901.375 440.366Z" fill="#CD4C14"/>
</mask>
<g mask="url(#mask11)">
<path d="M897.336 448.981C938.48 429.569 942.758 445.004 908.3 531.488L897.336 448.981Z" fill="#B8400C"/>
</g>
<path d="M671.267 410.53C674.1 400.386 680.769 363.97 679.795 352.089C674.739 361.05 670.191 398.162 671.267 410.53Z" fill="#218B10"/>
<path d="M692.13 468.514C696.115 460.446 707.517 429.192 703.453 425.941C696.666 419.5 689.668 453.829 692.13 468.514Z" fill="#218B10"/>
<path d="M730.945 459.859C747.7 440.623 759.505 400.115 764.619 376.899C744.535 400.807 731.229 442.556 730.945 459.859Z" fill="#218B10"/>
<path d="M847.935 469.302C859.487 457.788 871.902 418.528 867.909 416.133C863.763 413.645 850.529 456.869 847.935 469.302Z" fill="#218B10"/>
<path d="M802.571 453.636C804.05 448.001 811.963 417.567 816.553 412.671C808.337 415.329 802.081 447.069 802.571 453.636Z" fill="#218B10"/>
<path fill-rule="evenodd" clip-rule="evenodd" d="M533.803 384.483C544.317 464.511 528.898 494.092 515.914 486.03C502.931 477.968 520.913 463.237 532.648 451.989C522.683 457.899 517.285 457.37 506.681 476.221C495.994 479.817 517.315 424.513 512.451 419.101C507.587 413.689 507.054 427.925 499.756 476.221C497.779 455.799 474.366 395.445 488.215 435.833C502.065 476.221 482.798 493.678 474.944 484.876C467.089 476.073 475.498 482.9 488.215 469.875C477.399 469.375 471.335 462.3 460.517 488.338C454.556 486.949 453.877 481.121 457.632 466.413C455.066 476.023 454.043 481.655 446.669 490.069C443.137 444.473 437.095 427.196 428.203 404.677C436.788 438.468 439.369 457.662 433.397 486.03C424.854 480.772 419.525 478.201 435.128 456.027C422.046 462.596 411.346 462.34 421.279 495.838C415.588 493.413 411.443 485.898 405.699 472.76C407.909 491.339 406.171 495.775 393.004 482.568V609.995H679.794H1014.48V489.492C992.064 492.117 981.893 485.04 965.428 466.413C974.379 477.339 979.282 483.472 978.123 495.261C959.822 494.499 952.512 491.262 945.232 480.26C945.232 499.877 936.175 499.451 924.458 477.375C918.543 477.015 915.907 478.514 911.763 482.568C915.464 463.774 925.877 450.399 954.464 423.14C924.422 448.211 910.73 461.188 906.57 477.375L899.645 476.221C901.036 482.099 901.424 485.199 899.645 489.492C886.871 498.105 883.603 479.388 880.603 428.91C879.555 465.271 877.662 476.665 871.37 476.221C870.495 471.281 869.977 465.331 869.639 457.758C861.982 475.149 853.482 487.184 848.289 480.26C846.827 478.312 846.92 474.17 847.935 469.302C842.791 474.429 836.902 479.22 830.978 482.568C826.449 484.782 823.398 484.988 816.552 482.568C805.998 474.491 824.673 464.741 821.168 449.681C807.896 456.604 820.097 477.2 805.011 480.26C808.03 473.553 803.25 462.752 802.571 453.636C801.261 458.626 801.376 464.594 803.28 472.76C789.821 479.548 782.407 480.2 769.235 480.26C794.367 451.319 797.704 442.597 800.972 428.91C788.678 448.854 781.215 457.29 767.503 470.452C765.479 459.301 768.608 449.49 777.89 428.91C769.812 443.911 756.493 454.645 757.694 476.221C753.019 468.159 754.259 460.706 759.622 447.292C754.577 456.77 746.447 459.353 744.999 470.452V477.375C744.688 474.313 744.713 472.646 744.999 470.452V451.989C735.587 462.479 731.88 469.162 734.612 482.568C732.12 474.283 730.83 466.937 730.945 459.859C727.421 463.906 723.473 468.164 719.032 472.76C719.317 458.937 718.201 454.94 715.57 449.681C712.901 467.216 707.969 475.257 694.797 480.26C693.617 476.045 692.73 472.09 692.13 468.514C690.457 471.902 689.278 475.795 689.603 480.26C670.748 480.929 667.731 475.991 679.794 454.873C675.671 456.732 673.038 461.117 668.83 472.76C676.51 451.103 672.876 429.038 671.267 410.53C665.706 430.435 657.131 449.475 662.482 477.375C657.307 472.725 653.929 461.684 652.095 445.642C652.376 452.093 653.21 461.738 652.673 470.452C647.06 464.798 639.978 430.064 639.978 408.139C637.67 460.643 631.85 477.005 617.473 472.76C615.543 461.219 618.757 454.098 630.745 440.449C616.013 451.224 609.603 458.872 607.087 480.26C604.16 469.915 604.656 462.304 619.78 446.219C583.427 481.991 579.851 494.121 590.929 443.911C576.837 494.534 570.77 498.895 568.032 462.546C567.68 493.56 549.96 497.885 554.576 458.912C550.595 462.203 548.905 467.264 547.074 482.568C542.507 418.145 539.765 389.836 533.803 384.483ZM944.841 525.722C949.31 515.003 955.667 506.431 952.732 503.916C950.361 501.884 946.797 514.366 944.841 525.722Z" fill="#218B10"/>
<path d="M944.841 525.722C949.31 515.003 955.667 506.431 952.732 503.916C950.361 501.884 946.797 514.366 944.841 525.722Z" fill="#218B10"/>
<path d="M668.83 472.76C673.038 461.117 675.671 456.732 679.794 454.873C667.731 475.991 670.748 480.929 689.603 480.26C689.278 475.795 690.457 471.902 692.13 468.514M668.83 472.76C668.754 472.973 668.908 472.546 668.83 472.76ZM668.83 472.76C668.907 472.544 668.754 472.97 668.83 472.76ZM668.83 472.76C676.51 451.103 672.876 429.038 671.267 410.53M885.22 470.945C880.361 464.891 872.972 485.274 871.37 476.221M671.267 410.53C674.1 400.386 680.769 363.97 679.795 352.089C674.739 361.05 670.191 398.162 671.267 410.53ZM671.267 410.53C665.706 430.435 657.131 449.475 662.482 477.375C657.307 472.725 653.929 461.684 652.095 445.642M692.13 468.514C696.115 460.446 707.517 429.192 703.453 425.941C696.666 419.5 689.668 453.829 692.13 468.514ZM692.13 468.514C692.73 472.09 693.617 476.045 694.797 480.26C707.969 475.257 712.901 467.216 715.57 449.681C718.201 454.94 719.317 458.937 719.032 472.76C723.473 468.164 727.421 463.906 730.945 459.859M730.945 459.859C747.7 440.623 759.505 400.115 764.619 376.899C744.535 400.807 731.229 442.556 730.945 459.859ZM730.945 459.859C730.83 466.937 732.12 474.283 734.612 482.568C731.88 469.162 735.587 462.479 744.999 451.989V470.452M847.935 469.302C859.487 457.788 871.902 418.528 867.909 416.133C863.763 413.645 850.529 456.869 847.935 469.302ZM847.935 469.302C846.92 474.17 846.827 478.312 848.289 480.26C853.482 487.184 861.982 475.149 869.639 457.758C869.977 465.331 870.495 471.281 871.37 476.221M847.935 469.302C842.791 474.429 836.902 479.22 830.978 482.568C826.449 484.782 823.398 484.988 816.552 482.568C805.998 474.491 824.673 464.741 821.168 449.681C807.896 456.604 820.097 477.2 805.011 480.26C808.03 473.553 803.25 462.752 802.571 453.636M802.571 453.636C804.05 448.001 811.963 417.567 816.553 412.671C808.337 415.329 802.081 447.069 802.571 453.636ZM802.571 453.636C801.261 458.626 801.376 464.594 803.28 472.76C789.821 479.548 782.407 480.2 769.235 480.26C794.367 451.319 797.704 442.597 800.972 428.91C788.678 448.854 781.215 457.29 767.503 470.452C765.479 459.301 768.608 449.49 777.89 428.91C769.812 443.911 756.493 454.645 757.694 476.221C753.019 468.159 754.259 460.706 759.622 447.292M759.622 447.292C754.577 456.77 746.447 459.353 744.999 470.452M759.622 447.292C760.267 445.678 765.589 417.931 766.35 416.133C765.748 418.074 760.414 445.803 759.622 447.292ZM744.999 470.452V477.375C744.688 474.313 744.713 472.646 744.999 470.452ZM652.095 445.642C652.376 452.093 653.21 461.738 652.673 470.452C647.06 464.798 639.978 430.064 639.978 408.139C637.67 460.643 631.85 477.005 617.473 472.76C615.543 461.219 618.757 454.098 630.745 440.449C616.013 451.224 609.603 458.872 607.087 480.26C604.16 469.915 604.656 462.304 619.78 446.219C583.427 481.991 579.851 494.121 590.929 443.911C576.837 494.534 570.77 498.895 568.032 462.546M652.095 445.642C651.31 438.777 656.107 406.982 655.432 397.093C656.228 405.574 651.705 436.711 652.095 445.642ZM568.032 462.546C567.68 493.56 549.96 497.885 554.576 458.912C550.595 462.203 548.905 467.264 547.074 482.568C542.507 418.145 539.765 389.836 533.803 384.483C544.317 464.511 528.898 494.092 515.914 486.03C502.931 477.968 520.913 463.237 532.648 451.989C522.683 457.899 517.285 457.37 506.681 476.221C495.994 479.817 517.315 424.513 512.451 419.101C507.587 413.689 507.054 427.925 499.756 476.221C497.779 455.799 474.366 395.445 488.215 435.833C502.065 476.221 482.798 493.678 474.944 484.876C467.089 476.073 475.498 482.9 488.215 469.875C477.399 469.375 471.335 462.3 460.517 488.338C454.556 486.949 453.877 481.121 457.632 466.413M568.032 462.546C568.076 458.664 572.466 428.318 571.888 423.634C572.109 428.371 567.743 458.709 568.032 462.546ZM871.37 476.221C877.662 476.665 879.555 465.271 880.603 428.91C883.603 479.388 886.871 498.105 899.645 489.492C901.424 485.199 901.036 482.099 899.645 476.221L906.57 477.375C910.73 461.188 924.422 448.211 954.464 423.14C925.877 450.399 915.464 463.774 911.763 482.568C915.907 478.514 918.543 477.015 924.458 477.375C936.175 499.451 945.232 499.877 945.232 480.26C952.512 491.262 959.822 494.499 978.123 495.261C979.282 483.472 974.379 477.339 965.428 466.413C981.893 485.04 992.064 492.117 1014.48 489.492V609.995H679.794H393.004V482.568C406.171 495.775 407.909 491.339 405.699 472.76C411.443 485.898 415.588 493.413 421.279 495.838C411.346 462.34 422.046 462.596 435.128 456.027C419.525 478.201 424.854 480.772 433.397 486.03C439.369 457.662 436.788 438.468 428.203 404.677C437.095 427.196 443.137 444.473 446.669 490.069C454.043 481.655 455.066 476.023 457.632 466.413M457.632 466.413C458.163 464.427 464.527 435.133 465.135 432.865C464.521 435.129 458.138 464.435 457.632 466.413ZM404.546 504.41C416.211 500.696 422.783 502.729 434.552 512.487V500.371L425.896 486.523C433.3 489.765 436.677 493.039 439.746 504.41C442.438 494.702 445.684 490.334 454.171 484.216C446.591 493.029 444.418 497.384 443.207 504.41C457.348 499.859 451.286 512.487 477.253 507.871M716.147 496.332C719.163 492.772 717.198 488.664 712.685 480.754C717.536 488.389 720.265 492.462 725.38 494.024V499.217C727.216 486.326 730.167 481.762 738.074 477.292M729.996 499.217L730.22 498.939C729.506 493.254 731.119 492.286 735.563 492.293M738.074 498.939H747.884M755.963 499.217L773.852 498.939M907.724 509.025C918.928 511.321 927.399 512.228 942.346 513.064C918.688 492.293 935.999 492.293 945.809 512.487C946.36 508.051 943.158 529.758 944.841 525.722M989.087 516.526C995.64 514.106 998.896 509.025 995.434 509.025C991.972 509.025 968.313 516.526 957.349 516.526C955.566 508.536 954 506.912 948.694 516.526C947.502 515.096 943.465 533.711 944.841 525.722M944.841 525.722C949.31 515.003 955.666 506.431 952.732 503.916C950.361 501.884 946.797 514.366 944.841 525.722Z" stroke="#174210"/>
<path d="M819.413 524.029C825.281 521.06 828.288 519.132 848.842 529.798C851.163 520.558 847.738 515.211 838.455 505.565C845.447 508.849 848.991 505.441 857.497 529.798M857.497 529.798C855.76 508.798 861.536 499.219 866.73 499.219C871.923 499.219 867.352 509.741 857.497 529.798ZM857.497 529.798C860.866 520.756 866.153 522.875 871.923 529.798C877.694 536.722 885.64 531.875 894.428 529.798" stroke="#174210"/>
<path d="M750.883 547.277C759.556 556.443 761.929 555.355 754.345 528.814C746.761 502.274 762.595 531.255 767.617 555.355M767.617 555.355C767.617 555.355 765.309 518.429 774.541 523.622C783.774 528.814 776.147 532.729 767.617 555.355ZM767.617 555.355C777.86 541.58 774.541 555.355 787.236 555.355C799.931 555.355 817.924 547.194 846.094 559.394" stroke="#174210"/>
<rect width="1014" height="611" fill="url(#paint161_linear)"/>
<defs>
<linearGradient id="paint0_linear" x1="1014.27" y1="601.217" x2="-269.481" y2="-189.123" gradientUnits="userSpaceOnUse">
<stop offset="0.374968" stop-color="#023968"/>
<stop offset="1"/>
<stop offset="1" stop-color="#00070C"/>
</linearGradient>
<linearGradient id="paint1_linear" x1="7.87804e-06" y1="599.468" x2="1255.74" y2="-96.437" gradientUnits="userSpaceOnUse">
<stop offset="0.459423" stop-color="#053B6A"/>
<stop offset="1"/>
</linearGradient>
<linearGradient id="paint2_linear" x1="1014.27" y1="345.838" x2="-5.02435e-05" y2="338.845" gradientUnits="userSpaceOnUse">
<stop stop-color="white" stop-opacity="0"/>
<stop offset="0.484375" stop-color="white" stop-opacity="0.33"/>
<stop offset="1" stop-color="white" stop-opacity="0"/>
</linearGradient>
<linearGradient id="paint3_linear" x1="705.263" y1="198.497" x2="724.587" y2="208.132" gradientUnits="userSpaceOnUse">
<stop stop-color="#052744"/>
<stop offset="1" stop-color="white"/>
</linearGradient>
<linearGradient id="paint4_linear" x1="927.727" y1="23.1908" x2="947.051" y2="32.8253" gradientUnits="userSpaceOnUse">
<stop stop-color="#052744"/>
<stop offset="1" stop-color="white"/>
</linearGradient>
<linearGradient id="paint5_linear" x1="641.636" y1="227.945" x2="660.96" y2="237.58" gradientUnits="userSpaceOnUse">
<stop stop-color="#052744"/>
<stop offset="1" stop-color="white"/>
</linearGradient>
<linearGradient id="paint6_linear" x1="640.498" y1="39.1636" x2="659.822" y2="48.7981" gradientUnits="userSpaceOnUse">
<stop stop-color="#052744"/>
<stop offset="1" stop-color="white"/>
</linearGradient>
<linearGradient id="paint7_linear" x1="988.223" y1="116.206" x2="1007.55" y2="125.84" gradientUnits="userSpaceOnUse">
<stop stop-color="#052744"/>
<stop offset="1" stop-color="white"/>
</linearGradient>
<linearGradient id="paint8_linear" x1="919.266" y1="137.286" x2="938.59" y2="146.92" gradientUnits="userSpaceOnUse">
<stop stop-color="#052744"/>
<stop offset="1" stop-color="white"/>
</linearGradient>
<linearGradient id="paint9_linear" x1="611.154" y1="106.202" x2="630.478" y2="115.837" gradientUnits="userSpaceOnUse">
<stop stop-color="#052744"/>
<stop offset="1" stop-color="white"/>
</linearGradient>
<linearGradient id="paint10_linear" x1="568.512" y1="173.313" x2="587.836" y2="182.948" gradientUnits="userSpaceOnUse">
<stop stop-color="#052744"/>
<stop offset="1" stop-color="white"/>
</linearGradient>
<linearGradient id="paint11_linear" x1="705.028" y1="99.9178" x2="724.352" y2="109.552" gradientUnits="userSpaceOnUse">
<stop stop-color="#052744"/>
<stop offset="1" stop-color="white"/>
</linearGradient>
<linearGradient id="paint12_linear" x1="799.1" y1="115.534" x2="818.423" y2="125.168" gradientUnits="userSpaceOnUse">
<stop stop-color="#052744"/>
<stop offset="1" stop-color="white"/>
</linearGradient>
<linearGradient id="paint13_linear" x1="735.473" y1="144.983" x2="754.796" y2="154.617" gradientUnits="userSpaceOnUse">
<stop stop-color="#052744"/>
<stop offset="1" stop-color="white"/>
</linearGradient>
<linearGradient id="paint14_linear" x1="704.991" y1="23.2393" x2="724.314" y2="32.8739" gradientUnits="userSpaceOnUse">
<stop stop-color="#052744"/>
<stop offset="1" stop-color="white"/>
</linearGradient>
<linearGradient id="paint15_linear" x1="662.348" y1="90.3506" x2="681.672" y2="99.9852" gradientUnits="userSpaceOnUse">
<stop stop-color="#052744"/>
<stop offset="1" stop-color="white"/>
</linearGradient>
<linearGradient id="paint16_linear" x1="798.865" y1="16.9552" x2="818.189" y2="26.5898" gradientUnits="userSpaceOnUse">
<stop stop-color="#052744"/>
<stop offset="1" stop-color="white"/>
</linearGradient>
<linearGradient id="paint17_linear" x1="518.524" y1="157.813" x2="537.848" y2="167.447" gradientUnits="userSpaceOnUse">
<stop stop-color="#052744"/>
<stop offset="1" stop-color="white"/>
</linearGradient>
<linearGradient id="paint18_linear" x1="454.897" y1="187.261" x2="474.221" y2="196.896" gradientUnits="userSpaceOnUse">
<stop stop-color="#052744"/>
<stop offset="1" stop-color="white"/>
</linearGradient>
<linearGradient id="paint19_linear" x1="424.415" y1="65.5183" x2="443.739" y2="75.1529" gradientUnits="userSpaceOnUse">
<stop stop-color="#052744"/>
<stop offset="1" stop-color="white"/>
</linearGradient>
<linearGradient id="paint20_linear" x1="381.772" y1="132.629" x2="401.096" y2="142.264" gradientUnits="userSpaceOnUse">
<stop stop-color="#052744"/>
<stop offset="1" stop-color="white"/>
</linearGradient>
<linearGradient id="paint21_linear" x1="518.289" y1="59.2342" x2="537.613" y2="68.8687" gradientUnits="userSpaceOnUse">
<stop stop-color="#052744"/>
<stop offset="1" stop-color="white"/>
</linearGradient>
<linearGradient id="paint22_linear" x1="633.706" y1="313.066" x2="653.029" y2="322.701" gradientUnits="userSpaceOnUse">
<stop stop-color="#052744"/>
<stop offset="1" stop-color="white"/>
</linearGradient>
<linearGradient id="paint23_linear" x1="570.078" y1="342.514" x2="589.402" y2="352.149" gradientUnits="userSpaceOnUse">
<stop stop-color="#052744"/>
<stop offset="1" stop-color="white"/>
</linearGradient>
<linearGradient id="paint24_linear" x1="539.596" y1="220.771" x2="558.92" y2="230.406" gradientUnits="userSpaceOnUse">
<stop stop-color="#052744"/>
<stop offset="1" stop-color="white"/>
</linearGradient>
<linearGradient id="paint25_linear" x1="496.954" y1="287.883" x2="516.278" y2="297.517" gradientUnits="userSpaceOnUse">
<stop stop-color="#052744"/>
<stop offset="1" stop-color="white"/>
</linearGradient>
<linearGradient id="paint26_linear" x1="633.471" y1="214.487" x2="652.794" y2="224.122" gradientUnits="userSpaceOnUse">
<stop stop-color="#052744"/>
<stop offset="1" stop-color="white"/>
</linearGradient>
<linearGradient id="paint27_linear" x1="799.626" y1="220.62" x2="818.949" y2="230.255" gradientUnits="userSpaceOnUse">
<stop stop-color="#052744"/>
<stop offset="1" stop-color="white"/>
</linearGradient>
<linearGradient id="paint28_linear" x1="735.998" y1="250.069" x2="755.322" y2="259.703" gradientUnits="userSpaceOnUse">
<stop stop-color="#052744"/>
<stop offset="1" stop-color="white"/>
</linearGradient>
<linearGradient id="paint29_linear" x1="705.516" y1="128.326" x2="724.84" y2="137.96" gradientUnits="userSpaceOnUse">
<stop stop-color="#052744"/>
<stop offset="1" stop-color="white"/>
</linearGradient>
<linearGradient id="paint30_linear" x1="662.874" y1="195.437" x2="682.198" y2="205.071" gradientUnits="userSpaceOnUse">
<stop stop-color="#052744"/>
<stop offset="1" stop-color="white"/>
</linearGradient>
<linearGradient id="paint31_linear" x1="783.511" y1="93.5397" x2="802.834" y2="103.174" gradientUnits="userSpaceOnUse">
<stop stop-color="#052744"/>
<stop offset="1" stop-color="white"/>
</linearGradient>
<linearGradient id="paint32_linear" x1="968.723" y1="135.074" x2="988.047" y2="144.709" gradientUnits="userSpaceOnUse">
<stop stop-color="#052744"/>
<stop offset="1" stop-color="white"/>
</linearGradient>
<linearGradient id="paint33_linear" x1="905.096" y1="164.523" x2="924.419" y2="174.157" gradientUnits="userSpaceOnUse">
<stop stop-color="#052744"/>
<stop offset="1" stop-color="white"/>
</linearGradient>
<linearGradient id="paint34_linear" x1="874.614" y1="42.7799" x2="893.937" y2="52.4145" gradientUnits="userSpaceOnUse">
<stop stop-color="#052744"/>
<stop offset="1" stop-color="white"/>
</linearGradient>
<linearGradient id="paint35_linear" x1="831.971" y1="109.891" x2="851.295" y2="119.526" gradientUnits="userSpaceOnUse">
<stop stop-color="#052744"/>
<stop offset="1" stop-color="white"/>
</linearGradient>
<linearGradient id="paint36_linear" x1="968.488" y1="36.4953" x2="987.812" y2="46.1299" gradientUnits="userSpaceOnUse">
<stop stop-color="#052744"/>
<stop offset="1" stop-color="white"/>
</linearGradient>
<linearGradient id="paint37_linear" x1="541.507" y1="58.1875" x2="560.83" y2="67.8221" gradientUnits="userSpaceOnUse">
<stop stop-color="#052744"/>
<stop offset="1" stop-color="white"/>
</linearGradient>
<linearGradient id="paint38_linear" x1="793.311" y1="285.031" x2="805.502" y2="302.852" gradientUnits="userSpaceOnUse">
<stop stop-color="#052744"/>
<stop offset="1" stop-color="white"/>
</linearGradient>
<linearGradient id="paint39_linear" x1="632.506" y1="467.975" x2="644.697" y2="485.797" gradientUnits="userSpaceOnUse">
<stop stop-color="#052744"/>
<stop offset="1" stop-color="white"/>
</linearGradient>
<linearGradient id="paint40_linear" x1="339.909" y1="339.341" x2="359.204" y2="349.033" gradientUnits="userSpaceOnUse">
<stop stop-color="#052744"/>
<stop offset="1" stop-color="white"/>
</linearGradient>
<linearGradient id="paint41_linear" x1="287.776" y1="577.267" x2="307.071" y2="586.959" gradientUnits="userSpaceOnUse">
<stop stop-color="#052744"/>
<stop offset="1" stop-color="white"/>
</linearGradient>
<linearGradient id="paint42_linear" x1="295.674" y1="329.192" x2="314.969" y2="338.883" gradientUnits="userSpaceOnUse">
<stop stop-color="#052744"/>
<stop offset="1" stop-color="white"/>
</linearGradient>
<linearGradient id="paint43_linear" x1="510.757" y1="402.62" x2="530.053" y2="412.312" gradientUnits="userSpaceOnUse">
<stop stop-color="#052744"/>
<stop offset="1" stop-color="white"/>
</linearGradient>
<linearGradient id="paint44_linear" x1="223.482" y1="417.743" x2="242.777" y2="427.435" gradientUnits="userSpaceOnUse">
<stop stop-color="#052744"/>
<stop offset="1" stop-color="white"/>
</linearGradient>
<linearGradient id="paint45_linear" x1="570.978" y1="495.814" x2="590.273" y2="505.506" gradientUnits="userSpaceOnUse">
<stop stop-color="#052744"/>
<stop offset="1" stop-color="white"/>
</linearGradient>
<linearGradient id="paint46_linear" x1="501.959" y1="516.69" x2="521.254" y2="526.382" gradientUnits="userSpaceOnUse">
<stop stop-color="#052744"/>
<stop offset="1" stop-color="white"/>
</linearGradient>
<linearGradient id="paint47_linear" x1="193.94" y1="484.694" x2="213.235" y2="494.386" gradientUnits="userSpaceOnUse">
<stop stop-color="#052744"/>
<stop offset="1" stop-color="white"/>
</linearGradient>
<linearGradient id="paint48_linear" x1="151.099" y1="551.679" x2="170.394" y2="561.371" gradientUnits="userSpaceOnUse">
<stop stop-color="#052744"/>
<stop offset="1" stop-color="white"/>
</linearGradient>
<linearGradient id="paint49_linear" x1="420.721" y1="338.575" x2="440.016" y2="348.267" gradientUnits="userSpaceOnUse">
<stop stop-color="#052744"/>
<stop offset="1" stop-color="white"/>
</linearGradient>
<linearGradient id="paint50_linear" x1="287.833" y1="478.688" x2="307.128" y2="488.38" gradientUnits="userSpaceOnUse">
<stop stop-color="#052744"/>
<stop offset="1" stop-color="white"/>
</linearGradient>
<linearGradient id="paint51_linear" x1="381.857" y1="494.583" x2="401.152" y2="504.274" gradientUnits="userSpaceOnUse">
<stop stop-color="#052744"/>
<stop offset="1" stop-color="white"/>
</linearGradient>
<linearGradient id="paint52_linear" x1="318.143" y1="523.843" x2="337.438" y2="533.534" gradientUnits="userSpaceOnUse">
<stop stop-color="#052744"/>
<stop offset="1" stop-color="white"/>
</linearGradient>
<linearGradient id="paint53_linear" x1="288.022" y1="402.009" x2="307.317" y2="411.701" gradientUnits="userSpaceOnUse">
<stop stop-color="#052744"/>
<stop offset="1" stop-color="white"/>
</linearGradient>
<linearGradient id="paint54_linear" x1="245.181" y1="468.994" x2="264.476" y2="478.686" gradientUnits="userSpaceOnUse">
<stop stop-color="#052744"/>
<stop offset="1" stop-color="white"/>
</linearGradient>
<linearGradient id="paint55_linear" x1="381.914" y1="396.003" x2="401.209" y2="405.695" gradientUnits="userSpaceOnUse">
<stop stop-color="#052744"/>
<stop offset="1" stop-color="white"/>
</linearGradient>
<linearGradient id="paint56_linear" x1="101.158" y1="536.03" x2="120.453" y2="545.722" gradientUnits="userSpaceOnUse">
<stop stop-color="#052744"/>
<stop offset="1" stop-color="white"/>
</linearGradient>
<linearGradient id="paint57_linear" x1="37.4435" y1="565.291" x2="56.7387" y2="574.982" gradientUnits="userSpaceOnUse">
<stop stop-color="#052744"/>
<stop offset="1" stop-color="white"/>
</linearGradient>
<linearGradient id="paint58_linear" x1="7.32217" y1="443.458" x2="26.6173" y2="453.15" gradientUnits="userSpaceOnUse">
<stop stop-color="#052744"/>
<stop offset="1" stop-color="white"/>
</linearGradient>
<linearGradient id="paint59_linear" x1="101.215" y1="437.452" x2="120.51" y2="447.143" gradientUnits="userSpaceOnUse">
<stop stop-color="#052744"/>
<stop offset="1" stop-color="white"/>
</linearGradient>
<linearGradient id="paint60_linear" x1="122.044" y1="599.051" x2="141.339" y2="608.743" gradientUnits="userSpaceOnUse">
<stop stop-color="#052744"/>
<stop offset="1" stop-color="white"/>
</linearGradient>
<linearGradient id="paint61_linear" x1="215.936" y1="593.045" x2="235.231" y2="602.736" gradientUnits="userSpaceOnUse">
<stop stop-color="#052744"/>
<stop offset="1" stop-color="white"/>
</linearGradient>
<linearGradient id="paint62_linear" x1="382.072" y1="599.67" x2="401.367" y2="609.362" gradientUnits="userSpaceOnUse">
<stop stop-color="#052744"/>
<stop offset="1" stop-color="white"/>
</linearGradient>
<linearGradient id="paint63_linear" x1="288.236" y1="507.097" x2="307.531" y2="516.789" gradientUnits="userSpaceOnUse">
<stop stop-color="#052744"/>
<stop offset="1" stop-color="white"/>
</linearGradient>
<linearGradient id="paint64_linear" x1="245.395" y1="574.081" x2="264.691" y2="583.773" gradientUnits="userSpaceOnUse">
<stop stop-color="#052744"/>
<stop offset="1" stop-color="white"/>
</linearGradient>
<linearGradient id="paint65_linear" x1="366.333" y1="472.542" x2="385.628" y2="482.234" gradientUnits="userSpaceOnUse">
<stop stop-color="#052744"/>
<stop offset="1" stop-color="white"/>
</linearGradient>
<linearGradient id="paint66_linear" x1="551.422" y1="514.625" x2="570.717" y2="524.317" gradientUnits="userSpaceOnUse">
<stop stop-color="#052744"/>
<stop offset="1" stop-color="white"/>
</linearGradient>
<linearGradient id="paint67_linear" x1="487.708" y1="543.885" x2="507.003" y2="553.577" gradientUnits="userSpaceOnUse">
<stop stop-color="#052744"/>
<stop offset="1" stop-color="white"/>
</linearGradient>
<linearGradient id="paint68_linear" x1="457.586" y1="422.052" x2="476.881" y2="431.744" gradientUnits="userSpaceOnUse">
<stop stop-color="#052744"/>
<stop offset="1" stop-color="white"/>
</linearGradient>
<linearGradient id="paint69_linear" x1="414.745" y1="489.037" x2="434.04" y2="498.729" gradientUnits="userSpaceOnUse">
<stop stop-color="#052744"/>
<stop offset="1" stop-color="white"/>
</linearGradient>
<linearGradient id="paint70_linear" x1="551.479" y1="416.046" x2="570.774" y2="425.738" gradientUnits="userSpaceOnUse">
<stop stop-color="#052744"/>
<stop offset="1" stop-color="white"/>
</linearGradient>
<linearGradient id="paint71_linear" x1="467.71" y1="327.225" x2="487.005" y2="336.917" gradientUnits="userSpaceOnUse">
<stop stop-color="#052744"/>
<stop offset="1" stop-color="white"/>
</linearGradient>
<linearGradient id="paint72_linear" x1="403.996" y1="356.485" x2="423.291" y2="366.177" gradientUnits="userSpaceOnUse">
<stop stop-color="#052744"/>
<stop offset="1" stop-color="white"/>
</linearGradient>
<linearGradient id="paint73_linear" x1="373.874" y1="234.652" x2="393.169" y2="244.344" gradientUnits="userSpaceOnUse">
<stop stop-color="#052744"/>
<stop offset="1" stop-color="white"/>
</linearGradient>
<linearGradient id="paint74_linear" x1="331.033" y1="301.637" x2="350.328" y2="311.329" gradientUnits="userSpaceOnUse">
<stop stop-color="#052744"/>
<stop offset="1" stop-color="white"/>
</linearGradient>
<linearGradient id="paint75_linear" x1="467.767" y1="228.646" x2="487.062" y2="238.338" gradientUnits="userSpaceOnUse">
<stop stop-color="#052744"/>
<stop offset="1" stop-color="white"/>
</linearGradient>
<linearGradient id="paint76_linear" x1="124.435" y1="436.474" x2="143.73" y2="446.166" gradientUnits="userSpaceOnUse">
<stop stop-color="#052744"/>
<stop offset="1" stop-color="white"/>
</linearGradient>
<linearGradient id="paint77_linear" x1="759.519" y1="254.734" x2="771.71" y2="272.556" gradientUnits="userSpaceOnUse">
<stop stop-color="#052744"/>
<stop offset="1" stop-color="white"/>
</linearGradient>
<linearGradient id="paint78_linear" x1="912.166" y1="423.113" x2="924.357" y2="440.935" gradientUnits="userSpaceOnUse">
<stop stop-color="#052744"/>
<stop offset="1" stop-color="white"/>
</linearGradient>
<linearGradient id="paint79_linear" x1="562.591" y1="462.732" x2="574.782" y2="480.553" gradientUnits="userSpaceOnUse">
<stop stop-color="#052744"/>
<stop offset="1" stop-color="white"/>
</linearGradient>
<linearGradient id="paint80_linear" x1="653.481" y1="297.266" x2="665.672" y2="315.087" gradientUnits="userSpaceOnUse">
<stop stop-color="#052744"/>
<stop offset="1" stop-color="white"/>
</linearGradient>
<linearGradient id="paint81_linear" x1="919.741" y1="533.812" x2="931.932" y2="551.633" gradientUnits="userSpaceOnUse">
<stop stop-color="#052744"/>
<stop offset="1" stop-color="white"/>
</linearGradient>
<linearGradient id="paint82_linear" x1="849.243" y1="518.664" x2="861.434" y2="536.485" gradientUnits="userSpaceOnUse">
<stop stop-color="#052744"/>
<stop offset="1" stop-color="white"/>
</linearGradient>
<linearGradient id="paint83_linear" x1="595.218" y1="341.545" x2="607.409" y2="359.367" gradientUnits="userSpaceOnUse">
<stop stop-color="#052744"/>
<stop offset="1" stop-color="white"/>
</linearGradient>
<linearGradient id="paint84_linear" x1="525.303" y1="379.416" x2="537.494" y2="397.238" gradientUnits="userSpaceOnUse">
<stop stop-color="#052744"/>
<stop offset="1" stop-color="white"/>
</linearGradient>
<linearGradient id="paint85_linear" x1="864.391" y1="323.484" x2="876.582" y2="341.306" gradientUnits="userSpaceOnUse">
<stop stop-color="#052744"/>
<stop offset="1" stop-color="white"/>
</linearGradient>
<linearGradient id="paint86_linear" x1="680.282" y1="381.747" x2="692.473" y2="399.568" gradientUnits="userSpaceOnUse">
<stop stop-color="#052744"/>
<stop offset="1" stop-color="white"/>
</linearGradient>
<linearGradient id="paint87_linear" x1="754.857" y1="441.175" x2="767.049" y2="458.996" gradientUnits="userSpaceOnUse">
<stop stop-color="#052744"/>
<stop offset="1" stop-color="white"/>
</linearGradient>
<linearGradient id="paint88_linear" x1="684.942" y1="435.931" x2="697.133" y2="453.752" gradientUnits="userSpaceOnUse">
<stop stop-color="#052744"/>
<stop offset="1" stop-color="white"/>
</linearGradient>
<linearGradient id="paint89_linear" x1="717.569" y1="314.745" x2="729.76" y2="332.566" gradientUnits="userSpaceOnUse">
<stop stop-color="#052744"/>
<stop offset="1" stop-color="white"/>
</linearGradient>
<linearGradient id="paint90_linear" x1="647.655" y1="352.615" x2="659.846" y2="370.437" gradientUnits="userSpaceOnUse">
<stop stop-color="#052744"/>
<stop offset="1" stop-color="white"/>
</linearGradient>
<linearGradient id="paint91_linear" x1="802.633" y1="354.946" x2="814.824" y2="372.767" gradientUnits="userSpaceOnUse">
<stop stop-color="#052744"/>
<stop offset="1" stop-color="white"/>
</linearGradient>
<linearGradient id="paint92_linear" x1="489.18" y1="341.545" x2="501.372" y2="359.367" gradientUnits="userSpaceOnUse">
<stop stop-color="#052744"/>
<stop offset="1" stop-color="white"/>
</linearGradient>
<linearGradient id="paint93_linear" x1="419.265" y1="336.302" x2="431.456" y2="354.123" gradientUnits="userSpaceOnUse">
<stop stop-color="#052744"/>
<stop offset="1" stop-color="white"/>
</linearGradient>
<linearGradient id="paint94_linear" x1="451.892" y1="215.116" x2="464.083" y2="232.937" gradientUnits="userSpaceOnUse">
<stop stop-color="#052744"/>
<stop offset="1" stop-color="white"/>
</linearGradient>
<linearGradient id="paint95_linear" x1="381.977" y1="252.986" x2="394.168" y2="270.808" gradientUnits="userSpaceOnUse">
<stop stop-color="#052744"/>
<stop offset="1" stop-color="white"/>
</linearGradient>
<linearGradient id="paint96_linear" x1="536.956" y1="255.317" x2="549.147" y2="273.138" gradientUnits="userSpaceOnUse">
<stop stop-color="#052744"/>
<stop offset="1" stop-color="white"/>
</linearGradient>
<linearGradient id="paint97_linear" x1="514.233" y1="533.229" x2="526.424" y2="551.051" gradientUnits="userSpaceOnUse">
<stop stop-color="#052744"/>
<stop offset="1" stop-color="white"/>
</linearGradient>
<linearGradient id="paint98_linear" x1="444.318" y1="527.986" x2="456.509" y2="545.807" gradientUnits="userSpaceOnUse">
<stop stop-color="#052744"/>
<stop offset="1" stop-color="white"/>
</linearGradient>
<linearGradient id="paint99_linear" x1="476.945" y1="406.799" x2="489.136" y2="424.621" gradientUnits="userSpaceOnUse">
<stop stop-color="#052744"/>
<stop offset="1" stop-color="white"/>
</linearGradient>
<linearGradient id="paint100_linear" x1="407.03" y1="444.67" x2="419.221" y2="462.492" gradientUnits="userSpaceOnUse">
<stop stop-color="#052744"/>
<stop offset="1" stop-color="white"/>
</linearGradient>
<linearGradient id="paint101_linear" x1="562.009" y1="447.001" x2="574.2" y2="464.822" gradientUnits="userSpaceOnUse">
<stop stop-color="#052744"/>
<stop offset="1" stop-color="white"/>
</linearGradient>
<linearGradient id="paint102_linear" x1="704.169" y1="533.229" x2="716.36" y2="551.051" gradientUnits="userSpaceOnUse">
<stop stop-color="#052744"/>
<stop offset="1" stop-color="white"/>
</linearGradient>
<linearGradient id="paint103_linear" x1="634.254" y1="527.986" x2="646.445" y2="545.807" gradientUnits="userSpaceOnUse">
<stop stop-color="#052744"/>
<stop offset="1" stop-color="white"/>
</linearGradient>
<linearGradient id="paint104_linear" x1="666.881" y1="406.799" x2="679.072" y2="424.621" gradientUnits="userSpaceOnUse">
<stop stop-color="#052744"/>
<stop offset="1" stop-color="white"/>
</linearGradient>
<linearGradient id="paint105_linear" x1="596.966" y1="444.67" x2="609.157" y2="462.492" gradientUnits="userSpaceOnUse">
<stop stop-color="#052744"/>
<stop offset="1" stop-color="white"/>
</linearGradient>
<linearGradient id="paint106_linear" x1="751.944" y1="414.374" x2="764.135" y2="432.195" gradientUnits="userSpaceOnUse">
<stop stop-color="#052744"/>
<stop offset="1" stop-color="white"/>
</linearGradient>
<linearGradient id="paint107_linear" x1="893.522" y1="540.803" x2="905.713" y2="558.625" gradientUnits="userSpaceOnUse">
<stop stop-color="#052744"/>
<stop offset="1" stop-color="white"/>
</linearGradient>
<linearGradient id="paint108_linear" x1="823.607" y1="535.56" x2="835.798" y2="553.381" gradientUnits="userSpaceOnUse">
<stop stop-color="#052744"/>
<stop offset="1" stop-color="white"/>
</linearGradient>
<linearGradient id="paint109_linear" x1="856.234" y1="414.374" x2="868.425" y2="432.195" gradientUnits="userSpaceOnUse">
<stop stop-color="#052744"/>
<stop offset="1" stop-color="white"/>
</linearGradient>
<linearGradient id="paint110_linear" x1="786.319" y1="452.244" x2="798.51" y2="470.066" gradientUnits="userSpaceOnUse">
<stop stop-color="#052744"/>
<stop offset="1" stop-color="white"/>
</linearGradient>
<linearGradient id="paint111_linear" x1="941.298" y1="454.575" x2="953.489" y2="472.396" gradientUnits="userSpaceOnUse">
<stop stop-color="#052744"/>
<stop offset="1" stop-color="white"/>
</linearGradient>
<linearGradient id="paint112_linear" x1="911.001" y1="336.302" x2="923.192" y2="354.123" gradientUnits="userSpaceOnUse">
<stop stop-color="#052744"/>
<stop offset="1" stop-color="white"/>
</linearGradient>
<linearGradient id="paint113_linear" x1="841.086" y1="331.058" x2="853.277" y2="348.88" gradientUnits="userSpaceOnUse">
<stop stop-color="#052744"/>
<stop offset="1" stop-color="white"/>
</linearGradient>
<linearGradient id="paint114_linear" x1="873.713" y1="209.872" x2="885.904" y2="227.694" gradientUnits="userSpaceOnUse">
<stop stop-color="#052744"/>
<stop offset="1" stop-color="white"/>
</linearGradient>
<linearGradient id="paint115_linear" x1="803.798" y1="247.743" x2="815.989" y2="265.564" gradientUnits="userSpaceOnUse">
<stop stop-color="#052744"/>
<stop offset="1" stop-color="white"/>
</linearGradient>
<linearGradient id="paint116_linear" x1="958.776" y1="250.073" x2="970.967" y2="267.895" gradientUnits="userSpaceOnUse">
<stop stop-color="#052744"/>
<stop offset="1" stop-color="white"/>
</linearGradient>
<linearGradient id="paint117_linear" x1="557.747" y1="265.703" x2="569.938" y2="283.524" gradientUnits="userSpaceOnUse">
<stop stop-color="#052744"/>
<stop offset="1" stop-color="white"/>
</linearGradient>
<linearGradient id="paint118_linear" x1="214.605" y1="326.124" x2="199.523" y2="310.673" gradientUnits="userSpaceOnUse">
<stop stop-color="#052744"/>
<stop offset="1" stop-color="white"/>
</linearGradient>
<linearGradient id="paint119_linear" x1="341.441" y1="118.183" x2="326.359" y2="102.732" gradientUnits="userSpaceOnUse">
<stop stop-color="#052744"/>
<stop offset="1" stop-color="white"/>
</linearGradient>
<linearGradient id="paint120_linear" x1="253.117" y1="350.137" x2="238.035" y2="334.686" gradientUnits="userSpaceOnUse">
<stop stop-color="#052744"/>
<stop offset="1" stop-color="white"/>
</linearGradient>
<linearGradient id="paint121_linear" x1="73.712" y1="210.615" x2="58.6294" y2="195.163" gradientUnits="userSpaceOnUse">
<stop stop-color="#052744"/>
<stop offset="1" stop-color="white"/>
</linearGradient>
<linearGradient id="paint122_linear" x1="411.213" y1="111.288" x2="396.13" y2="95.8367" gradientUnits="userSpaceOnUse">
<stop stop-color="#052744"/>
<stop offset="1" stop-color="white"/>
</linearGradient>
<linearGradient id="paint123_linear" x1="350.228" y1="289.952" x2="335.146" y2="274.5" gradientUnits="userSpaceOnUse">
<stop stop-color="#052744"/>
<stop offset="1" stop-color="white"/>
</linearGradient>
<linearGradient id="paint124_linear" x1="47.1561" y1="102.883" x2="32.0735" y2="87.4311" gradientUnits="userSpaceOnUse">
<stop stop-color="#052744"/>
<stop offset="1" stop-color="white"/>
</linearGradient>
<linearGradient id="paint125_linear" x1="119.211" y1="105.643" x2="104.128" y2="90.1914" gradientUnits="userSpaceOnUse">
<stop stop-color="#052744"/>
<stop offset="1" stop-color="white"/>
</linearGradient>
<linearGradient id="paint126_linear" x1="399.98" y1="236.286" x2="384.897" y2="220.834" gradientUnits="userSpaceOnUse">
<stop stop-color="#052744"/>
<stop offset="1" stop-color="white"/>
</linearGradient>
<linearGradient id="paint127_linear" x1="462.314" y1="186.922" x2="447.231" y2="171.471" gradientUnits="userSpaceOnUse">
<stop stop-color="#052744"/>
<stop offset="1" stop-color="white"/>
</linearGradient>
<linearGradient id="paint128_linear" x1="137.957" y1="300.509" x2="122.875" y2="285.058" gradientUnits="userSpaceOnUse">
<stop stop-color="#052744"/>
<stop offset="1" stop-color="white"/>
</linearGradient>
<linearGradient id="paint129_linear" x1="309.257" y1="211.361" x2="294.174" y2="195.909" gradientUnits="userSpaceOnUse">
<stop stop-color="#052744"/>
<stop offset="1" stop-color="white"/>
</linearGradient>
<linearGradient id="paint130_linear" x1="225.547" y1="165.688" x2="210.465" y2="150.237" gradientUnits="userSpaceOnUse">
<stop stop-color="#052744"/>
<stop offset="1" stop-color="white"/>
</linearGradient>
<linearGradient id="paint131_linear" x1="295.319" y1="158.792" x2="280.236" y2="143.341" gradientUnits="userSpaceOnUse">
<stop stop-color="#052744"/>
<stop offset="1" stop-color="white"/>
</linearGradient>
<linearGradient id="paint132_linear" x1="284.085" y1="283.791" x2="269.003" y2="268.339" gradientUnits="userSpaceOnUse">
<stop stop-color="#052744"/>
<stop offset="1" stop-color="white"/>
</linearGradient>
<linearGradient id="paint133_linear" x1="346.42" y1="234.427" x2="331.337" y2="218.975" gradientUnits="userSpaceOnUse">
<stop stop-color="#052744"/>
<stop offset="1" stop-color="white"/>
</linearGradient>
<linearGradient id="paint134_linear" x1="193.363" y1="258.865" x2="178.28" y2="243.414" gradientUnits="userSpaceOnUse">
<stop stop-color="#052744"/>
<stop offset="1" stop-color="white"/>
</linearGradient>
<linearGradient id="paint135_linear" x1="504.428" y1="217.994" x2="489.345" y2="202.543" gradientUnits="userSpaceOnUse">
<stop stop-color="#052744"/>
<stop offset="1" stop-color="white"/>
</linearGradient>
<linearGradient id="paint136_linear" x1="574.199" y1="211.099" x2="559.117" y2="195.647" gradientUnits="userSpaceOnUse">
<stop stop-color="#052744"/>
<stop offset="1" stop-color="white"/>
</linearGradient>
<linearGradient id="paint137_linear" x1="562.966" y1="336.096" x2="547.884" y2="320.645" gradientUnits="userSpaceOnUse">
<stop stop-color="#052744"/>
<stop offset="1" stop-color="white"/>
</linearGradient>
<linearGradient id="paint138_linear" x1="625.3" y1="286.733" x2="610.218" y2="271.282" gradientUnits="userSpaceOnUse">
<stop stop-color="#052744"/>
<stop offset="1" stop-color="white"/>
</linearGradient>
<linearGradient id="paint139_linear" x1="472.243" y1="311.172" x2="457.16" y2="295.72" gradientUnits="userSpaceOnUse">
<stop stop-color="#052744"/>
<stop offset="1" stop-color="white"/>
</linearGradient>
<linearGradient id="paint140_linear" x1="446.685" y1="33.5054" x2="431.602" y2="18.0539" gradientUnits="userSpaceOnUse">
<stop stop-color="#052744"/>
<stop offset="1" stop-color="white"/>
</linearGradient>
<linearGradient id="paint141_linear" x1="516.456" y1="26.6102" x2="501.374" y2="11.1587" gradientUnits="userSpaceOnUse">
<stop stop-color="#052744"/>
<stop offset="1" stop-color="white"/>
</linearGradient>
<linearGradient id="paint142_linear" x1="505.223" y1="151.607" x2="490.14" y2="136.156" gradientUnits="userSpaceOnUse">
<stop stop-color="#052744"/>
<stop offset="1" stop-color="white"/>
</linearGradient>
<linearGradient id="paint143_linear" x1="567.557" y1="102.244" x2="552.475" y2="86.7928" gradientUnits="userSpaceOnUse">
<stop stop-color="#052744"/>
<stop offset="1" stop-color="white"/>
</linearGradient>
<linearGradient id="paint144_linear" x1="414.5" y1="126.683" x2="399.418" y2="111.231" gradientUnits="userSpaceOnUse">
<stop stop-color="#052744"/>
<stop offset="1" stop-color="white"/>
</linearGradient>
<linearGradient id="paint145_linear" x1="259.596" y1="66.2695" x2="244.514" y2="50.818" gradientUnits="userSpaceOnUse">
<stop stop-color="#052744"/>
<stop offset="1" stop-color="white"/>
</linearGradient>
<linearGradient id="paint146_linear" x1="329.368" y1="59.3744" x2="314.285" y2="43.9229" gradientUnits="userSpaceOnUse">
<stop stop-color="#052744"/>
<stop offset="1" stop-color="white"/>
</linearGradient>
<linearGradient id="paint147_linear" x1="318.135" y1="184.372" x2="303.052" y2="168.92" gradientUnits="userSpaceOnUse">
<stop stop-color="#052744"/>
<stop offset="1" stop-color="white"/>
</linearGradient>
<linearGradient id="paint148_linear" x1="380.469" y1="135.008" x2="365.386" y2="119.557" gradientUnits="userSpaceOnUse">
<stop stop-color="#052744"/>
<stop offset="1" stop-color="white"/>
</linearGradient>
<linearGradient id="paint149_linear" x1="233.04" y1="191.585" x2="217.957" y2="176.133" gradientUnits="userSpaceOnUse">
<stop stop-color="#052744"/>
<stop offset="1" stop-color="white"/>
</linearGradient>
<linearGradient id="paint150_linear" x1="71.7755" y1="91.4733" x2="56.6929" y2="76.0218" gradientUnits="userSpaceOnUse">
<stop stop-color="#052744"/>
<stop offset="1" stop-color="white"/>
</linearGradient>
<linearGradient id="paint151_linear" x1="141.548" y1="84.5776" x2="126.465" y2="69.1261" gradientUnits="userSpaceOnUse">
<stop stop-color="#052744"/>
<stop offset="1" stop-color="white"/>
</linearGradient>
<linearGradient id="paint152_linear" x1="130.313" y1="209.575" x2="115.231" y2="194.123" gradientUnits="userSpaceOnUse">
<stop stop-color="#052744"/>
<stop offset="1" stop-color="white"/>
</linearGradient>
<linearGradient id="paint153_linear" x1="192.647" y1="160.212" x2="177.565" y2="144.76" gradientUnits="userSpaceOnUse">
<stop stop-color="#052744"/>
<stop offset="1" stop-color="white"/>
</linearGradient>
<linearGradient id="paint154_linear" x1="39.5902" y1="184.65" x2="24.5076" y2="169.198" gradientUnits="userSpaceOnUse">
<stop stop-color="#052744"/>
<stop offset="1" stop-color="white"/>
</linearGradient>
<linearGradient id="paint155_linear" x1="89.8348" y1="295.923" x2="74.7522" y2="280.472" gradientUnits="userSpaceOnUse">
<stop stop-color="#052744"/>
<stop offset="1" stop-color="white"/>
</linearGradient>
<linearGradient id="paint156_linear" x1="159.606" y1="289.028" x2="144.524" y2="273.577" gradientUnits="userSpaceOnUse">
<stop stop-color="#052744"/>
<stop offset="1" stop-color="white"/>
</linearGradient>
<linearGradient id="paint157_linear" x1="148.373" y1="414.026" x2="133.291" y2="398.574" gradientUnits="userSpaceOnUse">
<stop stop-color="#052744"/>
<stop offset="1" stop-color="white"/>
</linearGradient>
<linearGradient id="paint158_linear" x1="210.708" y1="364.662" x2="195.625" y2="349.211" gradientUnits="userSpaceOnUse">
<stop stop-color="#052744"/>
<stop offset="1" stop-color="white"/>
</linearGradient>
<linearGradient id="paint159_linear" x1="57.6502" y1="389.101" x2="42.5677" y2="373.65" gradientUnits="userSpaceOnUse">
<stop stop-color="#052744"/>
<stop offset="1" stop-color="white"/>
</linearGradient>
<linearGradient id="paint160_linear" x1="449.972" y1="304.527" x2="434.889" y2="289.076" gradientUnits="userSpaceOnUse">
<stop stop-color="#052744"/>
<stop offset="1" stop-color="white"/>
</linearGradient>
<linearGradient id="paint161_linear" x1="271" y1="338.461" x2="552.926" y2="112.139" gradientUnits="userSpaceOnUse">
<stop stop-color="white"/>
<stop offset="1" stop-color="white" stop-opacity="0"/>
</linearGradient>
</defs>
</svg>
