<svg width="450" height="823" viewBox="0 0 450 823" fill="none" xmlns="http://www.w3.org/2000/svg">
<rect x="-923.711" width="1373.71" height="822.063" fill="url(#paint0_linear)"/>
<rect x="-923.711" width="1373.71" height="822.063" fill="url(#paint1_linear)" style="mix-blend-mode:darken"/>
<rect x="-923.711" width="1373.71" height="822.063" fill="url(#paint2_linear)"/>
<path d="M46.0262 260.415L49.6333 265.622L55.7006 263.801L51.8626 268.841L55.4698 274.048L49.4907 271.955L45.6528 276.995L45.7954 270.662L39.8163 268.569L45.8835 266.748L46.0262 260.415Z" fill="url(#paint3_linear)"/>
<path d="M347.328 22.9818L350.935 28.1892L357.003 26.3678L353.165 31.4076L356.772 36.6151L350.793 34.5224L346.955 39.5622L347.097 33.229L341.118 31.1363L347.186 29.3149L347.328 22.9818Z" fill="url(#paint4_linear)"/>
<path d="M429.263 148.961L432.871 154.168L438.938 152.347L435.1 157.387L438.707 162.594L432.728 160.501L428.89 165.541L429.033 159.208L423.054 157.115L429.121 155.294L429.263 148.961Z" fill="url(#paint5_linear)"/>
<path d="M335.869 177.511L339.476 182.718L345.544 180.897L341.706 185.937L345.313 191.144L339.334 189.051L335.496 194.091L335.638 187.758L329.659 185.665L335.727 183.844L335.869 177.511Z" fill="url(#paint6_linear)"/>
<path d="M45.708 126.9L49.3152 132.108L55.3825 130.286L51.5445 135.326L55.1517 140.534L49.1726 138.441L45.3346 143.481L45.4773 137.148L39.4982 135.055L45.5654 133.233L45.708 126.9Z" fill="url(#paint7_linear)"/>
<path d="M173.117 148.05L176.724 153.258L182.791 151.436L178.953 156.476L182.561 161.684L176.582 159.591L172.744 164.631L172.886 158.298L166.907 156.205L172.974 154.383L173.117 148.05Z" fill="url(#paint8_linear)"/>
<path d="M86.9414 187.935L90.5486 193.143L96.6159 191.321L92.7779 196.361L96.3851 201.569L90.406 199.476L86.568 204.516L86.7107 198.183L80.7316 196.09L86.7988 194.268L86.9414 187.935Z" fill="url(#paint9_linear)"/>
<path d="M45.6568 23.0474L49.2639 28.2549L55.3312 26.4335L51.4933 31.4733L55.1004 36.6808L49.1213 34.5881L45.2834 39.6279L45.426 33.2947L39.4469 31.202L45.5141 29.3806L45.6568 23.0474Z" fill="url(#paint10_linear)"/>
<path d="M-12.0976 113.942L-8.49047 119.15L-2.42321 117.328L-6.26113 122.368L-2.65399 127.576L-8.6331 125.483L-12.471 130.523L-12.3284 124.19L-18.3075 122.097L-12.2402 120.275L-12.0976 113.942Z" fill="url(#paint11_linear)"/>
<path d="M172.799 14.5366L176.406 19.744L182.474 17.9226L178.636 22.9624L182.243 28.1699L176.264 26.0772L172.426 31.117L172.568 24.7838L166.589 22.6911L172.656 20.8697L172.799 14.5366Z" fill="url(#paint12_linear)"/>
<path d="M173.829 290.378L177.437 295.585L183.504 293.764L179.666 298.804L183.273 304.011L177.294 301.919L173.456 306.958L173.599 300.625L167.619 298.532L173.687 296.711L173.829 290.378Z" fill="url(#paint13_linear)"/>
<path d="M87.6531 330.263L91.2603 335.47L97.3275 333.649L93.4896 338.688L97.0967 343.896L91.1176 341.803L87.2797 346.843L87.4223 340.51L81.4432 338.417L87.5105 336.596L87.6531 330.263Z" fill="url(#paint14_linear)"/>
<path d="M46.3684 165.375L49.9756 170.583L56.0429 168.761L52.2049 173.801L55.8121 179.008L49.833 176.916L45.995 181.955L46.1377 175.622L40.1586 173.53L46.2258 171.708L46.3684 165.375Z" fill="url(#paint15_linear)"/>
<path d="M-11.3857 256.27L-7.77856 261.477L-1.71129 259.656L-5.54922 264.696L-1.94207 269.903L-7.92119 267.81L-11.7591 272.85L-11.6165 266.517L-17.5956 264.424L-11.5283 262.603L-11.3857 256.27Z" fill="url(#paint16_linear)"/>
<path d="M152.003 118.262L155.61 123.469L161.678 121.648L157.84 126.688L161.447 131.895L155.468 129.803L151.63 134.842L151.772 128.509L145.793 126.417L151.861 124.595L152.003 118.262Z" fill="url(#paint17_linear)"/>
<path d="M402.853 174.516L406.46 179.723L412.527 177.902L408.689 182.942L412.296 188.149L406.317 186.056L402.479 191.096L402.622 184.763L396.643 182.67L402.71 180.849L402.853 174.516Z" fill="url(#paint18_linear)"/>
<path d="M316.677 214.401L320.284 219.608L326.351 217.787L322.514 222.827L326.121 228.034L320.142 225.941L316.304 230.981L316.446 224.648L310.467 222.555L316.534 220.734L316.677 214.401Z" fill="url(#paint19_linear)"/>
<path d="M275.392 49.513L278.999 54.7204L285.067 52.899L281.229 57.9388L284.836 63.1463L278.857 61.0536L275.019 66.0934L275.161 59.7602L269.182 57.6675L275.25 55.8461L275.392 49.513Z" fill="url(#paint20_linear)"/>
<path d="M217.638 140.408L221.245 145.615L227.313 143.794L223.475 148.834L227.082 154.041L221.103 151.948L217.265 156.988L217.407 150.655L211.428 148.562L217.496 146.741L217.638 140.408Z" fill="url(#paint21_linear)"/>
<path d="M402.535 41.0017L406.142 46.2092L412.209 44.3878L408.371 49.4276L411.979 54.635L405.999 52.5423L402.162 57.5821L402.304 51.249L396.325 49.1563L402.392 47.3349L402.535 41.0017Z" fill="url(#paint22_linear)"/>
<path d="M165.563 385.242L166.179 391.547L172.366 392.909L166.56 395.443L167.176 401.748L162.972 397.01L157.166 399.544L160.373 394.081L156.169 389.343L162.355 390.705L165.563 385.242Z" fill="url(#paint23_linear)"/>
<path d="M119.795 344.209L120.411 350.514L126.598 351.876L120.792 354.41L121.409 360.715L117.204 355.977L111.399 358.511L114.606 353.048L110.401 348.31L116.588 349.672L119.795 344.209Z" fill="url(#paint24_linear)"/>
<path d="M326.539 572.259L327.156 578.564L333.342 579.926L327.537 582.46L328.153 588.765L323.949 584.027L318.143 586.561L321.35 581.098L317.146 576.36L323.332 577.722L326.539 572.259Z" fill="url(#paint25_linear)"/>
<path d="M336.798 722.188L337.414 728.493L343.601 729.855L337.795 732.39L338.412 738.694L334.207 733.956L328.401 736.491L331.608 731.028L327.404 726.289L333.591 727.651L336.798 722.188Z" fill="url(#paint26_linear)"/>
<path d="M241.316 701.672L241.933 707.976L248.119 709.338L242.314 711.873L242.93 718.178L238.726 713.439L232.92 715.974L236.127 710.511L231.922 705.773L238.109 707.135L241.316 701.672Z" fill="url(#paint27_linear)"/>
<path d="M261.833 437.323L262.449 443.627L268.636 444.989L262.83 447.524L263.447 453.829L259.242 449.09L253.437 451.625L256.644 446.162L252.439 441.424L258.626 442.786L261.833 437.323Z" fill="url(#paint28_linear)"/>
<path d="M12.4771 516.233L13.0935 522.538L19.2802 523.9L13.4745 526.434L14.091 532.739L9.88646 528.001L4.08084 530.535L7.28791 525.072L3.08337 520.334L9.26999 521.696L12.4771 516.233Z" fill="url(#paint29_linear)"/>
<path d="M113.482 596.722L114.098 603.026L120.285 604.388L114.479 606.923L115.096 613.227L110.891 608.489L105.086 611.024L108.293 605.561L104.088 600.822L110.275 602.184L113.482 596.722Z" fill="url(#paint30_linear)"/>
<path d="M18.7898 589.619L19.4063 595.924L25.5929 597.286L19.7873 599.821L20.4037 606.125L16.1992 601.387L10.3936 603.922L13.6007 598.459L9.39612 593.72L15.5827 595.082L18.7898 589.619Z" fill="url(#paint31_linear)"/>
<path d="M62.9794 425.486L63.5959 431.791L69.7825 433.153L63.9768 435.687L64.5933 441.992L60.3888 437.254L54.5832 439.788L57.7902 434.325L53.5857 429.587L59.7723 430.949L62.9794 425.486Z" fill="url(#paint32_linear)"/>
<path d="M178.188 479.934L178.805 486.239L184.991 487.601L179.186 490.135L179.802 496.44L175.598 491.702L169.792 494.236L172.999 488.773L168.795 484.035L174.981 485.397L178.188 479.934Z" fill="url(#paint33_linear)"/>
<path d="M44.8301 721.399L45.4466 727.704L51.6332 729.066L45.8276 731.601L46.444 737.905L42.2395 733.167L36.4339 735.702L39.6409 730.239L35.4364 725.5L41.623 726.862L44.8301 721.399Z" fill="url(#paint34_linear)"/>
<path d="M-5.67235 550.164L-5.05588 556.469L1.13074 557.831L-4.67489 560.365L-4.05842 566.67L-8.26296 561.932L-14.0686 564.466L-10.8615 559.003L-15.066 554.265L-8.87942 555.627L-5.67235 550.164Z" fill="url(#paint35_linear)"/>
<path d="M109.536 560.423L110.153 566.727L116.339 568.089L110.534 570.624L111.15 576.929L106.946 572.19L101.14 574.725L104.347 569.262L100.143 564.524L106.329 565.886L109.536 560.423Z" fill="url(#paint36_linear)"/>
<path d="M301.288 731.658L301.904 737.962L308.091 739.324L302.285 741.859L302.902 748.163L298.697 743.425L292.892 745.96L296.099 740.497L291.894 735.759L298.081 737.12L301.288 731.658Z" fill="url(#paint37_linear)"/>
<path d="M206.596 724.556L207.212 730.86L213.399 732.222L207.593 734.757L208.21 741.062L204.005 736.323L198.199 738.858L201.407 733.395L197.202 728.657L203.389 730.019L206.596 724.556Z" fill="url(#paint38_linear)"/>
<path d="M250.785 560.423L251.402 566.727L257.588 568.089L251.783 570.624L252.399 576.929L248.195 572.19L242.389 574.725L245.596 569.262L241.392 564.524L247.578 565.886L250.785 560.423Z" fill="url(#paint39_linear)"/>
<path d="M156.093 611.714L156.71 618.019L162.896 619.381L157.091 621.915L157.707 628.22L153.503 623.482L147.697 626.016L150.904 620.553L146.7 615.815L152.886 617.177L156.093 611.714Z" fill="url(#paint40_linear)"/>
<path d="M365.994 614.871L366.611 621.175L372.797 622.537L366.992 625.072L367.608 631.377L363.404 626.638L357.598 629.173L360.805 623.71L356.601 618.972L362.787 620.334L365.994 614.871Z" fill="url(#paint41_linear)"/>
<path d="M324.961 454.683L325.577 460.988L331.764 462.35L325.958 464.884L326.575 471.189L322.37 466.451L316.565 468.985L319.772 463.522L315.567 458.784L321.754 460.146L324.961 454.683Z" fill="url(#paint42_linear)"/>
<path d="M230.269 447.581L230.885 453.886L237.072 455.248L231.266 457.782L231.883 464.087L227.678 459.349L221.873 461.883L225.08 456.42L220.875 451.682L227.062 453.044L230.269 447.581Z" fill="url(#paint43_linear)"/>
<path d="M274.458 283.448L275.075 289.753L281.261 291.115L275.456 293.649L276.072 299.954L271.868 295.216L266.062 297.75L269.269 292.287L265.065 287.549L271.251 288.911L274.458 283.448Z" fill="url(#paint44_linear)"/>
<path d="M179.766 334.74L180.383 341.044L186.569 342.406L180.764 344.941L181.38 351.246L177.176 346.507L171.37 349.042L174.577 343.579L170.372 338.841L176.559 340.203L179.766 334.74Z" fill="url(#paint45_linear)"/>
<path d="M389.667 337.896L390.284 344.201L396.47 345.563L390.665 348.097L391.281 354.402L387.077 349.664L381.271 352.198L384.478 346.735L380.274 341.997L386.46 343.359L389.667 337.896Z" fill="url(#paint46_linear)"/>
<path d="M271.271 692.582C271.271 692.582 266.328 651.695 297.334 676.407C328.34 701.119 330.539 729.162 286.1 763.573L282.056 781.546L143.202 789.633V763.573C139.48 715.955 140.912 687.61 155.784 684.045C229.574 656.863 227.433 688.214 271.271 692.582Z" fill="#66370B"/>
<mask id="mask0" mask-type="alpha" maskUnits="userSpaceOnUse" x="141" y="668" width="180" height="122">
<path d="M271.271 692.582C271.271 692.582 266.328 651.695 297.334 676.407C328.34 701.119 330.539 729.162 286.1 763.573L282.056 781.546L143.202 789.633V763.573C139.48 715.955 140.912 687.61 155.784 684.045C229.574 656.863 227.433 688.214 271.271 692.582Z" fill="#7A400B"/>
</mask>
<g mask="url(#mask0)">
<path d="M266.469 687.488C266.469 687.488 261.526 646.601 292.532 671.313C323.538 696.025 325.736 724.068 281.298 758.48L277.253 776.452L138.4 784.54V758.48C134.677 710.861 136.11 682.516 150.982 678.951C224.771 651.769 222.63 683.12 266.469 687.488Z" fill="#7A400B"/>
<path d="M248.263 616.648C279 696.218 289.605 710.105 271.181 732.571C252.757 755.036 180.409 751.891 173.669 732.571C166.928 713.25 178.054 662.205 194.34 616.648H248.263Z" fill="#66370B"/>
<path d="M188.362 734.333C172.145 759.552 168.019 775.506 168.909 807.106L95.5692 796.258L115.363 780.074C136.071 707.324 148.492 674.647 176.068 670.411L230.556 690.458L188.362 734.333Z" fill="#522D0B"/>
<path d="M247.933 620.659C274.137 641.719 307.147 671.973 302.237 680.9C297.294 689.886 284.712 689.886 262.243 706.511L247.933 620.659Z" fill="#66370B"/>
</g>
<path d="M290.594 732.119C291.05 718.887 294.638 712.799 297.334 714.147C300.03 715.495 299.35 722.101 290.594 732.119Z" fill="#2F1906"/>
<path d="M290.594 732.119C302.726 723.133 300.97 701.491 307.669 706.062C314.368 710.632 298.253 734.002 286.274 738.412C287.67 736.473 289.103 734.38 290.594 732.119Z" fill="#2F1906"/>
<path d="M251.05 762.672C267.01 759.13 275.553 753.302 286.274 738.412M290.594 732.119C291.05 718.887 294.638 712.799 297.334 714.147C300.03 715.495 299.35 722.101 290.594 732.119ZM290.594 732.119C302.726 723.133 300.97 701.491 307.669 706.062C314.368 710.632 298.253 734.002 286.274 738.412M290.594 732.119C289.103 734.38 287.67 736.473 286.274 738.412" stroke="#2F1906"/>
<path d="M291.492 733.916C291.949 720.684 295.537 714.596 298.233 715.944C300.929 717.292 300.248 723.899 291.492 733.916Z" fill="#522D0B"/>
<path d="M291.492 733.916C303.625 724.93 301.869 703.288 308.568 707.859C315.267 712.43 299.151 735.799 287.172 740.209C288.568 738.27 290.001 736.178 291.492 733.916Z" fill="#522D0B"/>
<path d="M251.948 764.47C267.909 760.928 276.451 755.1 287.172 740.209M291.492 733.916C291.949 720.684 295.537 714.596 298.233 715.944C300.929 717.292 300.248 723.899 291.492 733.916ZM291.492 733.916C303.625 724.93 301.869 703.288 308.568 707.859C315.267 712.43 299.151 735.799 287.172 740.209M291.492 733.916C290.001 736.178 288.568 738.27 287.172 740.209" stroke="#522D0B"/>
<path d="M185.892 698.872C185.892 698.872 154.885 694.829 152.189 682.248C149.493 669.667 166.167 645.084 177.803 628.33L210.157 630.577L185.892 698.872Z" fill="#2A3F18"/>
<mask id="mask1" mask-type="alpha" maskUnits="userSpaceOnUse" x="151" y="628" width="60" height="71">
<path d="M185.892 698.872C185.892 698.872 154.885 694.829 152.189 682.248C149.493 669.667 166.167 645.084 177.803 628.33L210.157 630.577L185.892 698.872Z" fill="#385222"/>
</mask>
<g mask="url(#mask1)">
<path d="M185.283 700.221C185.283 700.221 154.277 696.177 151.581 683.596C148.885 671.015 165.559 646.432 177.195 629.679L209.549 631.925L185.283 700.221Z" fill="#253419"/>
</g>
<path d="M247.524 614.818C273.728 635.878 306.738 666.132 301.827 675.059C296.884 684.045 284.302 684.045 261.834 700.67L247.524 614.818Z" fill="#385222"/>
<mask id="mask2" mask-type="alpha" maskUnits="userSpaceOnUse" x="247" y="611" width="56" height="90">
<path d="M247.524 614.818C273.728 635.878 306.738 666.132 301.827 675.059C296.884 684.045 284.302 684.045 261.834 700.67L247.524 614.818Z" fill="#385222"/>
</mask>
<g mask="url(#mask2)">
<path d="M255.032 606.662C273.444 637.416 295.416 680.263 287.737 688.686C280.008 697.165 267.846 693.541 240.668 705.39L255.032 606.662Z" fill="#324620"/>
</g>
<path d="M248.353 612.155C279.089 691.725 289.695 705.612 271.271 728.078C252.847 750.543 180.499 747.398 173.758 728.078C167.018 708.757 178.144 657.712 194.429 612.155H248.353Z" fill="#2A3F18"/>
<mask id="mask3" mask-type="alpha" maskUnits="userSpaceOnUse" x="171" y="612" width="110" height="132">
<path d="M248.667 612.605C279.447 691.923 290.068 705.767 271.617 728.161C253.167 750.556 180.717 747.421 173.967 728.161C167.217 708.902 178.358 658.017 194.667 612.605H248.667Z" fill="#141E0C"/>
</mask>
<g mask="url(#mask3)">
<path d="M284.929 603.194C294.5 713.637 301.32 733.93 277.396 759.856C253.472 785.782 183.209 767.621 181.595 740.944C179.981 714.267 204.144 649.397 231.952 592.736L284.929 603.194Z" fill="#385222"/>
</g>
<path d="M246.556 587.443C252.174 594.891 253.447 600.138 251.05 612.155C228.89 632.017 214.499 634.98 184.094 620.692C179.715 602.577 178.88 594.576 182.746 587.443C212.469 569.431 222.558 583.987 246.556 587.443Z" fill="#FAEE30"/>
<mask id="mask4" mask-type="alpha" maskUnits="userSpaceOnUse" x="180" y="578" width="73" height="52">
<path d="M246.556 587.443C252.174 594.891 253.447 600.138 251.05 612.155C228.89 632.017 214.499 634.98 184.094 620.692C179.715 602.577 178.88 594.576 182.746 587.443C212.469 569.431 222.558 583.987 246.556 587.443Z" fill="#FAEE30"/>
</mask>
<g mask="url(#mask4)">
<path d="M248.726 591.487C249.566 596.295 249.705 599.102 248.726 604.517C238.016 613.696 231.937 618.802 210.979 622.489L183.119 614.851C208.224 639.497 223.594 636.675 252.321 614.851C254.465 602.648 252.988 598.131 248.726 591.487Z" fill="#E7D905"/>
<path d="M246.752 559.879C252.371 567.327 253.643 572.574 251.246 584.591C229.086 604.453 214.695 607.416 184.29 593.128C179.911 575.013 179.076 567.011 182.942 559.879C212.665 541.867 222.754 556.423 246.752 559.879Z" fill="#E7D905"/>
</g>
<path d="M139.607 588.342C156.233 590.589 193.024 609.735 201.17 598.676L223.638 592.386L175.556 620.316L111.746 628.331L57.3731 662.478H45.2403C49.523 657.183 53.1475 653.949 57.4913 651.064C60.2636 649.649 63.3995 647.792 67.2592 645.404C63.4462 647.458 60.3166 649.187 57.4913 651.064C52.9612 653.375 49.4016 654.505 45.2403 654.84L42.0948 649.898C60.1984 645.346 65.0487 640.675 77.1452 633.722C67.1572 639.403 61.553 642.499 51.5314 645.404V640.462L76.2465 628.331L40.7467 643.607V635.969C51.8755 632.617 59.2714 629.382 72.6515 623.388C56.3709 630.563 47.3682 634.007 32.2087 635.969L28.1644 630.577C47.4811 627.415 54.3542 624.594 63.1259 620.981C65.776 619.965 68.6068 618.821 71.7528 617.547C68.4665 618.78 65.7136 619.915 63.1259 620.981C54.1412 624.425 47.2322 626.398 37.1517 626.983V620.692C44.1917 620.618 51.6514 618.434 63.6643 614.851L37.1517 620.692C34.7607 620.718 32.4181 620.166 29.9619 619.794C30.2709 616.313 29.0724 614.617 23.2214 612.282C50.5888 614.836 62.9454 614.294 73.9996 607.663C85.2338 600.923 122.98 586.095 139.607 588.342Z" fill="#FAEE30"/>
<mask id="mask5" mask-type="alpha" maskUnits="userSpaceOnUse" x="21" y="588" width="203" height="75">
<path d="M139.607 588.342C156.233 590.589 193.024 609.735 201.17 598.676L223.638 592.386L175.556 620.316L111.746 628.331L57.3731 662.478H45.2403C49.523 657.183 53.1475 653.949 57.4913 651.064C60.2636 649.649 63.3995 647.792 67.2592 645.404C63.4462 647.458 60.3166 649.187 57.4913 651.064C52.9612 653.375 49.4016 654.505 45.2403 654.84L42.0948 649.898C60.1984 645.346 65.0487 640.675 77.1452 633.722C67.1572 639.403 61.553 642.499 51.5314 645.404V640.462L76.2465 628.331L40.7467 643.607V635.969C51.8755 632.617 59.2714 629.382 72.6515 623.388C56.3709 630.563 47.3682 634.007 32.2087 635.969L28.1644 630.577C47.4811 627.415 54.3542 624.594 63.1259 620.981C65.776 619.965 68.6068 618.821 71.7528 617.547C68.4665 618.78 65.7136 619.915 63.1259 620.981C54.1412 624.425 47.2322 626.398 37.1517 626.983V620.692C44.1917 620.618 51.6514 618.434 63.6643 614.851L37.1517 620.692C34.7607 620.718 32.4181 620.166 29.9619 619.794C30.2709 616.313 29.0724 614.617 23.2214 612.282C50.5888 614.836 62.9454 614.294 73.9996 607.663C85.2338 600.923 122.98 586.095 139.607 588.342Z" fill="#E7D905"/>
</mask>
<g mask="url(#mask5)">
<path d="M139.607 590.818C156.233 593.065 193.024 612.211 201.17 601.152L223.638 594.861L175.556 622.792L111.746 630.806L57.373 664.954H45.2402C49.5228 659.659 53.1473 656.425 57.4912 653.54C60.2635 652.125 63.3993 650.268 67.259 647.88C63.4461 649.934 60.3165 651.663 57.4912 653.54C52.9611 655.851 49.4015 656.981 45.2402 657.316L42.0946 652.373C60.1983 647.822 65.0485 643.151 77.1451 636.198C67.1571 641.879 61.5528 644.975 51.5313 647.88V642.938L76.2463 630.806L40.7465 646.083V638.445C51.8754 635.093 59.2713 631.858 72.6514 625.864C56.3708 633.039 47.3681 636.483 32.2086 638.445L28.1643 633.053C47.481 629.891 54.354 627.07 63.1258 623.456C65.7759 622.441 68.6067 621.297 71.7527 620.023C68.4664 621.256 65.7135 622.39 63.1258 623.456C54.141 626.9 47.2321 628.874 37.1516 629.458V623.168C44.1916 623.094 51.6512 620.91 63.6641 617.327L37.1516 623.168C34.7606 623.193 32.4179 622.642 29.9618 622.269C30.2707 618.789 29.0723 617.093 23.2213 614.758C50.5886 617.312 62.9453 616.77 73.9995 610.139C85.2336 603.399 122.98 588.571 139.607 590.818Z" fill="#E7D905"/>
</g>
<path d="M235.322 591.487C202.518 607.213 222.739 620.243 202.518 631.925C182.297 643.607 134.664 664.725 116.689 694.38C99.1488 716.762 90.5745 723.603 77.1453 727.179L61.8669 724.933C73.6332 724.635 79.2776 719.469 88.3794 705.163C76.9179 714.615 70.6275 718.867 60.0694 721.338L54.2277 716.845C67.8864 718.215 73.2518 711.479 82.0883 697.075C72.4652 706.856 67.1362 710.892 57.8226 714.149H44.791C50.4808 713.656 57.0226 706.411 70.8542 688.988C62.2236 692.225 56.9823 695.254 46.1391 705.163L40.2974 699.771C47.527 697.53 51.3093 693.311 57.8226 683.147C69.0029 678.637 77.1453 664.725 73.5504 664.725C69.9555 664.725 63.0494 672.777 57.8226 683.147L34.905 694.38L28.6139 688.988C48.7948 690.732 46.5885 687.64 73.5504 643.158C100.512 598.676 153.537 610.358 183.195 606.314C212.853 602.271 206.113 596.429 215.55 593.284L235.322 591.487Z" fill="#FAEE30"/>
<mask id="mask6" mask-type="alpha" maskUnits="userSpaceOnUse" x="28" y="591" width="208" height="137">
<path d="M235.322 591.487C202.518 607.213 222.739 620.243 202.518 631.925C182.297 643.607 134.664 664.725 116.689 694.38C99.1488 716.762 90.5745 723.603 77.1453 727.179L61.8669 724.933C73.6332 724.635 79.2776 719.469 88.3794 705.163C76.9179 714.615 70.6275 718.867 60.0694 721.338L54.2277 716.845C67.8864 718.215 73.2518 711.479 82.0883 697.075C72.4652 706.856 67.1362 710.892 57.8226 714.149H44.791C50.4808 713.656 57.0226 706.411 70.8542 688.988C62.2236 692.225 56.9823 695.254 46.1391 705.163L40.2974 699.771C47.527 697.53 51.3093 693.311 57.8226 683.147C69.0029 678.637 77.1453 664.725 73.5504 664.725C69.9555 664.725 63.0494 672.777 57.8226 683.147L34.905 694.38L28.6139 688.988C48.7948 690.732 46.5885 687.64 73.5504 643.158C100.512 598.676 153.537 610.358 183.195 606.314C212.853 602.271 206.113 596.429 215.55 593.284L235.322 591.487Z" fill="#FAEE30"/>
</mask>
<g mask="url(#mask6)">
<path d="M237.119 595.082C204.316 610.808 224.537 623.838 204.316 635.52C184.094 647.202 136.462 668.32 118.487 697.974C100.946 720.357 92.3721 727.197 78.9429 730.774L63.6645 728.527C75.4308 728.229 81.0752 723.064 90.177 708.758C78.7155 718.21 72.4251 722.461 61.867 724.933L56.0253 720.44C69.684 721.81 75.0494 715.074 83.8859 700.67C74.2628 710.45 68.9339 714.487 59.6202 717.744H46.5886C52.2784 717.251 58.8202 710.006 72.6518 692.583C64.0212 695.82 58.7799 698.849 47.9367 708.758L42.095 703.366C49.3247 701.124 53.1069 696.905 59.6202 686.741C70.8005 682.232 78.9429 668.32 75.348 668.32C71.7531 668.32 64.847 676.371 59.6202 686.741L36.7026 697.974L30.4115 692.583C50.5924 694.327 48.3861 691.235 75.348 646.753C102.31 602.271 155.335 613.953 184.993 609.909C214.651 605.866 207.911 600.024 217.347 596.879L237.119 595.082Z" fill="#E7D905"/>
</g>
<path d="M259.188 550.15C261.539 568.031 262.23 577.436 247.504 578.457L236.729 566.319L259.188 550.15Z" fill="#FFC786"/>
<path d="M178.252 578.906C167.66 575.516 162.92 572.527 164.322 558.238L183.645 554.194L188.138 576.66L178.252 578.906Z" fill="#FFC786"/>
<path d="M255.093 542.063C263.431 528.511 259.587 524.539 248.353 519.148C237.154 513.773 241.807 505.365 248.291 493.649L248.353 493.537C235.344 499.712 228.554 498.645 217.347 488.594C214.83 504.234 196.676 508.364 176.005 485C189.486 507.915 182.443 512.986 170.164 510.611C170.904 527.973 167.467 529.482 153.088 529.482C162.554 537.839 165.436 543.803 162.524 558.687C177.054 560.721 179.801 566.093 176.005 582.501C187.017 583.022 192.622 584.523 198.923 595.081C215 583.575 231.727 600.024 258.688 582.501C241.977 579.39 242.984 573.803 258.688 558.687C258.208 549.13 261.085 544.803 267.676 537.569L255.093 542.063Z" fill="#FFAE1A"/>
<path d="M255.093 542.063C263.431 528.511 259.587 524.539 248.353 519.148C237.154 513.773 241.807 505.365 248.291 493.649L248.353 493.537C235.344 499.712 228.554 498.645 217.347 488.594C214.83 504.234 196.676 508.364 176.005 485C189.486 507.915 182.443 512.986 170.164 510.611C170.904 527.973 167.467 529.482 153.088 529.482C162.554 537.839 165.436 543.803 162.524 558.687C177.054 560.721 179.801 566.093 176.005 582.501C187.017 583.022 192.622 584.523 198.923 595.081C215 583.575 231.727 600.024 258.688 582.501C241.977 579.39 242.984 573.803 258.688 558.687C258.208 549.13 261.085 544.803 267.676 537.569L255.093 542.063Z" fill="#FFAE1A"/>
<mask id="mask7" mask-type="alpha" maskUnits="userSpaceOnUse" x="153" y="490" width="115" height="111">
<path d="M255.093 547.904C263.431 534.352 259.587 530.381 248.353 524.989C237.154 519.614 241.807 511.206 248.291 499.49L248.353 499.378C235.344 505.554 228.554 504.486 217.347 494.436C214.83 510.075 196.676 514.205 176.005 490.841C189.486 513.756 182.443 518.827 170.164 516.452C170.904 533.814 167.467 535.323 153.088 535.323C162.554 543.68 165.436 549.644 162.524 564.528C177.054 566.562 179.801 571.934 176.005 588.342C187.017 588.864 192.622 590.364 198.923 600.922C215 589.416 231.727 605.865 258.688 588.342C241.977 585.231 242.984 579.644 258.688 564.528C258.208 554.971 261.085 550.645 267.676 543.411L255.093 547.904Z" fill="#FFAE1A"/>
<path d="M255.093 547.904C263.431 534.352 259.587 530.381 248.353 524.989C237.154 519.614 241.807 511.206 248.291 499.49L248.353 499.378C235.344 505.554 228.554 504.486 217.347 494.436C214.83 510.075 196.676 514.205 176.005 490.841C189.486 513.756 182.443 518.827 170.164 516.452C170.904 533.814 167.467 535.323 153.088 535.323C162.554 543.68 165.436 549.644 162.524 564.528C177.054 566.562 179.801 571.934 176.005 588.342C187.017 588.864 192.622 590.364 198.923 600.922C215 589.416 231.727 605.865 258.688 588.342C241.977 585.231 242.984 579.644 258.688 564.528C258.208 554.971 261.085 550.645 267.676 543.411L255.093 547.904Z" fill="#FFAE1A"/>
</mask>
<g mask="url(#mask7)">
<path d="M255.093 542.511C263.431 528.96 259.587 524.988 248.353 519.596C237.154 514.222 241.807 505.814 248.291 494.097L248.353 493.986C235.344 500.161 228.554 499.094 217.347 489.043C214.83 504.683 196.676 508.813 176.005 485.449C189.486 508.364 182.443 513.434 170.164 511.059C170.904 528.422 167.467 529.931 153.088 529.931C162.554 538.287 165.436 544.252 162.524 559.136C177.054 561.17 179.801 566.542 176.005 582.949C187.017 583.471 192.622 584.972 198.923 595.53C215 584.024 231.727 600.473 258.688 582.949C241.977 579.838 242.984 574.251 258.688 559.136C258.208 549.579 261.085 545.252 267.676 538.018L255.093 542.511Z" fill="#E1960A"/>
<path d="M255.093 542.511C263.431 528.96 259.587 524.988 248.353 519.596C237.154 514.222 241.807 505.814 248.291 494.097L248.353 493.986C235.344 500.161 228.554 499.094 217.347 489.043C214.83 504.683 196.676 508.813 176.005 485.449C189.486 508.364 182.443 513.434 170.164 511.059C170.904 528.422 167.467 529.931 153.088 529.931C162.554 538.287 165.436 544.252 162.524 559.136C177.054 561.17 179.801 566.542 176.005 582.949C187.017 583.471 192.622 584.972 198.923 595.53C215 584.024 231.727 600.473 258.688 582.949C241.977 579.838 242.984 574.251 258.688 559.136C258.208 549.579 261.085 545.252 267.676 538.018L255.093 542.511Z" fill="#E1960A"/>
</g>
<path d="M354.852 647.202C333.987 674.696 324.228 702.995 309.467 771.212V788.286L408.776 777.951C404.083 736.799 393.403 662.972 380.466 647.202H354.852Z" fill="#B8400C"/>
<mask id="mask8" mask-type="alpha" maskUnits="userSpaceOnUse" x="309" y="647" width="100" height="142">
<path d="M354.852 647.202C333.987 674.696 324.228 702.995 309.467 771.212V788.286L408.776 777.951C404.083 736.799 393.403 662.972 380.466 647.202H354.852Z" fill="#CD4C14"/>
</mask>
<g mask="url(#mask8)">
<path d="M360.245 647.202C339.379 674.696 329.62 702.995 314.859 771.212V788.286L414.168 777.951C409.475 736.799 398.795 662.972 385.859 647.202H360.245Z" fill="#CD4C14"/>
<path d="M398.89 556.89C395.744 553.745 390.352 569.021 390.352 569.021L384.96 582.051C373.276 586.095 371.09 587.186 359.795 582.051L359.764 581.573C358.766 566.412 357.932 553.745 351.707 553.745C345.416 553.745 339.574 599.575 339.574 609.459C339.574 619.344 324.745 619.794 324.745 629.229C324.745 638.665 345.416 656.637 365.188 656.637C384.96 656.637 414.168 640.911 414.168 635.07C414.168 629.229 402.036 626.983 402.036 617.098C402.036 607.213 402.036 560.035 398.89 556.89Z" fill="#B8400C"/>
</g>
<path d="M358.897 782.894C364.631 730.792 333.283 715.946 298.682 711.004C264.081 706.061 216.898 720.889 203.417 662.029C197.735 677.821 198.262 686.674 203.417 702.467C199.534 699.863 197.079 694.801 192.632 684.944C193.799 747.701 208.491 765.397 254.195 779.749L358.897 782.894Z" fill="#E14E0E"/>
<mask id="mask9" mask-type="alpha" maskUnits="userSpaceOnUse" x="192" y="662" width="168" height="121">
<path d="M358.897 782.894C364.631 730.792 333.283 715.946 298.682 711.004C264.081 706.061 216.898 720.889 203.417 662.029C197.735 677.821 198.262 686.674 203.417 702.467C199.534 699.863 197.079 694.801 192.632 684.944C193.799 747.701 208.491 765.397 254.195 779.749L358.897 782.894Z" fill="#B8400C"/>
</mask>
<g mask="url(#mask9)">
<path d="M361.593 792.329C367.327 740.227 335.979 725.382 301.378 720.439C266.777 715.497 219.594 730.324 206.113 671.464C200.431 687.257 200.958 696.11 206.113 711.902C202.23 709.299 199.775 704.236 195.328 694.379C196.495 757.136 211.187 774.833 256.891 789.184L361.593 792.329Z" fill="#B8400C"/>
</g>
<path d="M398.89 551.947C395.745 548.802 390.352 564.079 390.352 564.079L384.96 577.109C373.277 581.153 371.091 582.244 359.796 577.109L359.764 576.63C358.766 561.469 357.933 548.802 351.707 548.802C345.416 548.802 339.574 594.632 339.574 604.517C339.574 614.402 324.745 614.851 324.745 624.287C324.745 633.722 345.416 651.695 365.188 651.695C384.96 651.695 414.169 635.969 414.169 630.128C414.169 624.287 402.036 622.04 402.036 612.155C402.036 602.27 402.036 555.093 398.89 551.947Z" fill="#B8400C"/>
<mask id="mask10" mask-type="alpha" maskUnits="userSpaceOnUse" x="324" y="548" width="91" height="104">
<path d="M398.89 551.947C395.745 548.802 390.352 564.079 390.352 564.079L384.96 577.109C373.277 581.153 371.091 582.244 359.796 577.109L359.764 576.63C358.766 561.469 357.933 548.802 351.707 548.802C345.416 548.802 339.574 594.632 339.574 604.517C339.574 614.402 324.745 614.851 324.745 624.287C324.745 633.722 345.416 651.695 365.188 651.695C384.96 651.695 414.169 635.969 414.169 630.128C414.169 624.287 402.036 622.04 402.036 612.155C402.036 602.27 402.036 555.093 398.89 551.947Z" fill="#E14E0E"/>
</mask>
<g mask="url(#mask10)">
<path d="M406.08 552.397C402.935 549.252 397.543 564.528 397.543 564.528L392.15 577.558C380.467 581.602 378.281 582.693 366.986 577.558L366.954 577.08C365.956 561.919 365.123 549.252 358.897 549.252C352.606 549.252 346.764 595.081 346.764 604.966C346.764 614.851 331.935 615.3 331.935 624.736C331.935 634.172 352.606 652.144 372.378 652.144C392.15 652.144 421.359 636.418 421.359 630.577C421.359 624.736 409.226 622.489 409.226 612.605C409.226 602.72 409.226 555.542 406.08 552.397Z" fill="#E14E0E"/>
</g>
<path d="M398.89 711.903C430.931 696.785 434.262 708.805 407.428 776.154L398.89 711.903Z" fill="#CD4C14"/>
<mask id="mask11" mask-type="alpha" maskUnits="userSpaceOnUse" x="398" y="706" width="28" height="71">
<path d="M398.89 711.903C430.931 696.785 434.262 708.805 407.428 776.154L398.89 711.903Z" fill="#CD4C14"/>
</mask>
<g mask="url(#mask11)">
<path d="M395.745 718.611C427.785 703.494 431.117 715.514 404.283 782.863L395.745 718.611Z" fill="#B8400C"/>
</g>
<path d="M219.695 688.668C221.902 680.768 227.094 652.41 226.336 643.158C222.399 650.136 218.857 679.037 219.695 688.668Z" fill="#218B10"/>
<path d="M235.942 733.823C239.045 727.539 247.925 703.201 244.76 700.669C239.474 695.653 234.025 722.387 235.942 733.823Z" fill="#218B10"/>
<path d="M266.169 727.083C279.216 712.103 288.41 680.558 292.392 662.478C276.752 681.096 266.39 713.608 266.169 727.083Z" fill="#218B10"/>
<path d="M357.274 734.436C366.27 725.47 375.938 694.896 372.829 693.031C369.6 691.094 359.294 724.754 357.274 734.436Z" fill="#218B10"/>
<path d="M321.947 722.236C323.099 717.849 329.261 694.148 332.835 690.335C326.438 692.405 321.566 717.122 321.947 722.236Z" fill="#218B10"/>
<path fill-rule="evenodd" clip-rule="evenodd" d="M112.646 668.384C120.834 730.705 108.826 753.741 98.7155 747.463C88.6046 741.184 102.608 729.713 111.747 720.953C103.987 725.556 99.7831 725.144 91.5251 739.825C83.2025 742.625 99.8066 699.557 96.0186 695.343C92.2306 691.128 91.8158 702.214 86.1325 739.825C84.5928 723.921 66.3603 676.921 77.1452 708.373C87.9301 739.825 72.9264 753.419 66.8098 746.564C60.6933 739.709 67.2415 745.025 77.1452 734.882C68.7219 734.493 63.9993 728.984 55.5757 749.26C50.9336 748.179 50.4041 743.64 53.3289 732.186C51.3303 739.67 50.5333 744.056 44.7914 750.608C42.041 715.101 37.3353 701.647 30.4113 684.11C37.0968 710.425 39.1062 725.371 34.456 747.463C27.803 743.368 23.6534 741.366 35.8041 724.099C25.6164 729.214 17.2834 729.014 25.0189 755.101C20.5869 753.213 17.3593 747.36 12.8861 737.129C14.6075 751.597 13.2534 755.052 3.00005 744.767V844H226.335H486.967V750.159C469.513 752.203 461.593 746.692 448.771 732.186C455.741 740.695 459.56 745.471 458.657 754.652C444.405 754.058 438.712 751.537 433.043 742.97C433.043 758.246 425.99 757.914 416.866 740.723C412.26 740.443 410.207 741.61 406.98 744.767C409.861 730.131 417.971 719.716 440.233 698.488C416.838 718.012 406.175 728.118 402.935 740.723L397.543 739.825C398.626 744.402 398.928 746.816 397.543 750.159C387.595 756.866 385.05 742.291 382.714 702.981C381.898 731.297 380.423 740.17 375.523 739.825C374.842 735.977 374.439 731.344 374.176 725.447C368.213 738.99 361.594 748.362 357.55 742.97C356.411 741.453 356.483 738.227 357.274 734.436C353.268 738.429 348.682 742.16 344.069 744.767C340.542 746.491 338.166 746.652 332.834 744.767C324.616 738.477 339.159 730.884 336.429 719.156C326.094 724.548 335.595 740.587 323.847 742.97C326.198 737.746 322.476 729.335 321.947 722.236C320.927 726.122 321.017 730.77 322.499 737.129C312.018 742.415 306.245 742.923 295.987 742.97C315.558 720.432 318.157 713.64 320.702 702.981C311.128 718.512 305.316 725.082 294.638 735.331C293.062 726.648 295.499 719.008 302.727 702.981C296.436 714.663 286.064 723.022 286.999 739.825C283.359 733.546 284.324 727.742 288.5 717.296C284.572 724.677 278.241 726.688 277.113 735.331V740.723C276.871 738.339 276.89 737.04 277.113 735.331V720.953C269.784 729.123 266.897 734.327 269.025 744.767C267.084 738.315 266.079 732.595 266.169 727.083C263.425 730.234 260.35 733.55 256.892 737.129C257.114 726.365 256.245 723.252 254.196 719.156C252.117 732.811 248.276 739.074 238.019 742.97C237.1 739.687 236.409 736.607 235.942 733.823C234.639 736.461 233.721 739.493 233.974 742.97C219.291 743.49 216.942 739.645 226.335 723.2C223.125 724.647 221.074 728.062 217.797 737.129C223.778 720.264 220.948 703.081 219.695 688.668C215.365 704.169 208.687 718.996 212.854 740.723C208.824 737.101 206.193 728.504 204.765 716.011C204.984 721.035 205.633 728.546 205.215 735.331C200.844 730.929 195.329 703.88 195.329 686.806C193.531 727.693 189 740.435 177.804 737.129C176.301 728.142 178.804 722.596 188.139 711.967C176.667 720.358 171.675 726.314 169.715 742.97C167.436 734.914 167.822 728.986 179.6 716.46C151.29 744.318 148.506 753.764 157.133 714.663C146.159 754.085 141.434 757.481 139.302 729.175C139.027 753.327 125.228 756.695 128.823 726.345C125.723 728.908 124.407 732.849 122.981 744.767C119.424 694.598 117.289 672.553 112.646 668.384ZM432.739 778.373C436.219 770.026 441.169 763.35 438.884 761.392C437.037 759.809 434.262 769.529 432.739 778.373Z" fill="#218B10"/>
<path d="M432.739 778.373C436.219 770.026 441.169 763.35 438.884 761.392C437.037 759.809 434.262 769.529 432.739 778.373Z" fill="#218B10"/>
<path d="M217.797 737.129C221.074 728.062 223.125 724.647 226.335 723.2C216.942 739.645 219.291 743.49 233.974 742.97C233.721 739.493 234.639 736.461 235.942 733.823M217.797 737.129C217.738 737.295 217.858 736.963 217.797 737.129ZM217.797 737.129C217.857 736.961 217.738 737.293 217.797 737.129ZM217.797 737.129C223.778 720.264 220.948 703.081 219.695 688.668M386.31 735.716C382.526 731.001 376.771 746.874 375.523 739.825M219.695 688.668C221.902 680.768 227.094 652.41 226.336 643.158C222.399 650.136 218.857 679.037 219.695 688.668ZM219.695 688.668C215.365 704.169 208.687 718.996 212.854 740.723C208.824 737.101 206.193 728.504 204.765 716.011M235.942 733.823C239.045 727.539 247.925 703.201 244.76 700.669C239.474 695.653 234.025 722.387 235.942 733.823ZM235.942 733.823C236.409 736.607 237.1 739.687 238.019 742.97C248.276 739.074 252.117 732.811 254.196 719.156C256.245 723.252 257.114 726.365 256.892 737.129C260.35 733.55 263.425 730.234 266.169 727.083M266.169 727.083C279.216 712.103 288.41 680.558 292.392 662.478C276.752 681.096 266.39 713.608 266.169 727.083ZM266.169 727.083C266.079 732.595 267.084 738.315 269.025 744.767C266.897 734.327 269.784 729.123 277.113 720.953V735.331M357.274 734.436C366.27 725.47 375.938 694.896 372.829 693.031C369.6 691.094 359.294 724.754 357.274 734.436ZM357.274 734.436C356.483 738.227 356.411 741.453 357.55 742.97C361.594 748.362 368.213 738.99 374.176 725.447C374.439 731.344 374.842 735.977 375.523 739.825M357.274 734.436C353.268 738.429 348.682 742.16 344.069 744.767C340.542 746.491 338.166 746.652 332.834 744.767C324.616 738.477 339.159 730.884 336.429 719.156C326.094 724.548 335.595 740.587 323.847 742.97C326.198 737.746 322.476 729.335 321.947 722.236M321.947 722.236C323.099 717.849 329.261 694.148 332.835 690.335C326.438 692.405 321.566 717.122 321.947 722.236ZM321.947 722.236C320.927 726.122 321.017 730.77 322.499 737.129C312.018 742.415 306.245 742.923 295.987 742.97C315.558 720.432 318.157 713.64 320.702 702.981C311.128 718.512 305.316 725.082 294.638 735.331C293.062 726.648 295.499 719.008 302.727 702.981C296.436 714.663 286.064 723.022 286.999 739.825C283.359 733.546 284.324 727.742 288.5 717.296M288.5 717.296C284.572 724.677 278.241 726.688 277.113 735.331M288.5 717.296C289.003 716.039 293.148 694.431 293.741 693.031C293.271 694.543 289.118 716.136 288.5 717.296ZM277.113 735.331V740.723C276.871 738.339 276.89 737.04 277.113 735.331ZM204.765 716.011C204.984 721.035 205.633 728.546 205.215 735.331C200.844 730.929 195.329 703.88 195.329 686.806C193.531 727.693 189 740.435 177.804 737.129C176.301 728.142 178.804 722.596 188.139 711.967C176.667 720.358 171.675 726.314 169.715 742.97C167.436 734.914 167.822 728.986 179.6 716.46C151.29 744.318 148.506 753.764 157.133 714.663C146.159 754.085 141.434 757.481 139.302 729.175M204.765 716.011C204.154 710.665 207.89 685.905 207.363 678.204C207.983 684.809 204.462 709.056 204.765 716.011ZM139.302 729.175C139.027 753.327 125.228 756.695 128.823 726.345C125.723 728.908 124.407 732.849 122.981 744.767C119.424 694.598 117.289 672.553 112.646 668.384C120.834 730.705 108.826 753.741 98.7155 747.463C88.6046 741.184 102.608 729.713 111.747 720.953C103.987 725.556 99.7831 725.144 91.5251 739.825C83.2025 742.625 99.8066 699.557 96.0186 695.343C92.2306 691.128 91.8158 702.214 86.1325 739.825C84.5928 723.921 66.3603 676.921 77.1452 708.373C87.9301 739.825 72.9264 753.419 66.8098 746.564C60.6933 739.709 67.2415 745.025 77.1452 734.882C68.7219 734.493 63.9993 728.984 55.5757 749.26C50.9336 748.179 50.4041 743.64 53.3289 732.186M139.302 729.175C139.336 726.152 142.754 702.52 142.305 698.872C142.476 702.562 139.077 726.187 139.302 729.175ZM375.523 739.825C380.423 740.17 381.898 731.297 382.714 702.981C385.05 742.291 387.595 756.866 397.543 750.159C398.928 746.816 398.626 744.402 397.543 739.825L402.935 740.723C406.175 728.118 416.838 718.012 440.233 698.488C417.971 719.716 409.861 730.131 406.98 744.767C410.207 741.61 412.26 740.443 416.866 740.723C425.99 757.914 433.043 758.246 433.043 742.97C438.712 751.537 444.405 754.058 458.657 754.652C459.56 745.471 455.741 740.695 448.771 732.186C461.593 746.692 469.513 752.203 486.967 750.159V844H226.335H3.00005V744.767C13.2534 755.052 14.6075 751.597 12.8861 737.129C17.3593 747.36 20.5869 753.213 25.0189 755.101C17.2834 729.014 25.6164 729.214 35.8041 724.099C23.6534 741.366 27.803 743.368 34.456 747.463C39.1062 725.371 37.0968 710.425 30.4113 684.11C37.3353 701.647 42.041 715.101 44.7914 750.608C50.5333 744.056 51.3303 739.67 53.3289 732.186M53.3289 732.186C53.7419 730.64 58.698 707.827 59.1714 706.061C58.693 707.824 53.7223 730.646 53.3289 732.186ZM11.9882 761.776C21.0724 758.884 26.1903 760.467 35.3555 768.066V758.631L28.6147 747.847C34.38 750.371 37.0098 752.921 39.3998 761.776C41.496 754.216 44.0242 750.815 50.6335 746.05C44.7303 752.913 43.0383 756.305 42.0956 761.776C53.1074 758.232 48.3871 768.066 68.6081 764.472M254.645 755.486C256.994 752.713 255.464 749.514 251.949 743.354C255.727 749.3 257.852 752.472 261.835 753.688V757.732C263.265 747.693 265.563 744.139 271.721 740.658M265.43 757.732L265.604 757.515C265.048 753.089 266.304 752.335 269.765 752.34M271.721 757.515H279.36M285.651 757.732L299.582 757.515M403.834 765.37C412.559 767.158 419.156 767.864 430.796 768.516C412.372 752.34 425.853 752.34 433.492 768.066C433.922 764.612 431.428 781.516 432.739 778.373M467.195 771.211C472.298 769.327 474.834 765.37 472.138 765.37C469.441 765.37 451.017 771.211 442.479 771.211C441.091 764.99 439.871 763.724 435.739 771.211C434.811 770.098 431.667 784.594 432.739 778.373M432.739 778.373C436.219 770.026 441.169 763.35 438.884 761.392C437.037 759.809 434.262 769.529 432.739 778.373Z" stroke="#174210"/>
<path d="M335.062 777.054C339.632 774.742 341.974 773.241 357.98 781.547C359.788 774.352 357.12 770.187 349.891 762.676C355.336 765.233 358.096 762.579 364.72 781.547M364.72 781.547C363.368 765.194 367.866 757.733 371.91 757.733C375.954 757.733 372.394 765.928 364.72 781.547ZM364.72 781.547C367.343 774.506 371.461 776.156 375.954 781.547C380.448 786.939 386.637 783.164 393.48 781.547" stroke="#174210"/>
<path d="M281.695 795.159C288.449 802.296 290.297 801.449 284.391 780.781C278.485 760.113 290.816 782.682 294.727 801.449M294.727 801.449C294.727 801.449 292.929 772.694 300.119 776.737C307.309 780.781 301.37 783.829 294.727 801.449ZM294.727 801.449C302.703 790.722 300.119 801.449 310.005 801.449C319.891 801.449 333.903 795.094 355.84 804.595" stroke="#174210"/>
<defs>
<linearGradient id="paint0_linear" x1="450" y1="810.218" x2="-1288.69" y2="-260.209" gradientUnits="userSpaceOnUse">
<stop offset="0.374968" stop-color="#023968"/>
<stop offset="1"/>
<stop offset="1" stop-color="#00070C"/>
</linearGradient>
<linearGradient id="paint1_linear" x1="-923.711" y1="807.849" x2="777.048" y2="-134.676" gradientUnits="userSpaceOnUse">
<stop offset="0.459423" stop-color="#053B6A"/>
<stop offset="1"/>
</linearGradient>
<linearGradient id="paint2_linear" x1="450" y1="464.335" x2="-923.711" y2="454.864" gradientUnits="userSpaceOnUse">
<stop stop-color="white" stop-opacity="0"/>
<stop offset="0.484375" stop-color="white" stop-opacity="0.33"/>
<stop offset="1" stop-color="white" stop-opacity="0"/>
</linearGradient>
<linearGradient id="paint3_linear" x1="31.4895" y1="264.779" x2="57.6594" y2="277.827" gradientUnits="userSpaceOnUse">
<stop stop-color="#052744"/>
<stop offset="1" stop-color="white"/>
</linearGradient>
<linearGradient id="paint4_linear" x1="332.791" y1="27.3457" x2="358.961" y2="40.3937" gradientUnits="userSpaceOnUse">
<stop stop-color="#052744"/>
<stop offset="1" stop-color="white"/>
</linearGradient>
<linearGradient id="paint5_linear" x1="414.727" y1="153.325" x2="440.897" y2="166.373" gradientUnits="userSpaceOnUse">
<stop stop-color="#052744"/>
<stop offset="1" stop-color="white"/>
</linearGradient>
<linearGradient id="paint6_linear" x1="321.332" y1="181.875" x2="347.502" y2="194.923" gradientUnits="userSpaceOnUse">
<stop stop-color="#052744"/>
<stop offset="1" stop-color="white"/>
</linearGradient>
<linearGradient id="paint7_linear" x1="31.1713" y1="131.264" x2="57.3413" y2="144.312" gradientUnits="userSpaceOnUse">
<stop stop-color="#052744"/>
<stop offset="1" stop-color="white"/>
</linearGradient>
<linearGradient id="paint8_linear" x1="158.58" y1="152.414" x2="184.75" y2="165.462" gradientUnits="userSpaceOnUse">
<stop stop-color="#052744"/>
<stop offset="1" stop-color="white"/>
</linearGradient>
<linearGradient id="paint9_linear" x1="72.4047" y1="192.299" x2="98.5747" y2="205.347" gradientUnits="userSpaceOnUse">
<stop stop-color="#052744"/>
<stop offset="1" stop-color="white"/>
</linearGradient>
<linearGradient id="paint10_linear" x1="31.1201" y1="27.4114" x2="57.29" y2="40.4594" gradientUnits="userSpaceOnUse">
<stop stop-color="#052744"/>
<stop offset="1" stop-color="white"/>
</linearGradient>
<linearGradient id="paint11_linear" x1="-26.6343" y1="118.306" x2="-0.464383" y2="131.354" gradientUnits="userSpaceOnUse">
<stop stop-color="#052744"/>
<stop offset="1" stop-color="white"/>
</linearGradient>
<linearGradient id="paint12_linear" x1="158.262" y1="18.9005" x2="184.432" y2="31.9485" gradientUnits="userSpaceOnUse">
<stop stop-color="#052744"/>
<stop offset="1" stop-color="white"/>
</linearGradient>
<linearGradient id="paint13_linear" x1="159.293" y1="294.742" x2="185.463" y2="307.79" gradientUnits="userSpaceOnUse">
<stop stop-color="#052744"/>
<stop offset="1" stop-color="white"/>
</linearGradient>
<linearGradient id="paint14_linear" x1="73.1164" y1="334.627" x2="99.2863" y2="347.675" gradientUnits="userSpaceOnUse">
<stop stop-color="#052744"/>
<stop offset="1" stop-color="white"/>
</linearGradient>
<linearGradient id="paint15_linear" x1="31.8317" y1="169.739" x2="58.0017" y2="182.787" gradientUnits="userSpaceOnUse">
<stop stop-color="#052744"/>
<stop offset="1" stop-color="white"/>
</linearGradient>
<linearGradient id="paint16_linear" x1="-25.9224" y1="260.634" x2="0.247531" y2="273.682" gradientUnits="userSpaceOnUse">
<stop stop-color="#052744"/>
<stop offset="1" stop-color="white"/>
</linearGradient>
<linearGradient id="paint17_linear" x1="137.467" y1="122.626" x2="163.636" y2="135.674" gradientUnits="userSpaceOnUse">
<stop stop-color="#052744"/>
<stop offset="1" stop-color="white"/>
</linearGradient>
<linearGradient id="paint18_linear" x1="388.316" y1="178.88" x2="414.486" y2="191.928" gradientUnits="userSpaceOnUse">
<stop stop-color="#052744"/>
<stop offset="1" stop-color="white"/>
</linearGradient>
<linearGradient id="paint19_linear" x1="302.14" y1="218.765" x2="328.31" y2="231.813" gradientUnits="userSpaceOnUse">
<stop stop-color="#052744"/>
<stop offset="1" stop-color="white"/>
</linearGradient>
<linearGradient id="paint20_linear" x1="260.855" y1="53.8769" x2="287.025" y2="66.9249" gradientUnits="userSpaceOnUse">
<stop stop-color="#052744"/>
<stop offset="1" stop-color="white"/>
</linearGradient>
<linearGradient id="paint21_linear" x1="203.102" y1="144.772" x2="229.271" y2="157.82" gradientUnits="userSpaceOnUse">
<stop stop-color="#052744"/>
<stop offset="1" stop-color="white"/>
</linearGradient>
<linearGradient id="paint22_linear" x1="387.998" y1="45.3657" x2="414.168" y2="58.4136" gradientUnits="userSpaceOnUse">
<stop stop-color="#052744"/>
<stop offset="1" stop-color="white"/>
</linearGradient>
<linearGradient id="paint23_linear" x1="150.74" y1="381.979" x2="167.25" y2="406.115" gradientUnits="userSpaceOnUse">
<stop stop-color="#052744"/>
<stop offset="1" stop-color="white"/>
</linearGradient>
<linearGradient id="paint24_linear" x1="104.972" y1="340.946" x2="121.482" y2="365.081" gradientUnits="userSpaceOnUse">
<stop stop-color="#052744"/>
<stop offset="1" stop-color="white"/>
</linearGradient>
<linearGradient id="paint25_linear" x1="311.717" y1="568.996" x2="328.227" y2="593.132" gradientUnits="userSpaceOnUse">
<stop stop-color="#052744"/>
<stop offset="1" stop-color="white"/>
</linearGradient>
<linearGradient id="paint26_linear" x1="321.975" y1="718.925" x2="338.485" y2="743.061" gradientUnits="userSpaceOnUse">
<stop stop-color="#052744"/>
<stop offset="1" stop-color="white"/>
</linearGradient>
<linearGradient id="paint27_linear" x1="226.494" y1="698.409" x2="243.004" y2="722.544" gradientUnits="userSpaceOnUse">
<stop stop-color="#052744"/>
<stop offset="1" stop-color="white"/>
</linearGradient>
<linearGradient id="paint28_linear" x1="247.01" y1="434.06" x2="263.52" y2="458.195" gradientUnits="userSpaceOnUse">
<stop stop-color="#052744"/>
<stop offset="1" stop-color="white"/>
</linearGradient>
<linearGradient id="paint29_linear" x1="-2.3456" y1="512.97" x2="14.1646" y2="537.106" gradientUnits="userSpaceOnUse">
<stop stop-color="#052744"/>
<stop offset="1" stop-color="white"/>
</linearGradient>
<linearGradient id="paint30_linear" x1="98.6593" y1="593.458" x2="115.169" y2="617.594" gradientUnits="userSpaceOnUse">
<stop stop-color="#052744"/>
<stop offset="1" stop-color="white"/>
</linearGradient>
<linearGradient id="paint31_linear" x1="3.96714" y1="586.356" x2="20.4774" y2="610.492" gradientUnits="userSpaceOnUse">
<stop stop-color="#052744"/>
<stop offset="1" stop-color="white"/>
</linearGradient>
<linearGradient id="paint32_linear" x1="48.1567" y1="422.223" x2="64.6669" y2="446.359" gradientUnits="userSpaceOnUse">
<stop stop-color="#052744"/>
<stop offset="1" stop-color="white"/>
</linearGradient>
<linearGradient id="paint33_linear" x1="163.366" y1="476.671" x2="179.876" y2="500.807" gradientUnits="userSpaceOnUse">
<stop stop-color="#052744"/>
<stop offset="1" stop-color="white"/>
</linearGradient>
<linearGradient id="paint34_linear" x1="30.0074" y1="718.136" x2="46.5176" y2="742.272" gradientUnits="userSpaceOnUse">
<stop stop-color="#052744"/>
<stop offset="1" stop-color="white"/>
</linearGradient>
<linearGradient id="paint35_linear" x1="-20.495" y1="546.901" x2="-3.9848" y2="571.037" gradientUnits="userSpaceOnUse">
<stop stop-color="#052744"/>
<stop offset="1" stop-color="white"/>
</linearGradient>
<linearGradient id="paint36_linear" x1="94.7137" y1="557.159" x2="111.224" y2="581.295" gradientUnits="userSpaceOnUse">
<stop stop-color="#052744"/>
<stop offset="1" stop-color="white"/>
</linearGradient>
<linearGradient id="paint37_linear" x1="286.465" y1="728.394" x2="302.975" y2="752.53" gradientUnits="userSpaceOnUse">
<stop stop-color="#052744"/>
<stop offset="1" stop-color="white"/>
</linearGradient>
<linearGradient id="paint38_linear" x1="191.773" y1="721.293" x2="208.283" y2="745.428" gradientUnits="userSpaceOnUse">
<stop stop-color="#052744"/>
<stop offset="1" stop-color="white"/>
</linearGradient>
<linearGradient id="paint39_linear" x1="235.963" y1="557.159" x2="252.473" y2="581.295" gradientUnits="userSpaceOnUse">
<stop stop-color="#052744"/>
<stop offset="1" stop-color="white"/>
</linearGradient>
<linearGradient id="paint40_linear" x1="141.271" y1="608.451" x2="157.781" y2="632.587" gradientUnits="userSpaceOnUse">
<stop stop-color="#052744"/>
<stop offset="1" stop-color="white"/>
</linearGradient>
<linearGradient id="paint41_linear" x1="351.172" y1="611.608" x2="367.682" y2="635.743" gradientUnits="userSpaceOnUse">
<stop stop-color="#052744"/>
<stop offset="1" stop-color="white"/>
</linearGradient>
<linearGradient id="paint42_linear" x1="310.138" y1="451.42" x2="326.649" y2="475.555" gradientUnits="userSpaceOnUse">
<stop stop-color="#052744"/>
<stop offset="1" stop-color="white"/>
</linearGradient>
<linearGradient id="paint43_linear" x1="215.446" y1="444.318" x2="231.956" y2="468.454" gradientUnits="userSpaceOnUse">
<stop stop-color="#052744"/>
<stop offset="1" stop-color="white"/>
</linearGradient>
<linearGradient id="paint44_linear" x1="259.636" y1="280.185" x2="276.146" y2="304.321" gradientUnits="userSpaceOnUse">
<stop stop-color="#052744"/>
<stop offset="1" stop-color="white"/>
</linearGradient>
<linearGradient id="paint45_linear" x1="164.943" y1="331.477" x2="181.454" y2="355.612" gradientUnits="userSpaceOnUse">
<stop stop-color="#052744"/>
<stop offset="1" stop-color="white"/>
</linearGradient>
<linearGradient id="paint46_linear" x1="374.845" y1="334.633" x2="391.355" y2="358.769" gradientUnits="userSpaceOnUse">
<stop stop-color="#052744"/>
<stop offset="1" stop-color="white"/>
</linearGradient>
</defs>
</svg>
