<svg width="1280" height="720" viewBox="0 0 1280 720" fill="none" xmlns="http://www.w3.org/2000/svg">
<rect width="1280" height="718" fill="white"/>
<rect x="115.45" width="1200.12" height="718" fill="url(#paint0_linear)"/>
<rect x="115.45" width="1200.12" height="718" fill="url(#paint1_linear)" style="mix-blend-mode:darken"/>
<rect x="115.45" width="1200.12" height="718" fill="url(#paint2_linear)"/>
<path d="M942.642 147.439L943.45 155.705L951.561 157.491L943.949 160.814L944.758 169.08L939.245 162.868L931.633 166.191L935.838 159.028L930.326 152.816L938.437 154.602L942.642 147.439Z" fill="url(#paint3_linear)"/>
<path d="M657.097 472.298L657.905 480.564L666.016 482.35L658.405 485.673L659.213 493.939L653.7 487.727L646.089 491.05L650.294 483.887L644.781 477.675L652.892 479.461L657.097 472.298Z" fill="url(#paint4_linear)"/>
<path d="M882.636 93.641L883.444 101.907L891.555 103.693L883.944 107.016L884.752 115.282L879.239 109.069L871.628 112.393L875.832 105.23L870.32 99.0178L878.431 100.803L882.636 93.641Z" fill="url(#paint5_linear)"/>
<path d="M1153.7 392.635L1154.5 400.901L1162.62 402.687L1155 406.01L1155.81 414.276L1150.3 408.064L1142.69 411.387L1146.89 404.224L1141.38 398.012L1149.49 399.798L1153.7 392.635Z" fill="url(#paint6_linear)"/>
<path d="M532.947 462.987L533.755 471.253L541.866 473.039L534.255 476.362L535.063 484.628L529.551 478.415L521.939 481.738L526.144 474.576L520.631 468.364L528.742 470.149L532.947 462.987Z" fill="url(#paint7_linear)"/>
<path d="M694.342 169.166L695.15 177.432L703.261 179.217L695.65 182.54L696.458 190.806L690.945 184.594L683.334 187.917L687.538 180.755L682.026 174.542L690.137 176.328L694.342 169.166Z" fill="url(#paint8_linear)"/>
<path d="M1167.15 589.206L1167.95 597.472L1176.07 599.258L1168.45 602.581L1169.26 610.847L1163.75 604.634L1156.14 607.957L1160.34 600.795L1154.83 594.583L1162.94 596.368L1167.15 589.206Z" fill="url(#paint9_linear)"/>
<path d="M1041.96 562.307L1042.77 570.573L1050.88 572.358L1043.27 575.681L1044.08 583.947L1038.56 577.735L1030.95 581.058L1035.16 573.896L1029.65 567.684L1037.76 569.469L1041.96 562.307Z" fill="url(#paint10_linear)"/>
<path d="M590.884 247.794L591.692 256.06L599.803 257.845L592.191 261.168L593 269.435L587.487 263.222L579.875 266.545L584.08 259.383L578.568 253.171L586.679 254.956L590.884 247.794Z" fill="url(#paint11_linear)"/>
<path d="M466.734 315.042L467.542 323.308L475.653 325.093L468.042 328.416L468.85 336.682L463.337 330.47L455.726 333.793L459.93 326.631L454.418 320.418L462.529 322.204L466.734 315.042Z" fill="url(#paint12_linear)"/>
<path d="M1068.86 215.722L1069.67 223.988L1077.78 225.773L1070.17 229.096L1070.98 237.362L1065.46 231.15L1057.85 234.473L1062.06 227.311L1056.54 221.099L1064.66 222.884L1068.86 215.722Z" fill="url(#paint13_linear)"/>
<path d="M741.933 319.18L742.741 327.446L750.852 329.232L743.241 332.555L744.049 340.821L738.536 334.608L730.925 337.931L735.129 330.769L729.617 324.557L737.728 326.342L741.933 319.18Z" fill="url(#paint14_linear)"/>
<path d="M874.359 424.707L875.167 432.973L883.279 434.759L875.667 438.082L876.475 446.348L870.963 440.136L863.351 443.459L867.556 436.296L862.043 430.084L870.154 431.87L874.359 424.707Z" fill="url(#paint15_linear)"/>
<path d="M750.209 415.396L751.018 423.662L759.129 425.448L751.517 428.771L752.325 437.037L746.813 430.825L739.201 434.148L743.406 426.985L737.893 420.773L746.005 422.559L750.209 415.396Z" fill="url(#paint16_linear)"/>
<path d="M808.146 200.203L808.954 208.469L817.065 210.255L809.454 213.578L810.262 221.844L804.749 215.631L797.138 218.954L801.342 211.792L795.83 205.58L803.941 207.365L808.146 200.203Z" fill="url(#paint17_linear)"/>
<path d="M683.996 267.451L684.804 275.717L692.916 277.502L685.304 280.826L686.112 289.092L680.6 282.879L672.988 286.202L677.193 279.04L671.68 272.828L679.791 274.613L683.996 267.451Z" fill="url(#paint18_linear)"/>
<path d="M959.195 271.589L960.003 279.855L968.114 281.641L960.503 284.964L961.311 293.23L955.798 287.018L948.187 290.341L952.391 283.178L946.879 276.966L954.99 278.752L959.195 271.589Z" fill="url(#paint19_linear)"/>
<path d="M402.59 247.794L403.398 256.06L411.509 257.845L403.897 261.168L404.706 269.435L399.193 263.222L391.582 266.545L395.786 259.383L390.274 253.171L398.385 254.956L402.59 247.794Z" fill="url(#paint20_linear)"/>
<path d="M278.44 238.483L279.248 246.749L287.359 248.534L279.748 251.857L280.556 260.123L275.043 253.911L267.432 257.234L271.636 250.072L266.124 243.859L274.235 245.645L278.44 238.483Z" fill="url(#paint21_linear)"/>
<path d="M336.377 23.2895L337.185 31.5555L345.296 33.3411L337.684 36.6642L338.493 44.9302L332.98 38.7179L325.368 42.0409L329.573 34.8785L324.061 28.6662L332.172 30.4519L336.377 23.2895Z" fill="url(#paint22_linear)"/>
<path d="M212.227 90.5373L213.035 98.8033L221.146 100.589L213.534 103.912L214.343 112.178L208.83 105.966L201.218 109.289L205.423 102.126L199.911 95.9141L208.022 97.6997L212.227 90.5373Z" fill="url(#paint23_linear)"/>
<path d="M487.426 94.6756L488.234 102.942L496.345 104.727L488.733 108.05L489.542 116.316L484.029 110.104L476.417 113.427L480.622 106.265L475.11 100.052L483.221 101.838L487.426 94.6756Z" fill="url(#paint24_linear)"/>
<path d="M447.077 588.171L447.885 596.437L455.996 598.223L448.384 601.546L449.193 609.812L443.68 603.6L436.069 606.923L440.273 599.76L434.761 593.548L442.872 595.334L447.077 588.171Z" fill="url(#paint25_linear)"/>
<path d="M322.927 578.86L323.735 587.126L331.846 588.912L324.235 592.235L325.043 600.501L319.53 594.289L311.919 597.612L316.123 590.449L310.611 584.237L318.722 586.023L322.927 578.86Z" fill="url(#paint26_linear)"/>
<path d="M380.864 363.667L381.672 371.933L389.783 373.719L382.171 377.042L382.98 385.308L377.467 379.095L369.855 382.418L374.06 375.256L368.548 369.044L376.659 370.829L380.864 363.667Z" fill="url(#paint27_linear)"/>
<path d="M256.714 430.915L257.522 439.181L265.633 440.966L258.021 444.29L258.83 452.556L253.317 446.343L245.705 449.666L249.91 442.504L244.398 436.292L252.509 438.077L256.714 430.915Z" fill="url(#paint28_linear)"/>
<path d="M531.913 435.053L532.721 443.319L540.832 445.105L533.22 448.428L534.029 456.694L528.516 450.482L520.904 453.805L525.109 446.642L519.597 440.43L527.708 442.216L531.913 435.053Z" fill="url(#paint29_linear)"/>
<path d="M784.351 588.171L785.159 596.437L793.27 598.223L785.658 601.546L786.467 609.812L780.954 603.6L773.342 606.923L777.547 599.76L772.035 593.548L780.146 595.334L784.351 588.171Z" fill="url(#paint30_linear)"/>
<path d="M660.201 578.86L661.009 587.126L669.12 588.912L661.508 592.235L662.317 600.501L656.804 594.289L649.192 597.612L653.397 590.449L647.885 584.237L655.996 586.023L660.201 578.86Z" fill="url(#paint31_linear)"/>
<path d="M718.137 363.667L718.946 371.933L727.057 373.719L719.445 377.042L720.253 385.308L714.741 379.095L707.129 382.418L711.334 375.256L705.821 369.044L713.933 370.829L718.137 363.667Z" fill="url(#paint32_linear)"/>
<path d="M593.987 430.915L594.796 439.181L602.907 440.966L595.295 444.29L596.103 452.556L590.591 446.343L582.979 449.666L587.184 442.504L581.671 436.292L589.783 438.077L593.987 430.915Z" fill="url(#paint33_linear)"/>
<path d="M869.186 377.117L869.994 385.383L878.106 387.168L870.494 390.491L871.302 398.757L865.79 392.545L858.178 395.868L862.383 388.706L856.87 382.493L864.981 384.279L869.186 377.117Z" fill="url(#paint34_linear)"/>
<path d="M1120.59 601.621L1121.4 609.887L1129.51 611.673L1121.9 614.996L1122.71 623.262L1117.19 617.049L1109.58 620.372L1113.79 613.21L1108.27 606.998L1116.39 608.783L1120.59 601.621Z" fill="url(#paint35_linear)"/>
<path d="M996.44 592.31L997.248 600.576L1005.36 602.361L997.748 605.684L998.556 613.95L993.043 607.738L985.432 611.061L989.636 603.899L984.124 597.686L992.235 599.472L996.44 592.31Z" fill="url(#paint36_linear)"/>
<path d="M1054.38 377.117L1055.18 385.383L1063.3 387.168L1055.68 390.491L1056.49 398.757L1050.98 392.545L1043.37 395.868L1047.57 388.706L1042.06 382.493L1050.17 384.279L1054.38 377.117Z" fill="url(#paint37_linear)"/>
<path d="M930.227 444.364L931.035 452.63L939.146 454.416L931.534 457.739L932.343 466.005L926.83 459.793L919.218 463.116L923.423 455.953L917.911 449.741L926.022 451.527L930.227 444.364Z" fill="url(#paint38_linear)"/>
<path d="M1205.43 448.503L1206.23 456.769L1214.34 458.554L1206.73 461.877L1207.54 470.143L1202.03 463.931L1194.42 467.254L1198.62 460.092L1193.11 453.879L1201.22 455.665L1205.43 448.503Z" fill="url(#paint39_linear)"/>
<path d="M1151.63 238.483L1152.44 246.749L1160.55 248.534L1152.93 251.857L1153.74 260.123L1148.23 253.911L1140.62 257.234L1144.82 250.072L1139.31 243.859L1147.42 245.645L1151.63 238.483Z" fill="url(#paint40_linear)"/>
<path d="M1027.48 229.171L1028.29 237.437L1036.4 239.223L1028.79 242.546L1029.59 250.812L1024.08 244.6L1016.47 247.923L1020.67 240.76L1015.16 234.548L1023.27 236.334L1027.48 229.171Z" fill="url(#paint41_linear)"/>
<path d="M1085.41 13.9782L1086.22 22.2442L1094.33 24.0299L1086.72 27.3529L1087.53 35.6189L1082.02 29.4067L1074.41 32.7297L1078.61 25.5673L1073.1 19.355L1081.21 21.1406L1085.41 13.9782Z" fill="url(#paint42_linear)"/>
<path d="M961.264 81.226L962.072 89.4921L970.183 91.2777L962.572 94.6008L963.38 102.867L957.867 96.6545L950.256 99.9775L954.46 92.8151L948.948 86.6028L957.059 88.3885L961.264 81.226Z" fill="url(#paint43_linear)"/>
<path d="M1236.46 85.3644L1237.27 93.6304L1245.38 95.4161L1237.77 98.7391L1238.58 107.005L1233.07 100.793L1225.45 104.116L1229.66 96.9534L1224.15 90.7411L1232.26 92.5268L1236.46 85.3644Z" fill="url(#paint44_linear)"/>
<path d="M524.345 113.119L525.153 121.385L533.264 123.17L525.652 126.493L526.461 134.759L520.948 128.547L513.336 131.87L517.541 124.708L512.029 118.495L520.14 120.281L524.345 113.119Z" fill="url(#paint45_linear)"/>
<rect x="3" width="1277" height="718" fill="url(#paint46_linear)"/>
<rect x="3" width="1277" height="720" fill="url(#paint47_linear)"/>
<path d="M1013.84 470.407C1013.84 470.407 1006.06 406.115 1054.82 444.973C1103.57 483.83 1107.03 527.926 1037.15 582.035L1030.79 610.295L812.456 623.013V582.035C806.603 507.158 808.855 462.588 832.241 456.983C948.269 414.242 944.902 463.538 1013.84 470.407Z" fill="#66370B"/>
<mask id="mask0" mask-type="alpha" maskUnits="userSpaceOnUse" x="809" y="432" width="282" height="192">
<path d="M1013.84 470.407C1013.84 470.407 1006.06 406.115 1054.82 444.973C1103.57 483.83 1107.03 527.926 1037.15 582.035L1030.79 610.295L812.456 623.013V582.035C806.603 507.158 808.855 462.588 832.241 456.983C948.269 414.242 944.902 463.538 1013.84 470.407Z" fill="#7A400B"/>
</mask>
<g mask="url(#mask0)">
<path d="M1006.28 462.397C1006.28 462.397 998.512 398.105 1047.27 436.963C1096.02 475.821 1099.48 519.916 1029.6 574.026L1023.24 602.286L804.905 615.003V574.026C799.052 499.149 801.304 454.579 824.69 448.974C940.718 406.232 937.351 455.528 1006.28 462.397Z" fill="#7A400B"/>
<path d="M977.657 351.007C1025.99 476.124 1042.66 497.961 1013.69 533.286C984.723 568.611 870.962 563.666 860.363 533.286C849.764 502.906 867.259 422.641 892.866 351.007H977.657Z" fill="#66370B"/>
<path d="M883.468 536.056C857.967 575.711 851.48 600.799 852.879 650.487L737.558 633.428L768.682 607.981C801.243 493.587 820.775 442.205 864.135 435.545L949.815 467.066L883.468 536.056Z" fill="#522D0B"/>
<path d="M977.138 357.314C1018.34 390.429 1070.25 438 1062.53 452.038C1054.75 466.168 1034.97 466.168 999.639 492.309L977.138 357.314Z" fill="#66370B"/>
</g>
<path d="M1044.22 532.576C1044.94 511.769 1050.58 502.196 1054.82 504.315C1059.06 506.435 1057.99 516.824 1044.22 532.576Z" fill="#2F1906"/>
<path d="M1044.22 532.576C1063.3 518.446 1060.54 484.415 1071.07 491.602C1081.6 498.79 1056.26 535.536 1037.43 542.471C1039.62 539.422 1041.87 536.131 1044.22 532.576Z" fill="#2F1906"/>
<path d="M982.039 580.618C1007.14 575.049 1020.57 565.885 1037.43 542.471M1044.22 532.576C1044.94 511.769 1050.58 502.196 1054.82 504.315C1059.06 506.435 1057.99 516.824 1044.22 532.576ZM1044.22 532.576C1063.3 518.446 1060.54 484.415 1071.07 491.602C1081.6 498.79 1056.26 535.536 1037.43 542.471M1044.22 532.576C1041.87 536.131 1039.62 539.422 1037.43 542.471" stroke="#2F1906"/>
<path d="M1045.63 535.402C1046.35 514.595 1051.99 505.022 1056.23 507.141C1060.47 509.261 1059.4 519.65 1045.63 535.402Z" fill="#522D0B"/>
<path d="M1045.63 535.402C1064.71 521.272 1061.95 487.241 1072.48 494.428C1083.02 501.616 1057.68 538.362 1038.84 545.297C1041.03 542.248 1043.29 538.957 1045.63 535.402Z" fill="#522D0B"/>
<path d="M983.452 583.444C1008.55 577.875 1021.98 568.711 1038.84 545.297M1045.63 535.402C1046.35 514.595 1051.99 505.022 1056.23 507.141C1060.47 509.261 1059.4 519.65 1045.63 535.402ZM1045.63 535.402C1064.71 521.272 1061.95 487.241 1072.48 494.428C1083.02 501.616 1057.68 538.362 1038.84 545.297M1045.63 535.402C1043.29 538.957 1041.03 542.248 1038.84 545.297" stroke="#522D0B"/>
<path d="M879.583 480.298C879.583 480.298 830.828 473.939 826.588 454.157C822.349 434.375 848.568 395.72 866.864 369.376L917.739 372.909L879.583 480.298Z" fill="#2A3F18"/>
<mask id="mask1" mask-type="alpha" maskUnits="userSpaceOnUse" x="826" y="369" width="92" height="112">
<path d="M879.583 480.298C879.583 480.298 830.828 473.939 826.588 454.157C822.349 434.375 848.568 395.72 866.864 369.376L917.739 372.909L879.583 480.298Z" fill="#385222"/>
</mask>
<g mask="url(#mask1)">
<path d="M878.626 482.418C878.626 482.418 829.871 476.059 825.632 456.277C821.392 436.495 847.611 397.84 865.907 371.496L916.782 375.028L878.626 482.418Z" fill="#253419"/>
</g>
<path d="M976.495 348.129C1017.7 381.244 1069.6 428.816 1061.88 442.853C1054.11 456.983 1034.33 456.983 998.996 483.124L976.495 348.129Z" fill="#385222"/>
<mask id="mask2" mask-type="alpha" maskUnits="userSpaceOnUse" x="976" y="348" width="87" height="136">
<path d="M976.495 348.129C1017.7 381.244 1069.6 428.816 1061.88 442.853C1054.11 456.983 1034.33 456.983 998.996 483.124L976.495 348.129Z" fill="#385222"/>
</mask>
<g mask="url(#mask2)">
<path d="M988.3 335.303C1017.25 383.663 1051.8 451.035 1039.73 464.28C1027.57 477.613 1008.45 471.915 965.714 490.546L988.3 335.303Z" fill="#324620"/>
</g>
<path d="M977.799 343.942C1026.13 469.059 1042.81 490.896 1013.83 526.221C984.865 561.546 871.103 556.601 860.504 526.221C849.906 495.841 867.401 415.576 893.008 343.942H977.799Z" fill="#2A3F18"/>
<mask id="mask3" mask-type="alpha" maskUnits="userSpaceOnUse" x="857" y="344" width="172" height="207">
<path d="M978.292 344.648C1026.69 469.37 1043.39 491.138 1014.38 526.352C985.368 561.566 871.445 556.636 860.831 526.352C850.218 496.068 867.737 416.056 893.381 344.648H978.292Z" fill="#141E0C"/>
</mask>
<g mask="url(#mask3)">
<path d="M1035.31 329.852C1050.36 503.515 1061.08 535.423 1023.47 576.189C985.847 616.956 875.365 588.399 872.827 546.452C870.289 504.505 908.283 402.502 952.009 313.407L1035.31 329.852Z" fill="#385222"/>
</g>
<path d="M974.973 305.084C983.807 316.796 985.808 325.045 982.038 343.942C947.194 375.173 924.565 379.832 876.756 357.366C869.871 328.881 868.557 316.299 874.637 305.084C921.374 276.762 937.238 299.65 974.973 305.084Z" fill="#FAEE30"/>
<mask id="mask4" mask-type="alpha" maskUnits="userSpaceOnUse" x="870" y="291" width="114" height="81">
<path d="M974.973 305.084C983.807 316.796 985.808 325.045 982.038 343.942C947.194 375.173 924.565 379.832 876.756 357.366C869.871 328.881 868.557 316.299 874.637 305.084C921.374 276.762 937.238 299.65 974.973 305.084Z" fill="#FAEE30"/>
</mask>
<g mask="url(#mask4)">
<path d="M978.385 311.442C979.707 319.003 979.924 323.417 978.385 331.931C961.544 346.364 951.985 354.394 919.032 360.192L875.223 348.181C914.699 386.934 938.867 382.498 984.038 348.181C987.409 328.992 985.087 321.89 978.385 311.442Z" fill="#E7D905"/>
<path d="M975.281 261.742C984.116 273.453 986.116 281.703 982.347 300.599C947.503 331.83 924.873 336.489 877.065 314.023C870.179 285.539 868.866 272.956 874.945 261.742C921.682 233.419 937.546 256.307 975.281 261.742Z" fill="#E7D905"/>
</g>
<path d="M806.804 306.498C832.948 310.031 890.798 340.136 903.607 322.747L938.936 312.856L863.331 356.773L762.995 369.376L677.498 423.071H658.42C665.154 414.745 670.853 409.66 677.683 405.122C682.043 402.898 686.973 399.978 693.043 396.223C687.047 399.452 682.126 402.171 677.683 405.122C670.56 408.757 664.963 410.534 658.42 411.06L653.473 403.289C681.94 396.131 689.567 388.787 708.588 377.854C692.882 386.787 684.07 391.655 668.312 396.223V388.452L707.174 369.376L651.354 393.397V381.387C668.853 376.117 680.482 371.029 701.522 361.605C675.922 372.887 661.766 378.302 637.928 381.387L631.569 372.909C661.943 367.937 672.75 363.5 686.543 357.819C690.71 356.222 695.162 354.423 700.108 352.42C694.941 354.358 690.612 356.143 686.543 357.819C672.415 363.234 661.552 366.337 645.701 367.257V357.366C656.771 357.249 668.5 353.815 687.39 348.181L645.701 357.366C641.941 357.405 638.258 356.539 634.396 355.953C634.881 350.479 632.997 347.813 623.797 344.142C666.83 348.157 686.26 347.305 703.641 336.878C721.306 326.281 780.66 302.965 806.804 306.498Z" fill="#FAEE30"/>
<mask id="mask5" mask-type="alpha" maskUnits="userSpaceOnUse" x="623" y="306" width="316" height="118">
<path d="M806.804 306.498C832.948 310.031 890.798 340.136 903.607 322.747L938.936 312.856L863.331 356.773L762.995 369.376L677.498 423.071H658.42C665.154 414.745 670.853 409.66 677.683 405.122C682.043 402.898 686.973 399.978 693.043 396.223C687.047 399.452 682.126 402.171 677.683 405.122C670.56 408.757 664.963 410.534 658.42 411.06L653.473 403.289C681.94 396.131 689.567 388.787 708.588 377.854C692.882 386.787 684.07 391.655 668.312 396.223V388.452L707.174 369.376L651.354 393.397V381.387C668.853 376.117 680.482 371.029 701.522 361.605C675.922 372.887 661.766 378.302 637.928 381.387L631.569 372.909C661.943 367.937 672.75 363.5 686.543 357.819C690.71 356.222 695.162 354.423 700.108 352.42C694.941 354.358 690.612 356.143 686.543 357.819C672.415 363.234 661.552 366.337 645.701 367.257V357.366C656.771 357.249 668.5 353.815 687.39 348.181L645.701 357.366C641.941 357.405 638.258 356.539 634.396 355.953C634.881 350.479 632.997 347.813 623.797 344.142C666.83 348.157 686.26 347.305 703.641 336.878C721.306 326.281 780.66 302.965 806.804 306.498Z" fill="#E7D905"/>
</mask>
<g mask="url(#mask5)">
<path d="M806.804 310.391C832.948 313.924 890.798 344.029 903.607 326.64L938.936 316.749L863.331 360.667L762.995 373.269L677.498 426.964H658.42C665.154 418.638 670.853 413.553 677.683 409.015C682.043 406.791 686.973 403.871 693.043 400.117C687.047 403.345 682.126 406.064 677.683 409.015C670.56 412.65 664.963 414.427 658.42 414.953L653.473 407.182C681.94 400.025 689.567 392.68 708.588 381.747C692.882 390.68 684.07 395.548 668.312 400.117V392.345L707.174 373.269L651.354 397.291V385.28C668.853 380.01 680.482 374.922 701.522 365.498C675.922 376.78 661.766 382.195 637.928 385.28L631.569 376.802C661.943 371.83 672.75 367.394 686.543 361.712C690.71 360.115 695.162 358.316 700.108 356.313C694.941 358.251 690.612 360.036 686.543 361.712C672.415 367.127 661.552 370.23 645.701 371.15V361.259C656.771 361.142 668.5 357.708 687.39 352.074L645.701 361.259C641.941 361.298 638.258 360.432 634.396 359.846C634.881 354.372 632.997 351.706 623.797 348.035C666.83 352.05 686.26 351.198 703.641 340.771C721.306 330.174 780.66 306.858 806.804 310.391Z" fill="#E7D905"/>
</g>
<path d="M957.308 311.443C905.726 336.171 937.523 356.659 905.726 375.029C873.93 393.398 799.031 426.604 770.768 473.233C743.186 508.428 729.704 519.184 708.588 524.808L684.563 521.276C703.065 520.807 711.94 512.684 726.252 490.189C708.23 505.052 698.339 511.737 681.737 515.624L672.551 508.559C694.029 510.712 702.465 500.121 716.36 477.472C701.228 492.851 692.849 499.198 678.204 504.32H657.713C666.66 503.544 676.946 492.152 698.695 464.755C685.124 469.845 676.883 474.608 659.833 490.189L650.647 481.711C662.015 478.187 667.962 471.552 678.204 455.571C695.784 448.48 708.588 426.604 702.935 426.604C697.282 426.604 686.423 439.264 678.204 455.571L642.168 473.233L632.276 464.755C664.009 467.498 660.539 462.636 702.935 392.691C745.33 322.747 828.708 341.116 875.343 334.758C921.978 328.399 911.379 319.214 926.218 314.269L957.308 311.443Z" fill="#FAEE30"/>
<mask id="mask6" mask-type="alpha" maskUnits="userSpaceOnUse" x="632" y="311" width="326" height="214">
<path d="M957.308 311.443C905.726 336.171 937.523 356.659 905.726 375.029C873.93 393.398 799.031 426.604 770.768 473.233C743.186 508.428 729.704 519.184 708.588 524.808L684.563 521.276C703.065 520.807 711.94 512.684 726.252 490.189C708.23 505.052 698.339 511.737 681.737 515.624L672.551 508.559C694.029 510.712 702.465 500.121 716.36 477.472C701.228 492.851 692.849 499.198 678.204 504.32H657.713C666.66 503.544 676.946 492.152 698.695 464.755C685.124 469.845 676.883 474.608 659.833 490.189L650.647 481.711C662.015 478.187 667.962 471.552 678.204 455.571C695.784 448.48 708.588 426.604 702.935 426.604C697.282 426.604 686.423 439.264 678.204 455.571L642.168 473.233L632.276 464.755C664.009 467.498 660.539 462.636 702.935 392.691C745.33 322.747 828.708 341.116 875.343 334.758C921.978 328.399 911.379 319.214 926.218 314.269L957.308 311.443Z" fill="#FAEE30"/>
</mask>
<g mask="url(#mask6)">
<path d="M960.134 317.095C908.553 341.823 940.349 362.312 908.553 380.681C876.756 399.05 801.858 432.256 773.594 478.886C746.013 514.08 732.53 524.837 711.414 530.461L687.39 526.928C705.891 526.459 714.767 518.337 729.079 495.842C711.056 510.705 701.165 517.389 684.563 521.276L675.378 514.211C696.855 516.365 705.292 505.773 719.186 483.125C704.055 498.503 695.675 504.851 681.031 509.972H660.539C669.486 509.196 679.772 497.804 701.522 470.408C687.951 475.498 679.709 480.261 662.659 495.842L653.473 487.364C664.842 483.839 670.789 477.205 681.031 461.223C698.611 454.132 711.414 432.256 705.761 432.256C700.108 432.256 689.249 444.916 681.031 461.223L644.994 478.886L635.102 470.408C666.835 473.15 663.366 468.288 705.761 398.344C748.157 328.399 831.534 346.768 878.169 340.41C924.804 334.052 914.206 324.866 929.044 319.921L960.134 317.095Z" fill="#E7D905"/>
</g>
<path d="M994.835 246.444C998.533 274.56 999.618 289.348 976.464 290.954L959.52 271.868L994.835 246.444Z" fill="#FFC786"/>
<path d="M867.571 291.66C850.916 286.329 843.462 281.629 845.666 259.161L876.05 252.802L883.116 288.128L867.571 291.66Z" fill="#FFC786"/>
<path d="M988.397 233.727C1001.51 212.418 995.463 206.173 977.799 197.695C960.19 189.243 967.506 176.023 977.701 157.599L977.799 157.424C957.342 167.134 946.666 165.456 929.044 149.652C925.086 174.244 896.541 180.738 864.038 144C885.235 180.032 874.16 188.005 854.852 184.271C856.015 211.572 850.612 213.944 828.001 213.944C842.887 227.085 847.419 236.463 842.84 259.867C865.686 263.066 870.006 271.512 864.038 297.312C881.352 298.133 890.167 300.493 900.074 317.095C925.353 299.002 951.655 324.866 994.05 297.312C967.773 292.421 969.356 283.635 994.05 259.867C993.295 244.839 997.819 238.036 1008.18 226.661L988.397 233.727Z" fill="#FFAE1A"/>
<path d="M988.397 233.727C1001.51 212.418 995.463 206.173 977.799 197.695C960.19 189.243 967.506 176.023 977.701 157.599L977.799 157.424C957.342 167.134 946.666 165.456 929.044 149.652C925.086 174.244 896.541 180.738 864.038 144C885.235 180.032 874.16 188.005 854.852 184.271C856.015 211.572 850.612 213.944 828.001 213.944C842.887 227.085 847.419 236.463 842.84 259.867C865.686 263.066 870.006 271.512 864.038 297.312C881.352 298.133 890.167 300.493 900.074 317.095C925.353 299.002 951.655 324.866 994.05 297.312C967.773 292.421 969.356 283.635 994.05 259.867C993.295 244.839 997.819 238.036 1008.18 226.661L988.397 233.727Z" fill="#FFAE1A"/>
<mask id="mask7" mask-type="alpha" maskUnits="userSpaceOnUse" x="828" y="153" width="181" height="174">
<path d="M988.397 242.911C1001.51 221.602 995.463 215.357 977.799 206.879C960.19 198.428 967.506 185.208 977.701 166.784L977.799 166.608C957.342 176.319 946.666 174.64 929.044 158.837C925.086 183.428 896.541 189.923 864.038 153.185C885.235 189.217 874.16 197.19 854.852 193.456C856.015 220.757 850.612 223.129 828.001 223.129C842.887 236.269 847.419 245.648 842.84 269.052C865.686 272.251 870.006 280.697 864.038 306.497C881.352 307.317 890.167 309.677 900.074 326.279C925.353 308.186 951.655 334.051 994.05 306.497C967.773 301.605 969.356 292.82 994.05 269.052C993.295 254.024 997.819 247.221 1008.18 235.846L988.397 242.911Z" fill="#FFAE1A"/>
<path d="M988.397 242.911C1001.51 221.602 995.463 215.357 977.799 206.879C960.19 198.428 967.506 185.208 977.701 166.784L977.799 166.608C957.342 176.319 946.666 174.64 929.044 158.837C925.086 183.428 896.541 189.923 864.038 153.185C885.235 189.217 874.16 197.19 854.852 193.456C856.015 220.757 850.612 223.129 828.001 223.129C842.887 236.269 847.419 245.648 842.84 269.052C865.686 272.251 870.006 280.697 864.038 306.497C881.352 307.317 890.167 309.677 900.074 326.279C925.353 308.186 951.655 334.051 994.05 306.497C967.773 301.605 969.356 292.82 994.05 269.052C993.295 254.024 997.819 247.221 1008.18 235.846L988.397 242.911Z" fill="#FFAE1A"/>
</mask>
<g mask="url(#mask7)">
<path d="M988.397 234.432C1001.51 213.123 995.463 206.878 977.799 198.4C960.19 189.949 967.506 176.729 977.701 158.305L977.799 158.129C957.342 167.84 946.666 166.161 929.044 150.358C925.086 174.949 896.541 181.444 864.038 144.706C885.235 180.737 874.16 188.711 854.852 184.976C856.015 212.277 850.612 214.65 828.001 214.65C842.887 227.79 847.419 237.168 842.84 260.573C865.686 263.771 870.006 272.218 864.038 298.018C881.352 298.838 890.167 301.198 900.074 317.8C925.353 299.707 951.655 325.572 994.05 298.018C967.773 293.126 969.356 284.341 994.05 260.573C993.295 245.545 997.819 238.742 1008.18 227.367L988.397 234.432Z" fill="#E1960A"/>
<path d="M988.397 234.432C1001.51 213.123 995.463 206.878 977.799 198.4C960.19 189.949 967.506 176.729 977.701 158.305L977.799 158.129C957.342 167.84 946.666 166.161 929.044 150.358C925.086 174.949 896.541 181.444 864.038 144.706C885.235 180.737 874.16 188.711 854.852 184.976C856.015 212.277 850.612 214.65 828.001 214.65C842.887 227.79 847.419 237.168 842.84 260.573C865.686 263.771 870.006 272.218 864.038 298.018C881.352 298.838 890.167 301.198 900.074 317.8C925.353 299.707 951.655 325.572 994.05 298.018C967.773 293.126 969.356 284.341 994.05 260.573C993.295 245.545 997.819 238.742 1008.18 227.367L988.397 234.432Z" fill="#E1960A"/>
</g>
<path d="M1145.26 399.049C1112.45 442.283 1097.11 486.78 1073.9 594.046V620.893L1230.05 604.643C1222.67 539.935 1205.88 423.847 1185.54 399.049H1145.26Z" fill="#B8400C"/>
<mask id="mask8" mask-type="alpha" maskUnits="userSpaceOnUse" x="1073" y="399" width="158" height="222">
<path d="M1145.26 399.049C1112.45 442.283 1097.11 486.78 1073.9 594.046V620.893L1230.05 604.643C1222.67 539.935 1205.88 423.847 1185.54 399.049H1145.26Z" fill="#CD4C14"/>
</mask>
<g mask="url(#mask8)">
<path d="M1153.74 399.049C1120.93 442.283 1105.59 486.78 1082.37 594.046V620.893L1238.53 604.643C1231.15 539.935 1214.36 423.847 1194.02 399.049H1153.74Z" fill="#CD4C14"/>
<path d="M1214.51 257.041C1209.56 252.096 1201.08 276.117 1201.08 276.117L1192.6 296.606C1174.23 302.964 1170.79 304.68 1153.03 296.606L1152.98 295.853C1151.42 272.013 1150.1 252.096 1140.31 252.096C1130.42 252.096 1121.24 324.16 1121.24 339.703C1121.24 355.246 1097.92 355.952 1097.92 370.789C1097.92 385.626 1130.42 413.886 1161.51 413.886C1192.6 413.886 1238.53 389.158 1238.53 379.974C1238.53 370.789 1219.45 367.257 1219.45 351.713C1219.45 336.17 1219.45 261.987 1214.51 257.041Z" fill="#B8400C"/>
</g>
<path d="M1151.62 612.415C1160.64 530.489 1111.34 507.145 1056.94 499.374C1002.53 491.602 928.338 514.917 907.14 422.364C898.205 447.196 899.035 461.117 907.14 485.95C901.035 481.855 897.174 473.895 890.181 458.396C892.017 557.077 915.118 584.903 986.984 607.469L1151.62 612.415Z" fill="#E14E0E"/>
<mask id="mask9" mask-type="alpha" maskUnits="userSpaceOnUse" x="890" y="422" width="263" height="191">
<path d="M1151.62 612.415C1160.64 530.489 1111.34 507.145 1056.94 499.374C1002.53 491.602 928.338 514.917 907.14 422.364C898.205 447.196 899.035 461.117 907.14 485.95C901.035 481.855 897.174 473.895 890.181 458.396C892.017 557.077 915.118 584.903 986.984 607.469L1151.62 612.415Z" fill="#B8400C"/>
</mask>
<g mask="url(#mask9)">
<path d="M1155.86 627.252C1164.88 545.326 1115.58 521.982 1061.18 514.21C1006.77 506.439 932.577 529.753 911.379 437.201C902.445 462.033 903.274 475.954 911.379 500.787C905.275 496.692 901.414 488.732 894.421 473.233C896.257 571.913 919.358 599.74 991.224 622.306L1155.86 627.252Z" fill="#B8400C"/>
</g>
<path d="M1214.51 249.27C1209.56 244.324 1201.08 268.345 1201.08 268.345L1192.6 288.834C1174.23 295.193 1170.79 296.908 1153.03 288.834L1152.98 288.082C1151.42 264.242 1150.1 244.324 1140.31 244.324C1130.42 244.324 1121.24 316.388 1121.24 331.931C1121.24 347.474 1097.92 348.181 1097.92 363.017C1097.92 377.854 1130.42 406.114 1161.51 406.114C1192.6 406.114 1238.53 381.387 1238.53 372.202C1238.53 363.017 1219.45 359.485 1219.45 343.942C1219.45 328.399 1219.45 254.215 1214.51 249.27Z" fill="#B8400C"/>
<mask id="mask10" mask-type="alpha" maskUnits="userSpaceOnUse" x="1097" y="244" width="142" height="163">
<path d="M1214.51 249.27C1209.56 244.324 1201.08 268.345 1201.08 268.345L1192.6 288.834C1174.23 295.193 1170.79 296.908 1153.03 288.834L1152.98 288.082C1151.42 264.242 1150.1 244.324 1140.31 244.324C1130.42 244.324 1121.24 316.388 1121.24 331.931C1121.24 347.474 1097.92 348.181 1097.92 363.017C1097.92 377.854 1130.42 406.114 1161.51 406.114C1192.6 406.114 1238.53 381.387 1238.53 372.202C1238.53 363.017 1219.45 359.485 1219.45 343.942C1219.45 328.399 1219.45 254.215 1214.51 249.27Z" fill="#E14E0E"/>
</mask>
<g mask="url(#mask10)">
<path d="M1225.81 249.976C1220.87 245.031 1212.39 269.052 1212.39 269.052L1203.91 289.541C1185.54 295.899 1182.1 297.615 1164.34 289.541L1164.29 288.788C1162.72 264.948 1161.41 245.031 1151.62 245.031C1141.73 245.031 1132.54 317.095 1132.54 332.638C1132.54 348.181 1109.22 348.887 1109.22 363.724C1109.22 378.561 1141.73 406.821 1172.82 406.821C1203.91 406.821 1249.84 382.093 1249.84 372.909C1249.84 363.724 1230.76 360.192 1230.76 344.648C1230.76 329.105 1230.76 254.922 1225.81 249.976Z" fill="#E14E0E"/>
</g>
<path d="M1214.51 500.787C1264.89 477.016 1270.13 495.916 1227.93 601.817L1214.51 500.787Z" fill="#CD4C14"/>
<mask id="mask11" mask-type="alpha" maskUnits="userSpaceOnUse" x="1214" y="491" width="43" height="111">
<path d="M1214.51 500.787C1264.89 477.016 1270.13 495.916 1227.93 601.817L1214.51 500.787Z" fill="#CD4C14"/>
</mask>
<g mask="url(#mask11)">
<path d="M1209.56 511.336C1259.94 487.565 1265.18 506.465 1222.99 612.366L1209.56 511.336Z" fill="#B8400C"/>
</g>
<path d="M932.736 464.252C936.206 451.831 944.371 407.239 943.179 392.691C936.988 403.663 931.419 449.107 932.736 464.252Z" fill="#218B10"/>
<path d="M958.284 535.254C963.163 525.374 977.125 487.104 972.149 483.124C963.838 475.236 955.269 517.272 958.284 535.254Z" fill="#218B10"/>
<path d="M1005.81 524.657C1026.33 501.101 1040.79 451.499 1047.05 423.07C1022.45 452.346 1006.16 503.468 1005.81 524.657Z" fill="#218B10"/>
<path d="M1149.07 536.219C1163.21 522.12 1178.42 474.046 1173.53 471.113C1168.45 468.067 1152.24 520.994 1149.07 536.219Z" fill="#218B10"/>
<path d="M1093.52 517.036C1095.33 510.136 1105.02 472.869 1110.64 466.874C1100.58 470.128 1092.92 508.994 1093.52 517.036Z" fill="#218B10"/>
<path fill-rule="evenodd" clip-rule="evenodd" d="M764.41 432.357C777.285 530.353 758.404 566.575 742.505 556.703C726.607 546.83 748.626 528.792 762.996 515.019C750.794 522.256 744.184 521.608 731.199 544.692C718.112 549.095 744.221 481.375 738.265 474.748C732.308 468.121 731.656 485.552 722.719 544.692C720.298 519.685 691.629 445.781 708.588 495.236C725.546 544.692 701.954 566.068 692.336 555.29C682.718 544.511 693.015 552.87 708.588 536.92C695.343 536.309 687.917 527.646 674.671 559.529C667.372 557.828 666.539 550.691 671.138 532.681C667.996 544.449 666.742 551.346 657.714 561.648C653.389 505.816 645.99 484.66 635.102 457.085C645.615 498.463 648.774 521.965 641.462 556.703C631.001 550.264 624.476 547.116 643.582 519.964C627.563 528.007 614.46 527.694 626.623 568.713C619.654 565.744 614.579 556.541 607.545 540.453C610.252 563.204 608.123 568.636 592 552.464V708.5H943.177H1353V560.942C1325.56 564.156 1313.1 555.491 1292.94 532.681C1303.9 546.06 1309.9 553.571 1308.48 568.007C1286.07 567.073 1277.12 563.109 1268.21 549.638C1268.21 573.659 1257.12 573.137 1242.77 546.105C1235.53 545.664 1232.3 547.499 1227.23 552.464C1231.76 529.45 1244.51 513.072 1279.51 479.693C1242.73 510.393 1225.96 526.284 1220.87 546.105L1212.39 544.692C1214.09 551.889 1214.57 555.685 1212.39 560.942C1196.75 571.488 1192.74 548.569 1189.07 486.758C1187.79 531.284 1185.47 545.235 1177.76 544.692C1176.69 538.642 1176.06 531.357 1175.65 522.084C1166.27 543.379 1155.86 558.116 1149.5 549.638C1147.71 547.252 1147.83 542.181 1149.07 536.219C1142.77 542.497 1135.56 548.364 1128.3 552.464C1122.76 555.174 1119.02 555.427 1110.64 552.464C1097.72 542.572 1120.58 530.634 1116.29 512.193C1100.04 520.671 1114.98 545.891 1096.51 549.638C1100.2 541.424 1094.35 528.198 1093.52 517.036C1091.92 523.146 1092.06 530.454 1094.39 540.453C1077.91 548.766 1068.83 549.564 1052.7 549.638C1083.47 514.199 1087.56 503.518 1091.56 486.758C1076.51 511.18 1067.37 521.51 1050.58 537.627C1048.1 523.973 1051.93 511.959 1063.3 486.758C1053.41 505.128 1037.1 518.272 1038.57 544.692C1032.84 534.82 1034.36 525.693 1040.93 509.267C1034.75 520.873 1024.8 524.036 1023.02 537.627V546.105C1022.64 542.355 1022.67 540.313 1023.02 537.627V515.019C1011.5 527.865 1006.96 536.048 1010.3 552.464C1007.25 542.318 1005.67 533.323 1005.81 524.657C1001.5 529.612 996.663 534.826 991.225 540.453C991.575 523.527 990.208 518.633 986.986 512.193C983.717 533.664 977.678 543.511 961.549 549.638C960.104 544.476 959.018 539.633 958.284 535.254C956.235 539.403 954.791 544.17 955.189 549.638C932.101 550.456 928.407 544.41 943.177 518.551C938.129 520.827 934.905 526.197 929.752 540.453C939.156 513.934 934.707 486.915 932.736 464.252C925.927 488.627 915.427 511.94 921.98 546.105C915.643 540.41 911.505 526.891 909.26 507.247C909.604 515.146 910.625 526.957 909.967 537.627C903.094 530.704 894.422 488.171 894.422 461.324C891.596 525.616 884.47 545.652 866.865 540.453C864.502 526.321 868.438 517.602 883.117 500.888C865.078 514.083 857.228 523.447 854.147 549.638C850.563 536.97 851.17 527.65 869.69 507.954C825.175 551.757 820.797 566.61 834.362 505.128C817.106 567.116 809.677 572.456 806.324 527.946C805.892 565.923 784.195 571.219 789.847 523.497C784.972 527.526 782.903 533.723 780.661 552.464C775.068 473.577 771.711 438.913 764.41 432.357ZM1267.73 605.306C1273.2 592.181 1280.99 581.684 1277.39 578.604C1274.49 576.116 1270.13 591.4 1267.73 605.306Z" fill="#218B10"/>
<path d="M1267.73 605.306C1273.2 592.181 1280.99 581.684 1277.39 578.604C1274.49 576.116 1270.13 591.4 1267.73 605.306Z" fill="#218B10"/>
<path d="M929.752 540.453C934.905 526.197 938.129 520.827 943.177 518.551C928.407 544.41 932.101 550.456 955.189 549.638C954.791 544.17 956.235 539.403 958.284 535.254M929.752 540.453C929.659 540.714 929.847 540.192 929.752 540.453ZM929.752 540.453C929.847 540.188 929.659 540.711 929.752 540.453ZM929.752 540.453C939.156 513.934 934.707 486.915 932.736 464.252M1194.72 538.231C1188.77 530.818 1179.73 555.776 1177.76 544.692M932.736 464.252C936.206 451.831 944.371 407.239 943.179 392.691C936.988 403.663 931.419 449.107 932.736 464.252ZM932.736 464.252C925.927 488.627 915.427 511.94 921.98 546.105C915.643 540.41 911.505 526.891 909.26 507.247M958.284 535.254C963.163 525.374 977.125 487.104 972.149 483.124C963.838 475.236 955.269 517.272 958.284 535.254ZM958.284 535.254C959.018 539.633 960.104 544.476 961.549 549.638C977.678 543.511 983.717 533.664 986.986 512.193C990.208 518.633 991.575 523.527 991.225 540.453C996.663 534.826 1001.5 529.612 1005.81 524.657M1005.81 524.657C1026.33 501.101 1040.79 451.499 1047.05 423.07C1022.45 452.346 1006.16 503.468 1005.81 524.657ZM1005.81 524.657C1005.67 533.323 1007.25 542.318 1010.3 552.464C1006.96 536.048 1011.5 527.865 1023.02 515.019V537.627M1149.07 536.219C1163.21 522.12 1178.42 474.046 1173.53 471.113C1168.45 468.067 1152.25 520.994 1149.07 536.219ZM1149.07 536.219C1147.83 542.181 1147.71 547.252 1149.5 549.638C1155.86 558.116 1166.27 543.379 1175.65 522.084C1176.06 531.357 1176.69 538.642 1177.76 544.692M1149.07 536.219C1142.77 542.497 1135.56 548.364 1128.3 552.464C1122.76 555.174 1119.02 555.427 1110.64 552.464C1097.72 542.572 1120.58 530.634 1116.29 512.193C1100.04 520.671 1114.98 545.891 1096.51 549.638C1100.2 541.424 1094.35 528.198 1093.52 517.036M1093.52 517.036C1095.33 510.136 1105.02 472.869 1110.64 466.874C1100.58 470.128 1092.92 508.994 1093.52 517.036ZM1093.52 517.036C1091.92 523.146 1092.06 530.454 1094.39 540.453C1077.91 548.766 1068.83 549.564 1052.7 549.638C1083.47 514.199 1087.56 503.518 1091.56 486.758C1076.51 511.18 1067.37 521.51 1050.58 537.627C1048.1 523.973 1051.93 511.959 1063.3 486.758C1053.41 505.128 1037.1 518.272 1038.57 544.692C1032.84 534.82 1034.36 525.693 1040.93 509.267M1040.93 509.267C1034.75 520.873 1024.8 524.036 1023.02 537.627M1040.93 509.267C1041.72 507.291 1048.23 473.314 1049.17 471.113C1048.43 473.489 1041.9 507.444 1040.93 509.267ZM1023.02 537.627V546.105C1022.64 542.355 1022.67 540.313 1023.02 537.627ZM909.26 507.247C909.604 515.146 910.625 526.957 909.967 537.627C903.094 530.704 894.422 488.171 894.422 461.324C891.596 525.616 884.47 545.652 866.865 540.453C864.502 526.321 868.438 517.602 883.117 500.888C865.078 514.083 857.228 523.447 854.147 549.638C850.563 536.97 851.17 527.65 869.69 507.954C825.175 551.757 820.797 566.61 834.362 505.128C817.106 567.116 809.677 572.456 806.324 527.946M909.26 507.247C908.298 498.841 914.173 459.907 913.346 447.798C914.32 458.184 908.783 496.311 909.26 507.247ZM806.324 527.946C805.892 565.923 784.195 571.219 789.847 523.497C784.972 527.526 782.903 533.723 780.661 552.464C775.068 473.577 771.711 438.913 764.41 432.357C777.285 530.353 758.404 566.575 742.505 556.703C726.607 546.83 748.626 528.792 762.996 515.019C750.794 522.256 744.184 521.608 731.199 544.692C718.112 549.095 744.221 481.375 738.265 474.748C732.308 468.121 731.656 485.552 722.719 544.692C720.298 519.685 691.629 445.781 708.588 495.236C725.546 544.692 701.954 566.068 692.336 555.29C682.718 544.511 693.015 552.87 708.588 536.92C695.343 536.309 687.917 527.646 674.671 559.529C667.372 557.828 666.539 550.691 671.138 532.681M806.324 527.946C806.378 523.193 811.753 486.034 811.046 480.298C811.316 486.099 805.97 523.248 806.324 527.946ZM1177.76 544.692C1185.47 545.235 1187.79 531.284 1189.07 486.758C1192.74 548.569 1196.75 571.488 1212.39 560.942C1214.57 555.685 1214.09 551.889 1212.39 544.692L1220.87 546.105C1225.96 526.284 1242.73 510.393 1279.51 479.693C1244.51 513.072 1231.76 529.45 1227.23 552.464C1232.3 547.499 1235.53 545.664 1242.77 546.105C1257.12 573.137 1268.21 573.659 1268.21 549.638C1277.12 563.109 1286.07 567.073 1308.48 568.007C1309.9 553.571 1303.9 546.06 1292.94 532.681C1313.1 555.491 1325.56 564.156 1353 560.942V708.5H943.177H592V552.464C608.123 568.636 610.252 563.204 607.545 540.453C614.579 556.541 619.654 565.744 626.623 568.713C614.46 527.694 627.563 528.007 643.582 519.964C624.476 547.116 631.001 550.264 641.462 556.703C648.774 521.965 645.615 498.463 635.102 457.085C645.99 484.66 653.389 505.816 657.714 561.648C666.742 551.346 667.996 544.449 671.138 532.681M671.138 532.681C671.788 530.25 679.581 494.378 680.325 491.602C679.573 494.374 671.757 530.259 671.138 532.681ZM606.133 579.209C620.417 574.662 628.465 577.151 642.877 589.1V574.263L632.277 557.307C641.343 561.276 645.478 565.286 649.236 579.209C652.532 567.321 656.507 561.973 666.9 554.481C657.618 565.273 654.957 570.605 653.475 579.209C670.79 573.637 663.368 589.1 695.164 583.448M987.692 569.318C991.386 564.958 988.98 559.928 983.453 550.242C989.393 559.591 992.735 564.578 998.998 566.492V572.85C1001.25 557.065 1004.86 551.476 1014.54 546.003M1004.65 572.85L1004.92 572.509C1004.05 565.549 1006.03 564.363 1011.47 564.372M1014.54 572.509H1026.55M1036.45 572.85L1058.35 572.509M1222.28 584.861C1236 587.672 1246.37 588.782 1264.68 589.806C1235.71 564.372 1256.9 564.372 1268.92 589.1C1269.59 583.668 1265.67 610.248 1267.73 605.306M1321.91 594.045C1329.93 591.082 1333.92 584.861 1329.68 584.861C1325.44 584.861 1296.47 594.045 1283.05 594.045C1280.86 584.262 1278.95 582.272 1272.45 594.045C1270.99 592.295 1266.05 615.089 1267.73 605.306M1267.73 605.306C1273.2 592.181 1280.99 581.684 1277.39 578.604C1274.49 576.116 1270.13 591.4 1267.73 605.306Z" stroke="#174210"/>
<path d="M1114.14 603.233C1121.33 599.597 1125.01 597.237 1150.18 610.298C1153.02 598.983 1148.83 592.435 1137.46 580.624C1146.02 584.645 1150.36 580.472 1160.78 610.298M1160.78 610.298C1158.65 584.583 1165.72 572.852 1172.08 572.852C1178.44 572.852 1172.84 585.737 1160.78 610.298ZM1160.78 610.298C1164.9 599.226 1171.38 601.82 1178.44 610.298C1185.51 618.775 1195.24 612.841 1206 610.298" stroke="#174210"/>
<path d="M1030.23 631.701C1040.85 642.924 1043.75 641.592 1034.47 609.093C1025.18 576.593 1044.57 612.081 1050.72 641.592M1050.72 641.592C1050.72 641.592 1047.89 596.376 1059.2 602.734C1070.5 609.093 1061.16 613.886 1050.72 641.592ZM1050.72 641.592C1063.26 624.724 1059.2 641.592 1074.74 641.592C1090.29 641.592 1112.32 631.599 1146.81 646.538" stroke="#174210"/>
<rect x="-1" width="1281" height="720" fill="url(#paint48_linear)"/>
<rect x="-1" width="1281" height="720" fill="url(#paint49_linear)"/>
<defs>
<linearGradient id="paint0_linear" x1="1315.56" y1="707.654" x2="-203.202" y2="-227.608" gradientUnits="userSpaceOnUse">
<stop offset="0.374968" stop-color="#023968"/>
<stop offset="1"/>
<stop offset="1" stop-color="#00070C"/>
</linearGradient>
<linearGradient id="paint1_linear" x1="115.45" y1="705.585" x2="1601.11" y2="-117.942" gradientUnits="userSpaceOnUse">
<stop offset="0.459423" stop-color="#053B6A"/>
<stop offset="1"/>
</linearGradient>
<linearGradient id="paint2_linear" x1="1315.56" y1="405.556" x2="115.45" y2="397.279" gradientUnits="userSpaceOnUse">
<stop stop-color="white" stop-opacity="0"/>
<stop offset="0.484375" stop-color="white" stop-opacity="0.33"/>
<stop offset="1" stop-color="white" stop-opacity="0"/>
</linearGradient>
<linearGradient id="paint3_linear" x1="923.208" y1="143.161" x2="944.854" y2="174.805" gradientUnits="userSpaceOnUse">
<stop stop-color="#052744"/>
<stop offset="1" stop-color="white"/>
</linearGradient>
<linearGradient id="paint4_linear" x1="637.663" y1="468.02" x2="659.31" y2="499.664" gradientUnits="userSpaceOnUse">
<stop stop-color="#052744"/>
<stop offset="1" stop-color="white"/>
</linearGradient>
<linearGradient id="paint5_linear" x1="863.202" y1="89.3627" x2="884.848" y2="121.007" gradientUnits="userSpaceOnUse">
<stop stop-color="#052744"/>
<stop offset="1" stop-color="white"/>
</linearGradient>
<linearGradient id="paint6_linear" x1="1134.26" y1="388.357" x2="1155.91" y2="420.001" gradientUnits="userSpaceOnUse">
<stop stop-color="#052744"/>
<stop offset="1" stop-color="white"/>
</linearGradient>
<linearGradient id="paint7_linear" x1="513.513" y1="458.709" x2="535.16" y2="490.353" gradientUnits="userSpaceOnUse">
<stop stop-color="#052744"/>
<stop offset="1" stop-color="white"/>
</linearGradient>
<linearGradient id="paint8_linear" x1="674.908" y1="164.887" x2="696.554" y2="196.531" gradientUnits="userSpaceOnUse">
<stop stop-color="#052744"/>
<stop offset="1" stop-color="white"/>
</linearGradient>
<linearGradient id="paint9_linear" x1="1147.71" y1="584.928" x2="1169.36" y2="616.572" gradientUnits="userSpaceOnUse">
<stop stop-color="#052744"/>
<stop offset="1" stop-color="white"/>
</linearGradient>
<linearGradient id="paint10_linear" x1="1022.53" y1="558.028" x2="1044.17" y2="589.672" gradientUnits="userSpaceOnUse">
<stop stop-color="#052744"/>
<stop offset="1" stop-color="white"/>
</linearGradient>
<linearGradient id="paint11_linear" x1="571.45" y1="243.515" x2="593.096" y2="275.159" gradientUnits="userSpaceOnUse">
<stop stop-color="#052744"/>
<stop offset="1" stop-color="white"/>
</linearGradient>
<linearGradient id="paint12_linear" x1="447.3" y1="310.763" x2="468.946" y2="342.407" gradientUnits="userSpaceOnUse">
<stop stop-color="#052744"/>
<stop offset="1" stop-color="white"/>
</linearGradient>
<linearGradient id="paint13_linear" x1="1049.43" y1="211.443" x2="1071.07" y2="243.087" gradientUnits="userSpaceOnUse">
<stop stop-color="#052744"/>
<stop offset="1" stop-color="white"/>
</linearGradient>
<linearGradient id="paint14_linear" x1="722.499" y1="314.902" x2="744.145" y2="346.546" gradientUnits="userSpaceOnUse">
<stop stop-color="#052744"/>
<stop offset="1" stop-color="white"/>
</linearGradient>
<linearGradient id="paint15_linear" x1="854.925" y1="420.429" x2="876.572" y2="452.073" gradientUnits="userSpaceOnUse">
<stop stop-color="#052744"/>
<stop offset="1" stop-color="white"/>
</linearGradient>
<linearGradient id="paint16_linear" x1="730.776" y1="411.118" x2="752.422" y2="442.762" gradientUnits="userSpaceOnUse">
<stop stop-color="#052744"/>
<stop offset="1" stop-color="white"/>
</linearGradient>
<linearGradient id="paint17_linear" x1="788.712" y1="195.925" x2="810.358" y2="227.569" gradientUnits="userSpaceOnUse">
<stop stop-color="#052744"/>
<stop offset="1" stop-color="white"/>
</linearGradient>
<linearGradient id="paint18_linear" x1="664.562" y1="263.173" x2="686.209" y2="294.816" gradientUnits="userSpaceOnUse">
<stop stop-color="#052744"/>
<stop offset="1" stop-color="white"/>
</linearGradient>
<linearGradient id="paint19_linear" x1="939.761" y1="267.311" x2="961.407" y2="298.955" gradientUnits="userSpaceOnUse">
<stop stop-color="#052744"/>
<stop offset="1" stop-color="white"/>
</linearGradient>
<linearGradient id="paint20_linear" x1="383.156" y1="243.515" x2="404.802" y2="275.159" gradientUnits="userSpaceOnUse">
<stop stop-color="#052744"/>
<stop offset="1" stop-color="white"/>
</linearGradient>
<linearGradient id="paint21_linear" x1="259.006" y1="234.204" x2="280.652" y2="265.848" gradientUnits="userSpaceOnUse">
<stop stop-color="#052744"/>
<stop offset="1" stop-color="white"/>
</linearGradient>
<linearGradient id="paint22_linear" x1="316.943" y1="19.0112" x2="338.589" y2="50.6551" gradientUnits="userSpaceOnUse">
<stop stop-color="#052744"/>
<stop offset="1" stop-color="white"/>
</linearGradient>
<linearGradient id="paint23_linear" x1="192.793" y1="86.259" x2="214.439" y2="117.903" gradientUnits="userSpaceOnUse">
<stop stop-color="#052744"/>
<stop offset="1" stop-color="white"/>
</linearGradient>
<linearGradient id="paint24_linear" x1="467.992" y1="90.3973" x2="489.638" y2="122.041" gradientUnits="userSpaceOnUse">
<stop stop-color="#052744"/>
<stop offset="1" stop-color="white"/>
</linearGradient>
<linearGradient id="paint25_linear" x1="427.643" y1="583.893" x2="449.289" y2="615.537" gradientUnits="userSpaceOnUse">
<stop stop-color="#052744"/>
<stop offset="1" stop-color="white"/>
</linearGradient>
<linearGradient id="paint26_linear" x1="303.493" y1="574.582" x2="325.139" y2="606.226" gradientUnits="userSpaceOnUse">
<stop stop-color="#052744"/>
<stop offset="1" stop-color="white"/>
</linearGradient>
<linearGradient id="paint27_linear" x1="361.43" y1="359.389" x2="383.076" y2="391.033" gradientUnits="userSpaceOnUse">
<stop stop-color="#052744"/>
<stop offset="1" stop-color="white"/>
</linearGradient>
<linearGradient id="paint28_linear" x1="237.28" y1="426.637" x2="258.926" y2="458.28" gradientUnits="userSpaceOnUse">
<stop stop-color="#052744"/>
<stop offset="1" stop-color="white"/>
</linearGradient>
<linearGradient id="paint29_linear" x1="512.479" y1="430.775" x2="534.125" y2="462.419" gradientUnits="userSpaceOnUse">
<stop stop-color="#052744"/>
<stop offset="1" stop-color="white"/>
</linearGradient>
<linearGradient id="paint30_linear" x1="764.917" y1="583.893" x2="786.563" y2="615.537" gradientUnits="userSpaceOnUse">
<stop stop-color="#052744"/>
<stop offset="1" stop-color="white"/>
</linearGradient>
<linearGradient id="paint31_linear" x1="640.767" y1="574.582" x2="662.413" y2="606.226" gradientUnits="userSpaceOnUse">
<stop stop-color="#052744"/>
<stop offset="1" stop-color="white"/>
</linearGradient>
<linearGradient id="paint32_linear" x1="698.704" y1="359.389" x2="720.35" y2="391.033" gradientUnits="userSpaceOnUse">
<stop stop-color="#052744"/>
<stop offset="1" stop-color="white"/>
</linearGradient>
<linearGradient id="paint33_linear" x1="574.554" y1="426.637" x2="596.2" y2="458.28" gradientUnits="userSpaceOnUse">
<stop stop-color="#052744"/>
<stop offset="1" stop-color="white"/>
</linearGradient>
<linearGradient id="paint34_linear" x1="849.752" y1="372.838" x2="871.399" y2="404.482" gradientUnits="userSpaceOnUse">
<stop stop-color="#052744"/>
<stop offset="1" stop-color="white"/>
</linearGradient>
<linearGradient id="paint35_linear" x1="1101.16" y1="597.343" x2="1122.8" y2="628.987" gradientUnits="userSpaceOnUse">
<stop stop-color="#052744"/>
<stop offset="1" stop-color="white"/>
</linearGradient>
<linearGradient id="paint36_linear" x1="977.006" y1="588.031" x2="998.652" y2="619.675" gradientUnits="userSpaceOnUse">
<stop stop-color="#052744"/>
<stop offset="1" stop-color="white"/>
</linearGradient>
<linearGradient id="paint37_linear" x1="1034.94" y1="372.838" x2="1056.59" y2="404.482" gradientUnits="userSpaceOnUse">
<stop stop-color="#052744"/>
<stop offset="1" stop-color="white"/>
</linearGradient>
<linearGradient id="paint38_linear" x1="910.793" y1="440.086" x2="932.439" y2="471.73" gradientUnits="userSpaceOnUse">
<stop stop-color="#052744"/>
<stop offset="1" stop-color="white"/>
</linearGradient>
<linearGradient id="paint39_linear" x1="1185.99" y1="444.224" x2="1207.64" y2="475.868" gradientUnits="userSpaceOnUse">
<stop stop-color="#052744"/>
<stop offset="1" stop-color="white"/>
</linearGradient>
<linearGradient id="paint40_linear" x1="1132.19" y1="234.204" x2="1153.84" y2="265.848" gradientUnits="userSpaceOnUse">
<stop stop-color="#052744"/>
<stop offset="1" stop-color="white"/>
</linearGradient>
<linearGradient id="paint41_linear" x1="1008.04" y1="224.893" x2="1029.69" y2="256.537" gradientUnits="userSpaceOnUse">
<stop stop-color="#052744"/>
<stop offset="1" stop-color="white"/>
</linearGradient>
<linearGradient id="paint42_linear" x1="1065.98" y1="9.69992" x2="1087.63" y2="41.3439" gradientUnits="userSpaceOnUse">
<stop stop-color="#052744"/>
<stop offset="1" stop-color="white"/>
</linearGradient>
<linearGradient id="paint43_linear" x1="941.83" y1="76.9478" x2="963.476" y2="108.592" gradientUnits="userSpaceOnUse">
<stop stop-color="#052744"/>
<stop offset="1" stop-color="white"/>
</linearGradient>
<linearGradient id="paint44_linear" x1="1217.03" y1="81.0861" x2="1238.68" y2="112.73" gradientUnits="userSpaceOnUse">
<stop stop-color="#052744"/>
<stop offset="1" stop-color="white"/>
</linearGradient>
<linearGradient id="paint45_linear" x1="504.911" y1="108.84" x2="526.557" y2="140.484" gradientUnits="userSpaceOnUse">
<stop stop-color="#052744"/>
<stop offset="1" stop-color="white"/>
</linearGradient>
<linearGradient id="paint46_linear" x1="642.046" y1="33" x2="642.046" y2="468.5" gradientUnits="userSpaceOnUse">
<stop stop-color="white"/>
<stop offset="1" stop-color="white" stop-opacity="0"/>
</linearGradient>
<linearGradient id="paint47_linear" x1="18.5" y1="349" x2="579.501" y2="345.657" gradientUnits="userSpaceOnUse">
<stop stop-color="white"/>
<stop offset="1" stop-color="white" stop-opacity="0"/>
</linearGradient>
<linearGradient id="paint48_linear" x1="503.51" y1="700.062" x2="1006.85" y2="110.478" gradientUnits="userSpaceOnUse">
<stop offset="0.0270645" stop-color="white"/>
<stop offset="0.493674" stop-color="white" stop-opacity="0"/>
</linearGradient>
<linearGradient id="paint49_linear" x1="639.5" y1="720" x2="639.5" y2="569.354" gradientUnits="userSpaceOnUse">
<stop stop-color="white"/>
<stop offset="1" stop-color="white" stop-opacity="0"/>
</linearGradient>
</defs>
</svg>
