<svg width="36" height="61" viewBox="0 0 36 61" fill="none" xmlns="http://www.w3.org/2000/svg">
<path d="M8.79156 60.3976C0.625848 41.1943 -2.23421 31.6152 1.83682 20.863C3.13775 22.2841 3.86572 22.437 5.16337 22.3484C4.87957 27.854 4.986 30.7251 6.74399 34.5744C8.35751 32.3704 9.39748 31.5051 11.9074 31.8321C17.556 33.2315 19.5932 39.5665 19.856 60.3976H18.8022C16.9801 45.5175 16.4286 35.6279 10.0561 35.717C3.90655 37.1075 5.67064 44.4806 11.0045 60.3976H8.79156Z" fill="#E14E0E"/>
<path d="M7.06021 31.8322L5.79572 26.9189C8.05217 25.2364 9.32239 25.0291 11.5913 25.0907C21.1428 26.5732 23.8292 33.3961 23.4987 51.9423C28.3686 43.3103 30.6301 35.584 28.5567 27.4902C26.4833 19.3965 23.6259 18.7524 19.4944 20.1775C21.6355 17.0347 22.7785 16.232 24.8686 15.7212C30.2528 14.5426 33.8762 17.0305 35.5114 23.4911C37.3024 32.3963 34.0283 40.4524 20.7589 60.0549C19.7004 40.8814 18.9778 30.4813 10.9591 30.1182C9.48144 30.2259 8.63976 30.4532 7.06021 31.8322Z" fill="#E14E0E"/>
<path d="M1.68606 6.80886C1.95848 5.35413 1.66407 4.89424 0.737749 0.9815C3.09175 4.0296 4.30436 5.775 6.5334 8.86557H9.37853C12.6035 11.8171 13.4976 12.3642 14.2258 12.2934C17.2113 12.5661 18.7562 12.039 21.3913 10.4652C20.7741 13.6128 6.09065 27.8101 0.73767 16.9782C-0.110529 15.6528 1.41365 8.26359 1.68606 6.80886Z" fill="#E14E0E"/>
<path d="M4.7419 2.92379C4.9586 2.18819 4.94704 1.67948 4.7419 0.638555C5.73171 1.44796 6.18216 2.20636 6.84939 3.95215L8.85152 7.83706H6.84939L4.21502 3.95215L4.7419 2.92379Z" fill="#E14E0E"/>
<path d="M11.0643 13.6644L8.85146 10.8079C10.5901 12.2346 11.387 12.769 12.5396 13.3216L11.0643 13.0931V13.6644Z" fill="black" stroke="black"/>
</svg>
