<svg width="335" height="335" viewBox="0 0 335 335" fill="none" xmlns="http://www.w3.org/2000/svg">
<path fill-rule="evenodd" clip-rule="evenodd" d="M20.1098 153.594C20.5219 152.868 20.938 152.161 21.3581 151.472C20.9393 152.164 20.5232 152.871 20.1098 153.594Z" fill="white"/>
<path d="M263.007 212.41C294.707 215.147 307.616 209.195 323.834 184.648V176.538C314.788 201.18 279.228 204.3 263.007 198.373C252.405 194.499 226.37 180.889 197.568 165.833L197.567 165.833L197.565 165.832C182.304 157.854 166.266 149.47 151.336 141.913C108.228 120.096 77.4078 119.454 61.1873 123.821C45.6202 128.012 32.1583 133.754 21.3581 151.472C20.9393 152.164 20.5232 152.871 20.1098 153.594C20.0773 153.652 20.0447 153.709 20.0122 153.767C26.5629 142.849 41.8475 133.803 61.1873 133.803C80.5271 133.803 134.354 155.918 151.143 164.684C153.79 166.066 157.467 168.119 161.928 170.61C185.767 183.921 231.993 209.732 263.007 212.41Z" fill="white"/>
<path d="M18.1406 190.575C18.1406 208.979 38.1043 229.878 61.1873 231.438C84.2703 232.998 110.161 234.747 147.865 196.708C144.523 195.001 141.316 193.339 138.235 191.723C110.887 203.961 74.2885 204.924 61.1873 202.428C48.0861 199.933 33.4253 196.708 20.1098 180.976C18.8344 183.953 18.1406 187.167 18.1406 190.575Z" fill="white"/>
<path d="M61.1873 155.638C36.5295 153.789 15.6452 170.299 15.6452 190.575C15.6452 209.291 29.0583 232.998 61.1873 235.181C93.3163 237.365 116.711 231.438 151.143 198.373C150.036 197.813 148.944 197.258 147.865 196.708C110.161 234.747 84.2703 232.998 61.1873 231.438C38.1043 229.878 18.1406 208.979 18.1406 190.575C18.1406 187.167 18.8344 183.953 20.1098 180.976C20.5324 179.99 21.0188 179.03 21.565 178.098C28.2744 166.645 44.0029 159.385 61.1873 159.385C78.0277 159.385 93.8102 167.888 119.552 181.756L119.553 181.757L119.554 181.757C124.098 184.206 128.953 186.821 134.179 189.587C135.507 190.289 136.858 191.002 138.235 191.723C141.316 193.339 144.523 195.001 147.865 196.708C148.944 197.258 150.036 197.813 151.143 198.373C156.902 201.283 162.278 204.054 167.362 206.674C203.149 225.116 224.497 236.117 263.007 236.117C306.99 236.117 323.834 198.373 323.834 184.648C323.834 198.373 303.871 233.309 263.007 233.309C222.694 233.309 196.953 220.142 152.952 197.633L151.143 196.708C140.415 190.813 131.336 185.684 123.468 181.239C93.0736 164.067 80.7508 157.105 61.1873 155.638Z" fill="white"/>
<path d="M15.6452 190.575C15.6452 170.299 36.5295 153.789 61.1873 155.638C80.7508 157.105 93.0736 164.067 123.468 181.239C131.336 185.684 140.415 190.813 151.143 196.708L152.952 197.633C196.953 220.142 222.694 233.309 263.007 233.309C303.871 233.309 323.834 198.373 323.834 184.648C307.616 209.195 294.707 215.147 263.007 212.41C231.993 209.732 185.767 183.921 161.928 170.61C157.467 168.119 153.79 166.066 151.143 164.684C134.354 155.918 80.5271 133.803 61.1873 133.803C41.8475 133.803 26.5629 142.849 20.0122 153.767C14.1029 163.615 14.7476 174.825 15.43 186.689C15.5041 187.977 15.5786 189.272 15.6452 190.575Z" fill="white"/>
<path d="M61.1873 123.821C77.4078 119.454 108.228 120.096 151.336 141.913C166.266 149.47 182.304 157.854 197.565 165.832L197.567 165.833L197.568 165.833C226.37 180.889 252.405 194.499 263.007 198.373C279.228 204.3 314.788 201.18 323.834 176.538C325.394 131.932 293.265 119.766 268.622 119.766C243.98 119.766 213.389 127.313 185.024 156.845C186.602 157.7 188.162 158.547 189.703 159.385C216.425 135.985 231.814 123.509 268.622 123.509C305.43 123.509 323.522 155.95 318.531 174.354C318.147 175.772 317.653 177.124 317.057 178.409C309.915 193.815 288.055 199.653 263.007 193.694C245.929 189.631 225.885 179.069 200.933 165.5C199.106 164.506 197.253 163.496 195.372 162.472L195.358 162.464C193.5 161.452 191.615 160.425 189.703 159.385C188.162 158.547 186.602 157.7 185.024 156.845C174.618 151.205 163.425 145.226 151.336 139.106C101.427 113.839 77.4078 116.335 61.1873 121.014C45.5555 125.523 32.4805 133.094 21.3581 151.472C32.1583 133.754 45.6202 128.012 61.1873 123.821Z" fill="white"/>
<path d="M61.1873 202.428C74.2885 204.924 110.887 203.961 138.235 191.723C136.858 191.002 135.507 190.289 134.179 189.587C110.143 200.083 78.6555 203.527 61.1873 199.933C43.7191 196.339 34.9903 192.444 21.565 178.098C21.0188 179.03 20.5324 179.99 20.1098 180.976C33.4253 196.708 48.0861 199.933 61.1873 202.428Z" fill="white"/>
<path d="M318.531 174.354C323.522 155.95 305.43 123.509 268.622 123.509C231.814 123.509 216.425 135.985 189.703 159.385C191.615 160.425 193.5 161.452 195.358 162.464L195.372 162.472C197.253 163.496 199.106 164.506 200.933 165.5C228.397 156.3 243.98 151.937 268.622 154.391C293.265 156.845 304.791 162.27 317.057 178.409C317.653 177.124 318.147 175.772 318.531 174.354Z" fill="white"/>
<path d="M318.531 174.354C323.522 155.95 305.43 123.509 268.622 123.509C231.814 123.509 216.425 135.985 189.703 159.385C191.615 160.425 193.5 161.452 195.358 162.464L195.372 162.472C197.253 163.496 199.106 164.506 200.933 165.5C228.397 156.3 243.98 151.937 268.622 154.391C293.265 156.845 304.791 162.27 317.057 178.409C317.653 177.124 318.147 175.772 318.531 174.354Z" fill="white"/>
<path fill-rule="evenodd" clip-rule="evenodd" d="M263.007 212.41C294.707 215.147 307.616 209.195 323.834 184.648V176.538C314.788 201.18 279.228 204.3 263.007 198.373C252.405 194.499 226.37 180.889 197.568 165.833L197.567 165.833L197.565 165.832C182.304 157.854 166.266 149.47 151.336 141.913C108.228 120.096 77.4078 119.454 61.1873 123.821C45.6202 128.012 32.1583 133.754 21.3581 151.472C20.9393 152.164 20.5232 152.871 20.1098 153.594C20.0773 153.652 20.0447 153.709 20.0122 153.767C26.5629 142.849 41.8475 133.803 61.1873 133.803C80.5271 133.803 134.354 155.918 151.143 164.684C153.79 166.066 157.467 168.119 161.928 170.61C185.767 183.921 231.993 209.732 263.007 212.41Z" fill="url(#paint0_linear)"/>
<path fill-rule="evenodd" clip-rule="evenodd" d="M263.007 212.41C294.707 215.147 307.616 209.195 323.834 184.648V176.538C314.788 201.18 279.228 204.3 263.007 198.373C252.405 194.499 226.37 180.889 197.568 165.833L197.567 165.833L197.565 165.832C182.304 157.854 166.266 149.47 151.336 141.913C108.228 120.096 77.4078 119.454 61.1873 123.821C45.6202 128.012 32.1583 133.754 21.3581 151.472C20.9393 152.164 20.5232 152.871 20.1098 153.594C20.0773 153.652 20.0447 153.709 20.0122 153.767C26.5629 142.849 41.8475 133.803 61.1873 133.803C80.5271 133.803 134.354 155.918 151.143 164.684C153.79 166.066 157.467 168.119 161.928 170.61C185.767 183.921 231.993 209.732 263.007 212.41Z" fill="url(#paint1_linear)"/>
<path fill-rule="evenodd" clip-rule="evenodd" d="M18.1406 190.575C18.1406 208.979 38.1043 229.878 61.1873 231.438C84.2703 232.998 110.161 234.747 147.865 196.708C144.523 195.001 141.316 193.339 138.235 191.723C110.887 203.961 74.2884 204.924 61.1873 202.428C48.0861 199.933 33.4253 196.708 20.1098 180.976C18.8344 183.953 18.1406 187.167 18.1406 190.575Z" fill="url(#paint2_linear)"/>
<path fill-rule="evenodd" clip-rule="evenodd" d="M18.1406 190.575C18.1406 208.979 38.1043 229.878 61.1873 231.438C84.2703 232.998 110.161 234.747 147.865 196.708C144.523 195.001 141.316 193.339 138.235 191.723C110.887 203.961 74.2884 204.924 61.1873 202.428C48.0861 199.933 33.4253 196.708 20.1098 180.976C18.8344 183.953 18.1406 187.167 18.1406 190.575Z" fill="url(#paint3_linear)"/>
<path fill-rule="evenodd" clip-rule="evenodd" d="M61.1873 155.638C36.5295 153.789 15.6452 170.299 15.6452 190.575C15.6452 209.291 29.0583 232.998 61.1873 235.181C93.3164 237.365 116.711 231.438 151.144 198.373C150.036 197.813 148.944 197.258 147.865 196.708C110.161 234.747 84.2703 232.998 61.1873 231.438C38.1043 229.878 18.1407 208.979 18.1407 190.575C18.1407 187.167 18.8345 183.953 20.1098 180.976C20.5324 179.99 21.0188 179.03 21.565 178.098C28.2744 166.645 44.003 159.385 61.1873 159.385C78.0277 159.385 93.8102 167.888 119.552 181.756L119.553 181.757L119.554 181.757C124.098 184.206 128.953 186.821 134.179 189.587C135.507 190.289 136.858 191.001 138.235 191.723C141.316 193.339 144.523 195.001 147.865 196.708C148.944 197.258 150.036 197.813 151.144 198.373C156.902 201.283 162.278 204.054 167.362 206.674C203.149 225.116 224.497 236.117 263.007 236.117C306.99 236.117 323.834 198.373 323.834 184.648C323.834 198.373 303.871 233.309 263.007 233.309C222.694 233.309 196.953 220.142 152.953 197.633L151.144 196.708C140.415 190.813 131.336 185.684 123.468 181.239C93.0736 164.067 80.7508 157.105 61.1873 155.638Z" fill="url(#paint4_linear)"/>
<path fill-rule="evenodd" clip-rule="evenodd" d="M61.1873 155.638C36.5295 153.789 15.6452 170.299 15.6452 190.575C15.6452 209.291 29.0583 232.998 61.1873 235.181C93.3164 237.365 116.711 231.438 151.144 198.373C150.036 197.813 148.944 197.258 147.865 196.708C110.161 234.747 84.2703 232.998 61.1873 231.438C38.1043 229.878 18.1407 208.979 18.1407 190.575C18.1407 187.167 18.8345 183.953 20.1098 180.976C20.5324 179.99 21.0188 179.03 21.565 178.098C28.2744 166.645 44.003 159.385 61.1873 159.385C78.0277 159.385 93.8102 167.888 119.552 181.756L119.553 181.757L119.554 181.757C124.098 184.206 128.953 186.821 134.179 189.587C135.507 190.289 136.858 191.001 138.235 191.723C141.316 193.339 144.523 195.001 147.865 196.708C148.944 197.258 150.036 197.813 151.144 198.373C156.902 201.283 162.278 204.054 167.362 206.674C203.149 225.116 224.497 236.117 263.007 236.117C306.99 236.117 323.834 198.373 323.834 184.648C323.834 198.373 303.871 233.309 263.007 233.309C222.694 233.309 196.953 220.142 152.953 197.633L151.144 196.708C140.415 190.813 131.336 185.684 123.468 181.239C93.0736 164.067 80.7508 157.105 61.1873 155.638Z" fill="url(#paint5_linear)"/>
<path fill-rule="evenodd" clip-rule="evenodd" d="M15.6452 190.575C15.6452 170.299 36.5295 153.789 61.1873 155.638C80.7508 157.105 93.0736 164.067 123.468 181.239C131.336 185.684 140.415 190.813 151.143 196.708L152.952 197.633C196.953 220.142 222.694 233.31 263.007 233.31C303.871 233.31 323.834 198.373 323.834 184.648C307.616 209.195 294.707 215.147 263.007 212.41C231.993 209.732 185.767 183.921 161.928 170.61C157.467 168.119 153.79 166.066 151.143 164.684C134.354 155.918 80.5271 133.803 61.1873 133.803C41.8475 133.803 26.5629 142.849 20.0122 153.767C14.1029 163.615 14.7476 174.825 15.43 186.689C15.5041 187.977 15.5786 189.273 15.6452 190.575Z" fill="url(#paint6_linear)"/>
<path fill-rule="evenodd" clip-rule="evenodd" d="M15.6452 190.575C15.6452 170.299 36.5295 153.789 61.1873 155.638C80.7508 157.105 93.0736 164.067 123.468 181.239C131.336 185.684 140.415 190.813 151.143 196.708L152.952 197.633C196.953 220.142 222.694 233.31 263.007 233.31C303.871 233.31 323.834 198.373 323.834 184.648C307.616 209.195 294.707 215.147 263.007 212.41C231.993 209.732 185.767 183.921 161.928 170.61C157.467 168.119 153.79 166.066 151.143 164.684C134.354 155.918 80.5271 133.803 61.1873 133.803C41.8475 133.803 26.5629 142.849 20.0122 153.767C14.1029 163.615 14.7476 174.825 15.43 186.689C15.5041 187.977 15.5786 189.273 15.6452 190.575Z" fill="url(#paint7_linear)"/>
<path fill-rule="evenodd" clip-rule="evenodd" d="M61.1872 123.821C77.4077 119.454 108.228 120.096 151.336 141.913C166.266 149.47 182.304 157.854 197.565 165.832L197.567 165.833L197.568 165.833C226.37 180.889 252.405 194.499 263.007 198.373C279.228 204.3 314.788 201.18 323.834 176.538C325.394 131.932 293.265 119.766 268.622 119.766C243.979 119.766 213.389 127.313 185.024 156.845C186.602 157.7 188.161 158.547 189.703 159.385C216.425 135.985 231.814 123.509 268.622 123.509C305.43 123.509 323.522 155.95 318.531 174.354C318.147 175.772 317.653 177.124 317.057 178.409C309.914 193.815 288.055 199.653 263.007 193.694C245.929 189.631 225.885 179.069 200.933 165.5C199.106 164.506 197.253 163.496 195.372 162.472L195.358 162.464C193.5 161.452 191.615 160.425 189.703 159.385C188.161 158.547 186.602 157.7 185.024 156.845C174.618 151.205 163.425 145.226 151.336 139.106C101.426 113.839 77.4077 116.335 61.1872 121.014C45.5554 125.523 32.4804 133.094 21.358 151.472C32.1582 133.754 45.6201 128.012 61.1872 123.821Z" fill="url(#paint8_linear)"/>
<path fill-rule="evenodd" clip-rule="evenodd" d="M61.1874 202.428C74.2885 204.924 110.887 203.961 138.235 191.723C136.858 191.001 135.507 190.289 134.18 189.587C110.143 200.083 78.6556 203.527 61.1874 199.933C43.7192 196.339 34.9903 192.444 21.565 178.097C21.0189 179.03 20.5325 179.99 20.1099 180.976C33.4254 196.708 48.0862 199.933 61.1874 202.428Z" fill="url(#paint9_linear)"/>
<path fill-rule="evenodd" clip-rule="evenodd" d="M318.531 174.354C323.522 155.95 305.43 123.51 268.622 123.51C231.814 123.51 216.426 135.985 189.703 159.385C191.615 160.425 193.5 161.452 195.358 162.464L195.372 162.472C197.253 163.497 199.106 164.506 200.933 165.5C228.397 156.3 243.98 151.937 268.622 154.391C293.265 156.845 304.791 162.27 317.057 178.41C317.653 177.124 318.147 175.772 318.531 174.354Z" fill="url(#paint10_linear)"/>
<defs>
<linearGradient id="paint0_linear" x1="355.006" y1="125.486" x2="151.626" y2="121.743" gradientUnits="userSpaceOnUse">
<stop/>
<stop offset="0.367862" stop-color="#8D8D8D" stop-opacity="0.533354"/>
<stop offset="0.931909" stop-color="white" stop-opacity="0.47"/>
</linearGradient>
<linearGradient id="paint1_linear" x1="-3.09207" y1="167.285" x2="154.122" y2="167.285" gradientUnits="userSpaceOnUse">
<stop/>
<stop offset="0.293651" stop-color="#393939" stop-opacity="0.777778"/>
<stop offset="1" stop-color="white" stop-opacity="0"/>
</linearGradient>
<linearGradient id="paint2_linear" x1="-59.8638" y1="232.167" x2="93.6069" y2="232.167" gradientUnits="userSpaceOnUse">
<stop/>
<stop offset="0.682927" stop-color="#666666" stop-opacity="0.663795"/>
<stop offset="1" stop-color="white" stop-opacity="0.158224"/>
</linearGradient>
<linearGradient id="paint3_linear" x1="147.883" y1="232.167" x2="102.965" y2="232.167" gradientUnits="userSpaceOnUse">
<stop/>
<stop offset="1" stop-color="white" stop-opacity="0"/>
</linearGradient>
<linearGradient id="paint4_linear" x1="15.6239" y1="245.268" x2="229.609" y2="250.259" gradientUnits="userSpaceOnUse">
<stop/>
<stop offset="0.617876" stop-color="#6F6F6F" stop-opacity="0.631956"/>
<stop offset="1" stop-color="white" stop-opacity="0.158224"/>
</linearGradient>
<linearGradient id="paint5_linear" x1="298.858" y1="235.91" x2="149.755" y2="235.91" gradientUnits="userSpaceOnUse">
<stop/>
<stop offset="1" stop-color="white" stop-opacity="0"/>
</linearGradient>
<linearGradient id="paint6_linear" x1="341.281" y1="233.415" x2="160.36" y2="233.415" gradientUnits="userSpaceOnUse">
<stop/>
<stop offset="0.67931" stop-color="#838383" stop-opacity="0.486186"/>
<stop offset="1" stop-color="white" stop-opacity="0"/>
<stop offset="1" stop-color="white" stop-opacity="0"/>
</linearGradient>
<linearGradient id="paint7_linear" x1="-26.7989" y1="233.415" x2="206.526" y2="236.534" gradientUnits="userSpaceOnUse">
<stop/>
<stop offset="0.485188" stop-color="#6C6C6C" stop-opacity="0.578324"/>
<stop offset="1" stop-color="white" stop-opacity="0"/>
</linearGradient>
<linearGradient id="paint8_linear" x1="-19.3126" y1="200.974" x2="323.813" y2="200.974" gradientUnits="userSpaceOnUse">
<stop stop-color="#666666" stop-opacity="0.663795"/>
<stop offset="0.198182" stop-color="#777777" stop-opacity="0.531658"/>
<stop offset="1" stop-color="white" stop-opacity="0"/>
</linearGradient>
<linearGradient id="paint9_linear" x1="-21.1841" y1="196.607" x2="126.672" y2="194.735" gradientUnits="userSpaceOnUse">
<stop/>
<stop offset="1" stop-color="white" stop-opacity="0.158224"/>
</linearGradient>
<linearGradient id="paint10_linear" x1="174.085" y1="123.615" x2="328.804" y2="123.615" gradientUnits="userSpaceOnUse">
<stop/>
<stop offset="0.467742" stop-color="#C9C9C9" stop-opacity="0.39"/>
<stop offset="0.972399" stop-color="white"/>
</linearGradient>
</defs>
</svg>
